<?xml version="1.0"?>

<svg xmlns="http://www.w3.org/2000/svg" width="500" height="500">
  <style>
    :root {
      --color-white: white;
      --color-red: #f45e5e;
      --color-blue: #4591f5;
      --color-green: #54fd64;
      --color-yellow: #f0ff70;
      --color-orange: #f8b468;
    }
  </style>

  <g transform="translate(25 82.5) scale(1.41, .81) rotate(45) translate(50 -175)">
    <rect x="0" y="0" width="200" height="200" fill="purple"/>
    <rect x="0" y="0" width="18" height="18" rx="4" ry="4" fill="var(--color-orange)" />
    <rect x="20" y="0" width="18" height="18" rx="4" ry="4" fill="var(--color-green)" />
    <rect x="40" y="0" width="18" height="18" rx="4" ry="4" fill="var(--color-white)" />
    <rect x="60" y="0" width="18" height="18" rx="4" ry="4" fill="var(--color-white)" />
    <rect x="80" y="0" width="18" height="18" rx="4" ry="4" fill="var(--color-orange)" />
    <rect x="100" y="0" width="18" height="18" rx="4" ry="4" fill="var(--color-red)" />
    <rect x="120" y="0" width="18" height="18" rx="4" ry="4" fill="var(--color-white)" />
    <rect x="140" y="0" width="18" height="18" rx="4" ry="4" fill="var(--color-red)" />
    <rect x="160" y="0" width="18" height="18" rx="4" ry="4" fill="var(--color-orange)" />
    <rect x="180" y="0" width="18" height="18" rx="4" ry="4" fill="var(--color-yellow)" />

    <rect x="0" y="20" width="18" height="18" rx="4" ry="4" fill="var(--color-orange)" />
    <rect x="20" y="20" width="18" height="18" rx="4" ry="4" fill="var(--color-white)" />
    <rect x="40" y="20" width="18" height="18" rx="4" ry="4" fill="var(--color-orange)" />
    <rect x="60" y="20" width="18" height="18" rx="4" ry="4" fill="var(--color-blue)" />
    <rect x="80" y="20" width="18" height="18" rx="4" ry="4" fill="var(--color-yellow)" />
    <rect x="100" y="20" width="18" height="18" rx="4" ry="4" fill="var(--color-white)" />
    <rect x="120" y="20" width="18" height="18" rx="4" ry="4" fill="var(--color-green)" />
    <rect x="140" y="20" width="18" height="18" rx="4" ry="4" fill="var(--color-orange)" />
    <rect x="160" y="20" width="18" height="18" rx="4" ry="4" fill="var(--color-white)" />
    <rect x="180" y="20" width="18" height="18" rx="4" ry="4" fill="var(--color-red)" />

    <rect x="0" y="40" width="18" height="18" rx="4" ry="4" fill="var(--color-white)" />
    <rect x="20" y="40" width="18" height="18" rx="4" ry="4" fill="var(--color-white)" />
    <rect x="40" y="40" width="18" height="18" rx="4" ry="4" fill="var(--color-blue)" />
    <rect x="60" y="40" width="18" height="18" rx="4" ry="4" fill="var(--color-blue)" />
    <rect x="80" y="40" width="18" height="18" rx="4" ry="4" fill="var(--color-orange)" />
    <rect x="100" y="40" width="18" height="18" rx="4" ry="4" fill="var(--color-blue)" />
    <rect x="120" y="40" width="18" height="18" rx="4" ry="4" fill="var(--color-blue)" />
    <rect x="140" y="40" width="18" height="18" rx="4" ry="4" fill="var(--color-white)" />
    <rect x="160" y="40" width="18" height="18" rx="4" ry="4" fill="var(--color-red)" />
    <rect x="180" y="40" width="18" height="18" rx="4" ry="4" fill="var(--color-orange)" />

    <rect x="0" y="60" width="18" height="18" rx="4" ry="4" fill="var(--color-white)" />
    <rect x="20" y="60" width="18" height="18" rx="4" ry="4" fill="var(--color-blue)" />
    <rect x="40" y="60" width="18" height="18" rx="4" ry="4" fill="var(--color-yellow)" />
    <rect x="60" y="60" width="18" height="18" rx="4" ry="4" fill="var(--color-yellow)" />
    <rect x="80" y="60" width="18" height="18" rx="4" ry="4" fill="var(--color-orange)" />
    <rect x="100" y="60" width="18" height="18" rx="4" ry="4" fill="var(--color-blue)" />
    <rect x="120" y="60" width="18" height="18" rx="4" ry="4" fill="var(--color-orange)" />
    <rect x="140" y="60" width="18" height="18" rx="4" ry="4" fill="var(--color-red)" />
    <rect x="160" y="60" width="18" height="18" rx="4" ry="4" fill="var(--color-red)" />
    <rect x="180" y="60" width="18" height="18" rx="4" ry="4" fill="var(--color-blue)" />

    <rect x="0" y="80" width="18" height="18" rx="4" ry="4" fill="var(--color-blue)" />
    <rect x="20" y="80" width="18" height="18" rx="4" ry="4" fill="var(--color-blue)" />
    <rect x="40" y="80" width="18" height="18" rx="4" ry="4" fill="var(--color-blue)" />
    <rect x="60" y="80" width="18" height="18" rx="4" ry="4" fill="var(--color-white)" />
    <rect x="80" y="80" width="18" height="18" rx="4" ry="4" fill="var(--color-green)" />
    <rect x="100" y="80" width="18" height="18" rx="4" ry="4" fill="var(--color-red)" />
    <rect x="120" y="80" width="18" height="18" rx="4" ry="4" fill="var(--color-orange)" />
    <rect x="140" y="80" width="18" height="18" rx="4" ry="4" fill="var(--color-blue)" />
    <rect x="160" y="80" width="18" height="18" rx="4" ry="4" fill="var(--color-orange)" />
    <rect x="180" y="80" width="18" height="18" rx="4" ry="4" fill="var(--color-white)" />

    <rect x="0" y="100" width="18" height="18" rx="4" ry="4" fill="var(--color-orange)" />
    <rect x="20" y="100" width="18" height="18" rx="4" ry="4" fill="var(--color-yellow)" />
    <rect x="40" y="100" width="18" height="18" rx="4" ry="4" fill="var(--color-blue)" />
    <rect x="60" y="100" width="18" height="18" rx="4" ry="4" fill="var(--color-white)" />
    <rect x="80" y="100" width="18" height="18" rx="4" ry="4" fill="var(--color-orange)" />
    <rect x="100" y="100" width="18" height="18" rx="4" ry="4" fill="var(--color-green)" />
    <rect x="120" y="100" width="18" height="18" rx="4" ry="4" fill="var(--color-yellow)" />
    <rect x="140" y="100" width="18" height="18" rx="4" ry="4" fill="var(--color-red)" />
    <rect x="160" y="100" width="18" height="18" rx="4" ry="4" fill="var(--color-orange)" />
    <rect x="180" y="100" width="18" height="18" rx="4" ry="4" fill="var(--color-green)" />

    <rect x="0" y="120" width="18" height="18" rx="4" ry="4" fill="var(--color-green)" />
    <rect x="20" y="120" width="18" height="18" rx="4" ry="4" fill="var(--color-red)" />
    <rect x="40" y="120" width="18" height="18" rx="4" ry="4" fill="var(--color-orange)" />
    <rect x="60" y="120" width="18" height="18" rx="4" ry="4" fill="var(--color-orange)" />
    <rect x="80" y="120" width="18" height="18" rx="4" ry="4" fill="var(--color-red)" />
    <rect x="100" y="120" width="18" height="18" rx="4" ry="4" fill="var(--color-yellow)" />
    <rect x="120" y="120" width="18" height="18" rx="4" ry="4" fill="var(--color-blue)" />
    <rect x="140" y="120" width="18" height="18" rx="4" ry="4" fill="var(--color-green)" />
    <rect x="160" y="120" width="18" height="18" rx="4" ry="4" fill="var(--color-orange)" />
    <rect x="180" y="120" width="18" height="18" rx="4" ry="4" fill="var(--color-orange)" />

    <rect x="0" y="140" width="18" height="18" rx="4" ry="4" fill="var(--color-green)" />
    <rect x="20" y="140" width="18" height="18" rx="4" ry="4" fill="var(--color-blue)" />
    <rect x="40" y="140" width="18" height="18" rx="4" ry="4" fill="var(--color-orange)" />
    <rect x="60" y="140" width="18" height="18" rx="4" ry="4" fill="var(--color-red)" />
    <rect x="80" y="140" width="18" height="18" rx="4" ry="4" fill="var(--color-green)" />
    <rect x="100" y="140" width="18" height="18" rx="4" ry="4" fill="var(--color-yellow)" />
    <rect x="120" y="140" width="18" height="18" rx="4" ry="4" fill="var(--color-red)" />
    <rect x="140" y="140" width="18" height="18" rx="4" ry="4" fill="var(--color-white)" />
    <rect x="160" y="140" width="18" height="18" rx="4" ry="4" fill="var(--color-yellow)" />
    <rect x="180" y="140" width="18" height="18" rx="4" ry="4" fill="var(--color-blue)" />

    <rect x="0" y="160" width="18" height="18" rx="4" ry="4" fill="var(--color-yellow)" />
    <rect x="20" y="160" width="18" height="18" rx="4" ry="4" fill="var(--color-yellow)" />
    <rect x="40" y="160" width="18" height="18" rx="4" ry="4" fill="var(--color-orange)" />
    <rect x="60" y="160" width="18" height="18" rx="4" ry="4" fill="var(--color-orange)" />
    <rect x="80" y="160" width="18" height="18" rx="4" ry="4" fill="var(--color-red)" />
    <rect x="100" y="160" width="18" height="18" rx="4" ry="4" fill="var(--color-orange)" />
    <rect x="120" y="160" width="18" height="18" rx="4" ry="4" fill="var(--color-yellow)" />
    <rect x="140" y="160" width="18" height="18" rx="4" ry="4" fill="var(--color-green)" />
    <rect x="160" y="160" width="18" height="18" rx="4" ry="4" fill="var(--color-red)" />
    <rect x="180" y="160" width="18" height="18" rx="4" ry="4" fill="var(--color-orange)" />

    <rect x="0" y="180" width="18" height="18" rx="4" ry="4" fill="var(--color-green)" />
    <rect x="20" y="180" width="18" height="18" rx="4" ry="4" fill="var(--color-yellow)" />
    <rect x="40" y="180" width="18" height="18" rx="4" ry="4" fill="var(--color-white)" />
    <rect x="60" y="180" width="18" height="18" rx="4" ry="4" fill="var(--color-red)" />
    <rect x="80" y="180" width="18" height="18" rx="4" ry="4" fill="var(--color-white)" />
    <rect x="100" y="180" width="18" height="18" rx="4" ry="4" fill="var(--color-orange)" />
    <rect x="120" y="180" width="18" height="18" rx="4" ry="4" fill="var(--color-green)" />
    <rect x="140" y="180" width="18" height="18" rx="4" ry="4" fill="var(--color-red)" />
    <rect x="160" y="180" width="18" height="18" rx="4" ry="4" fill="var(--color-blue)" />
    <rect x="180" y="180" width="18" height="18" rx="4" ry="4" fill="var(--color-green)" />
  </g>

  <g transform="translate(42.5 37.5) skewY(30) translate(0 100) scale(1 1.14)">
    <rect x="0" y="0" width="18" height="18" rx="4" ry="4" fill="var(--color-white)" />
    <rect x="20" y="0" width="18" height="18" rx="4" ry="4" fill="var(--color-white)" />
    <rect x="40" y="0" width="18" height="18" rx="4" ry="4" fill="var(--color-blue)" />
    <rect x="60" y="0" width="18" height="18" rx="4" ry="4" fill="var(--color-yellow)" />
    <rect x="80" y="0" width="18" height="18" rx="4" ry="4" fill="var(--color-green)" />
    <rect x="100" y="0" width="18" height="18" rx="4" ry="4" fill="var(--color-yellow)" />
    <rect x="120" y="0" width="18" height="18" rx="4" ry="4" fill="var(--color-red)" />
    <rect x="140" y="0" width="18" height="18" rx="4" ry="4" fill="var(--color-red)" />
    <rect x="160" y="0" width="18" height="18" rx="4" ry="4" fill="var(--color-red)" />
    <rect x="180" y="0" width="18" height="18" rx="4" ry="4" fill="var(--color-orange)" />

    <rect x="0" y="20" width="18" height="18" rx="4" ry="4" fill="var(--color-green)" />
    <rect x="20" y="20" width="18" height="18" rx="4" ry="4" fill="var(--color-blue)" />
    <rect x="40" y="20" width="18" height="18" rx="4" ry="4" fill="var(--color-orange)" />
    <rect x="60" y="20" width="18" height="18" rx="4" ry="4" fill="var(--color-red)" />
    <rect x="80" y="20" width="18" height="18" rx="4" ry="4" fill="var(--color-white)" />
    <rect x="100" y="20" width="18" height="18" rx="4" ry="4" fill="var(--color-orange)" />
    <rect x="120" y="20" width="18" height="18" rx="4" ry="4" fill="var(--color-green)" />
    <rect x="140" y="20" width="18" height="18" rx="4" ry="4" fill="var(--color-green)" />
    <rect x="160" y="20" width="18" height="18" rx="4" ry="4" fill="var(--color-yellow)" />
    <rect x="180" y="20" width="18" height="18" rx="4" ry="4" fill="var(--color-yellow)" />

    <rect x="0" y="40" width="18" height="18" rx="4" ry="4" fill="var(--color-green)" />
    <rect x="20" y="40" width="18" height="18" rx="4" ry="4" fill="var(--color-yellow)" />
    <rect x="40" y="40" width="18" height="18" rx="4" ry="4" fill="var(--color-yellow)" />
    <rect x="60" y="40" width="18" height="18" rx="4" ry="4" fill="var(--color-blue)" />
    <rect x="80" y="40" width="18" height="18" rx="4" ry="4" fill="var(--color-white)" />
    <rect x="100" y="40" width="18" height="18" rx="4" ry="4" fill="var(--color-blue)" />
    <rect x="120" y="40" width="18" height="18" rx="4" ry="4" fill="var(--color-red)" />
    <rect x="140" y="40" width="18" height="18" rx="4" ry="4" fill="var(--color-orange)" />
    <rect x="160" y="40" width="18" height="18" rx="4" ry="4" fill="var(--color-blue)" />
    <rect x="180" y="40" width="18" height="18" rx="4" ry="4" fill="var(--color-white)" />

    <rect x="0" y="60" width="18" height="18" rx="4" ry="4" fill="var(--color-yellow)" />
    <rect x="20" y="60" width="18" height="18" rx="4" ry="4" fill="var(--color-blue)" />
    <rect x="40" y="60" width="18" height="18" rx="4" ry="4" fill="var(--color-white)" />
    <rect x="60" y="60" width="18" height="18" rx="4" ry="4" fill="var(--color-yellow)" />
    <rect x="80" y="60" width="18" height="18" rx="4" ry="4" fill="var(--color-yellow)" />
    <rect x="100" y="60" width="18" height="18" rx="4" ry="4" fill="var(--color-orange)" />
    <rect x="120" y="60" width="18" height="18" rx="4" ry="4" fill="var(--color-yellow)" />
    <rect x="140" y="60" width="18" height="18" rx="4" ry="4" fill="var(--color-orange)" />
    <rect x="160" y="60" width="18" height="18" rx="4" ry="4" fill="var(--color-yellow)" />
    <rect x="180" y="60" width="18" height="18" rx="4" ry="4" fill="var(--color-green)" />

    <rect x="0" y="80" width="18" height="18" rx="4" ry="4" fill="var(--color-orange)" />
    <rect x="20" y="80" width="18" height="18" rx="4" ry="4" fill="var(--color-yellow)" />
    <rect x="40" y="80" width="18" height="18" rx="4" ry="4" fill="var(--color-red)" />
    <rect x="60" y="80" width="18" height="18" rx="4" ry="4" fill="var(--color-yellow)" />
    <rect x="80" y="80" width="18" height="18" rx="4" ry="4" fill="var(--color-orange)" />
    <rect x="100" y="80" width="18" height="18" rx="4" ry="4" fill="var(--color-red)" />
    <rect x="120" y="80" width="18" height="18" rx="4" ry="4" fill="var(--color-blue)" />
    <rect x="140" y="80" width="18" height="18" rx="4" ry="4" fill="var(--color-blue)" />
    <rect x="160" y="80" width="18" height="18" rx="4" ry="4" fill="var(--color-green)" />
    <rect x="180" y="80" width="18" height="18" rx="4" ry="4" fill="var(--color-red)" />

    <rect x="0" y="100" width="18" height="18" rx="4" ry="4" fill="var(--color-red)" />
    <rect x="20" y="100" width="18" height="18" rx="4" ry="4" fill="var(--color-green)" />
    <rect x="40" y="100" width="18" height="18" rx="4" ry="4" fill="var(--color-white)" />
    <rect x="60" y="100" width="18" height="18" rx="4" ry="4" fill="var(--color-yellow)" />
    <rect x="80" y="100" width="18" height="18" rx="4" ry="4" fill="var(--color-red)" />
    <rect x="100" y="100" width="18" height="18" rx="4" ry="4" fill="var(--color-green)" />
    <rect x="120" y="100" width="18" height="18" rx="4" ry="4" fill="var(--color-blue)" />
    <rect x="140" y="100" width="18" height="18" rx="4" ry="4" fill="var(--color-green)" />
    <rect x="160" y="100" width="18" height="18" rx="4" ry="4" fill="var(--color-yellow)" />
    <rect x="180" y="100" width="18" height="18" rx="4" ry="4" fill="var(--color-green)" />

    <rect x="0" y="120" width="18" height="18" rx="4" ry="4" fill="var(--color-red)" />
    <rect x="20" y="120" width="18" height="18" rx="4" ry="4" fill="var(--color-blue)" />
    <rect x="40" y="120" width="18" height="18" rx="4" ry="4" fill="var(--color-green)" />
    <rect x="60" y="120" width="18" height="18" rx="4" ry="4" fill="var(--color-blue)" />
    <rect x="80" y="120" width="18" height="18" rx="4" ry="4" fill="var(--color-red)" />
    <rect x="100" y="120" width="18" height="18" rx="4" ry="4" fill="var(--color-yellow)" />
    <rect x="120" y="120" width="18" height="18" rx="4" ry="4" fill="var(--color-blue)" />
    <rect x="140" y="120" width="18" height="18" rx="4" ry="4" fill="var(--color-blue)" />
    <rect x="160" y="120" width="18" height="18" rx="4" ry="4" fill="var(--color-orange)" />
    <rect x="180" y="120" width="18" height="18" rx="4" ry="4" fill="var(--color-yellow)" />

    <rect x="0" y="140" width="18" height="18" rx="4" ry="4" fill="var(--color-yellow)" />
    <rect x="20" y="140" width="18" height="18" rx="4" ry="4" fill="var(--color-blue)" />
    <rect x="40" y="140" width="18" height="18" rx="4" ry="4" fill="var(--color-yellow)" />
    <rect x="60" y="140" width="18" height="18" rx="4" ry="4" fill="var(--color-blue)" />
    <rect x="80" y="140" width="18" height="18" rx="4" ry="4" fill="var(--color-yellow)" />
    <rect x="100" y="140" width="18" height="18" rx="4" ry="4" fill="var(--color-red)" />
    <rect x="120" y="140" width="18" height="18" rx="4" ry="4" fill="var(--color-green)" />
    <rect x="140" y="140" width="18" height="18" rx="4" ry="4" fill="var(--color-white)" />
    <rect x="160" y="140" width="18" height="18" rx="4" ry="4" fill="var(--color-green)" />
    <rect x="180" y="140" width="18" height="18" rx="4" ry="4" fill="var(--color-orange)" />

    <rect x="0" y="160" width="18" height="18" rx="4" ry="4" fill="var(--color-orange)" />
    <rect x="20" y="160" width="18" height="18" rx="4" ry="4" fill="var(--color-blue)" />
    <rect x="40" y="160" width="18" height="18" rx="4" ry="4" fill="var(--color-orange)" />
    <rect x="60" y="160" width="18" height="18" rx="4" ry="4" fill="var(--color-white)" />
    <rect x="80" y="160" width="18" height="18" rx="4" ry="4" fill="var(--color-white)" />
    <rect x="100" y="160" width="18" height="18" rx="4" ry="4" fill="var(--color-orange)" />
    <rect x="120" y="160" width="18" height="18" rx="4" ry="4" fill="var(--color-yellow)" />
    <rect x="140" y="160" width="18" height="18" rx="4" ry="4" fill="var(--color-yellow)" />
    <rect x="160" y="160" width="18" height="18" rx="4" ry="4" fill="var(--color-yellow)" />
    <rect x="180" y="160" width="18" height="18" rx="4" ry="4" fill="var(--color-blue)" />

    <rect x="0" y="180" width="18" height="18" rx="4" ry="4" fill="var(--color-green)" />
    <rect x="20" y="180" width="18" height="18" rx="4" ry="4" fill="var(--color-white)" />
    <rect x="40" y="180" width="18" height="18" rx="4" ry="4" fill="var(--color-green)" />
    <rect x="60" y="180" width="18" height="18" rx="4" ry="4" fill="var(--color-green)" />
    <rect x="80" y="180" width="18" height="18" rx="4" ry="4" fill="var(--color-orange)" />
    <rect x="100" y="180" width="18" height="18" rx="4" ry="4" fill="var(--color-blue)" />
    <rect x="120" y="180" width="18" height="18" rx="4" ry="4" fill="var(--color-blue)" />
    <rect x="140" y="180" width="18" height="18" rx="4" ry="4" fill="var(--color-blue)" />
    <rect x="160" y="180" width="18" height="18" rx="4" ry="4" fill="var(--color-yellow)" />
    <rect x="180" y="180" width="18" height="18" rx="4" ry="4" fill="var(--color-blue)" />
  </g>

  <g transform="translate(32.5 26) skewY(-30) translate(225 357.5) scale(1 1.14)">
    <rect x="0" y="0" width="18" height="18" rx="4" ry="4" fill="var(--color-red)" />
    <rect x="20" y="0" width="18" height="18" rx="4" ry="4" fill="var(--color-white)" />
    <rect x="40" y="0" width="18" height="18" rx="4" ry="4" fill="var(--color-green)" />
    <rect x="60" y="0" width="18" height="18" rx="4" ry="4" fill="var(--color-red)" />
    <rect x="80" y="0" width="18" height="18" rx="4" ry="4" fill="var(--color-blue)" />
    <rect x="100" y="0" width="18" height="18" rx="4" ry="4" fill="var(--color-yellow)" />
    <rect x="120" y="0" width="18" height="18" rx="4" ry="4" fill="var(--color-green)" />
    <rect x="140" y="0" width="18" height="18" rx="4" ry="4" fill="var(--color-orange)" />
    <rect x="160" y="0" width="18" height="18" rx="4" ry="4" fill="var(--color-orange)" />
    <rect x="180" y="0" width="18" height="18" rx="4" ry="4" fill="var(--color-blue)" />

    <rect x="0" y="20" width="18" height="18" rx="4" ry="4" fill="var(--color-yellow)" />
    <rect x="20" y="20" width="18" height="18" rx="4" ry="4" fill="var(--color-blue)" />
    <rect x="40" y="20" width="18" height="18" rx="4" ry="4" fill="var(--color-green)" />
    <rect x="60" y="20" width="18" height="18" rx="4" ry="4" fill="var(--color-yellow)" />
    <rect x="80" y="20" width="18" height="18" rx="4" ry="4" fill="var(--color-yellow)" />
    <rect x="100" y="20" width="18" height="18" rx="4" ry="4" fill="var(--color-blue)" />
    <rect x="120" y="20" width="18" height="18" rx="4" ry="4" fill="var(--color-green)" />
    <rect x="140" y="20" width="18" height="18" rx="4" ry="4" fill="var(--color-green)" />
    <rect x="160" y="20" width="18" height="18" rx="4" ry="4" fill="var(--color-white)" />
    <rect x="180" y="20" width="18" height="18" rx="4" ry="4" fill="var(--color-white)" />

    <rect x="0" y="40" width="18" height="18" rx="4" ry="4" fill="var(--color-green)" />
    <rect x="20" y="40" width="18" height="18" rx="4" ry="4" fill="var(--color-yellow)" />
    <rect x="40" y="40" width="18" height="18" rx="4" ry="4" fill="var(--color-red)" />
    <rect x="60" y="40" width="18" height="18" rx="4" ry="4" fill="var(--color-orange)" />
    <rect x="80" y="40" width="18" height="18" rx="4" ry="4" fill="var(--color-blue)" />
    <rect x="100" y="40" width="18" height="18" rx="4" ry="4" fill="var(--color-red)" />
    <rect x="120" y="40" width="18" height="18" rx="4" ry="4" fill="var(--color-blue)" />
    <rect x="140" y="40" width="18" height="18" rx="4" ry="4" fill="var(--color-red)" />
    <rect x="160" y="40" width="18" height="18" rx="4" ry="4" fill="var(--color-yellow)" />
    <rect x="180" y="40" width="18" height="18" rx="4" ry="4" fill="var(--color-orange)" />

    <rect x="0" y="60" width="18" height="18" rx="4" ry="4" fill="var(--color-white)" />
    <rect x="20" y="60" width="18" height="18" rx="4" ry="4" fill="var(--color-red)" />
    <rect x="40" y="60" width="18" height="18" rx="4" ry="4" fill="var(--color-yellow)" />
    <rect x="60" y="60" width="18" height="18" rx="4" ry="4" fill="var(--color-yellow)" />
    <rect x="80" y="60" width="18" height="18" rx="4" ry="4" fill="var(--color-green)" />
    <rect x="100" y="60" width="18" height="18" rx="4" ry="4" fill="var(--color-blue)" />
    <rect x="120" y="60" width="18" height="18" rx="4" ry="4" fill="var(--color-orange)" />
    <rect x="140" y="60" width="18" height="18" rx="4" ry="4" fill="var(--color-white)" />
    <rect x="160" y="60" width="18" height="18" rx="4" ry="4" fill="var(--color-blue)" />
    <rect x="180" y="60" width="18" height="18" rx="4" ry="4" fill="var(--color-orange)" />

    <rect x="0" y="80" width="18" height="18" rx="4" ry="4" fill="var(--color-green)" />
    <rect x="20" y="80" width="18" height="18" rx="4" ry="4" fill="var(--color-red)" />
    <rect x="40" y="80" width="18" height="18" rx="4" ry="4" fill="var(--color-blue)" />
    <rect x="60" y="80" width="18" height="18" rx="4" ry="4" fill="var(--color-yellow)" />
    <rect x="80" y="80" width="18" height="18" rx="4" ry="4" fill="var(--color-red)" />
    <rect x="100" y="80" width="18" height="18" rx="4" ry="4" fill="var(--color-green)" />
    <rect x="120" y="80" width="18" height="18" rx="4" ry="4" fill="var(--color-green)" />
    <rect x="140" y="80" width="18" height="18" rx="4" ry="4" fill="var(--color-orange)" />
    <rect x="160" y="80" width="18" height="18" rx="4" ry="4" fill="var(--color-red)" />
    <rect x="180" y="80" width="18" height="18" rx="4" ry="4" fill="var(--color-orange)" />

    <rect x="0" y="100" width="18" height="18" rx="4" ry="4" fill="var(--color-orange)" />
    <rect x="20" y="100" width="18" height="18" rx="4" ry="4" fill="var(--color-orange)" />
    <rect x="40" y="100" width="18" height="18" rx="4" ry="4" fill="var(--color-green)" />
    <rect x="60" y="100" width="18" height="18" rx="4" ry="4" fill="var(--color-white)" />
    <rect x="80" y="100" width="18" height="18" rx="4" ry="4" fill="var(--color-blue)" />
    <rect x="100" y="100" width="18" height="18" rx="4" ry="4" fill="var(--color-yellow)" />
    <rect x="120" y="100" width="18" height="18" rx="4" ry="4" fill="var(--color-red)" />
    <rect x="140" y="100" width="18" height="18" rx="4" ry="4" fill="var(--color-blue)" />
    <rect x="160" y="100" width="18" height="18" rx="4" ry="4" fill="var(--color-yellow)" />
    <rect x="180" y="100" width="18" height="18" rx="4" ry="4" fill="var(--color-red)" />

    <rect x="0" y="120" width="18" height="18" rx="4" ry="4" fill="var(--color-orange)" />
    <rect x="20" y="120" width="18" height="18" rx="4" ry="4" fill="var(--color-red)" />
    <rect x="40" y="120" width="18" height="18" rx="4" ry="4" fill="var(--color-white)" />
    <rect x="60" y="120" width="18" height="18" rx="4" ry="4" fill="var(--color-blue)" />
    <rect x="80" y="120" width="18" height="18" rx="4" ry="4" fill="var(--color-blue)" />
    <rect x="100" y="120" width="18" height="18" rx="4" ry="4" fill="var(--color-red)" />
    <rect x="120" y="120" width="18" height="18" rx="4" ry="4" fill="var(--color-white)" />
    <rect x="140" y="120" width="18" height="18" rx="4" ry="4" fill="var(--color-green)" />
    <rect x="160" y="120" width="18" height="18" rx="4" ry="4" fill="var(--color-red)" />
    <rect x="180" y="120" width="18" height="18" rx="4" ry="4" fill="var(--color-blue)" />

    <rect x="0" y="140" width="18" height="18" rx="4" ry="4" fill="var(--color-blue)" />
    <rect x="20" y="140" width="18" height="18" rx="4" ry="4" fill="var(--color-yellow)" />
    <rect x="40" y="140" width="18" height="18" rx="4" ry="4" fill="var(--color-orange)" />
    <rect x="60" y="140" width="18" height="18" rx="4" ry="4" fill="var(--color-blue)" />
    <rect x="80" y="140" width="18" height="18" rx="4" ry="4" fill="var(--color-red)" />
    <rect x="100" y="140" width="18" height="18" rx="4" ry="4" fill="var(--color-blue)" />
    <rect x="120" y="140" width="18" height="18" rx="4" ry="4" fill="var(--color-red)" />
    <rect x="140" y="140" width="18" height="18" rx="4" ry="4" fill="var(--color-white)" />
    <rect x="160" y="140" width="18" height="18" rx="4" ry="4" fill="var(--color-red)" />
    <rect x="180" y="140" width="18" height="18" rx="4" ry="4" fill="var(--color-yellow)" />

    <rect x="0" y="160" width="18" height="18" rx="4" ry="4" fill="var(--color-green)" />
    <rect x="20" y="160" width="18" height="18" rx="4" ry="4" fill="var(--color-green)" />
    <rect x="40" y="160" width="18" height="18" rx="4" ry="4" fill="var(--color-green)" />
    <rect x="60" y="160" width="18" height="18" rx="4" ry="4" fill="var(--color-orange)" />
    <rect x="80" y="160" width="18" height="18" rx="4" ry="4" fill="var(--color-green)" />
    <rect x="100" y="160" width="18" height="18" rx="4" ry="4" fill="var(--color-orange)" />
    <rect x="120" y="160" width="18" height="18" rx="4" ry="4" fill="var(--color-white)" />
    <rect x="140" y="160" width="18" height="18" rx="4" ry="4" fill="var(--color-green)" />
    <rect x="160" y="160" width="18" height="18" rx="4" ry="4" fill="var(--color-white)" />
    <rect x="180" y="160" width="18" height="18" rx="4" ry="4" fill="var(--color-red)" />

    <rect x="0" y="180" width="18" height="18" rx="4" ry="4" fill="var(--color-orange)" />
    <rect x="20" y="180" width="18" height="18" rx="4" ry="4" fill="var(--color-red)" />
    <rect x="40" y="180" width="18" height="18" rx="4" ry="4" fill="var(--color-orange)" />
    <rect x="60" y="180" width="18" height="18" rx="4" ry="4" fill="var(--color-red)" />
    <rect x="80" y="180" width="18" height="18" rx="4" ry="4" fill="var(--color-white)" />
    <rect x="100" y="180" width="18" height="18" rx="4" ry="4" fill="var(--color-orange)" />
    <rect x="120" y="180" width="18" height="18" rx="4" ry="4" fill="var(--color-orange)" />
    <rect x="140" y="180" width="18" height="18" rx="4" ry="4" fill="var(--color-orange)" />
    <rect x="160" y="180" width="18" height="18" rx="4" ry="4" fill="var(--color-orange)" />
    <rect x="180" y="180" width="18" height="18" rx="4" ry="4" fill="var(--color-white)" />
  </g>
</svg>