<?xml version="1.0"?>

<svg xmlns="http://www.w3.org/2000/svg" width="500" height="500">
  <style>
    :root {
      --color-white: white;
      --color-red: #f45e5e;
      --color-blue: #4591f5;
      --color-green: #54fd64;
      --color-yellow: #f0ff70;
      --color-orange: #f8b468;
      --innard: #555555;
    }
  </style>

  <path d="M 250 20 L 450 135 L 450 370 L 250 475 L 50 370 L 50 135 Z" fill="var(--innard)"/>

  <g transform="translate(25 82.5) scale(1.41, .81) rotate(45) translate(50 -175)" fill="var(--color-white)" stroke="var(--innard)">
    <rect x="0" y="0" width="18" height="18" rx="2" ry="2" />
    <rect x="20.22" y="0" width="18" height="18" rx="2" ry="2" />
    <rect x="40.44" y="0" width="18" height="18" rx="2" ry="2" />
    <rect x="60.66" y="0" width="18" height="18" rx="2" ry="2" />
    <rect x="80.88" y="0" width="18" height="18" rx="2" ry="2" />
    <rect x="101.1" y="0" width="18" height="18" rx="2" ry="2" />
    <rect x="121.32" y="0" width="18" height="18" rx="2" ry="2" />
    <rect x="141.54" y="0" width="18" height="18" rx="2" ry="2" />
    <rect x="161.76" y="0" width="18" height="18" rx="2" ry="2" />
    <rect x="181.98" y="0" width="18" height="18" rx="2" ry="2" />

    <rect x="0" y="20.22" width="18" height="18" rx="2" ry="2" />
    <rect x="20.22" y="20.22" width="18" height="18" rx="2" ry="2" />
    <rect x="40.44" y="20.22" width="18" height="18" rx="2" ry="2" />
    <rect x="60.66" y="20.22" width="18" height="18" rx="2" ry="2" />
    <rect x="80.88" y="20.22" width="18" height="18" rx="2" ry="2" />
    <rect x="101.1" y="20.22" width="18" height="18" rx="2" ry="2" />
    <rect x="121.32" y="20.22" width="18" height="18" rx="2" ry="2" />
    <rect x="141.54" y="20.22" width="18" height="18" rx="2" ry="2" />
    <rect x="161.76" y="20.22" width="18" height="18" rx="2" ry="2" />
    <rect x="181.98" y="20.22" width="18" height="18" rx="2" ry="2" />

    <rect x="0" y="40.44" width="18" height="18" rx="2" ry="2" />
    <rect x="20.22" y="40.44" width="18" height="18" rx="2" ry="2" />
    <rect x="40.44" y="40.44" width="18" height="18" rx="2" ry="2" />
    <rect x="60.66" y="40.44" width="18" height="18" rx="2" ry="2" />
    <rect x="80.88" y="40.44" width="18" height="18" rx="2" ry="2" />
    <rect x="101.1" y="40.44" width="18" height="18" rx="2" ry="2" />
    <rect x="121.32" y="40.44" width="18" height="18" rx="2" ry="2" />
    <rect x="141.54" y="40.44" width="18" height="18" rx="2" ry="2" />
    <rect x="161.76" y="40.44" width="18" height="18" rx="2" ry="2" />
    <rect x="181.98" y="40.44" width="18" height="18" rx="2" ry="2" />

    <rect x="0" y="60.66" width="18" height="18" rx="2" ry="2" />
    <rect x="20.22" y="60.66" width="18" height="18" rx="2" ry="2" />
    <rect x="40.44" y="60.66" width="18" height="18" rx="2" ry="2" />
    <rect x="60.66" y="60.66" width="18" height="18" rx="2" ry="2" />
    <rect x="80.88" y="60.66" width="18" height="18" rx="2" ry="2" />
    <rect x="101.1" y="60.66" width="18" height="18" rx="2" ry="2" />
    <rect x="121.32" y="60.66" width="18" height="18" rx="2" ry="2" />
    <rect x="141.54" y="60.66" width="18" height="18" rx="2" ry="2" />
    <rect x="161.76" y="60.66" width="18" height="18" rx="2" ry="2" />
    <rect x="181.98" y="60.66" width="18" height="18" rx="2" ry="2" />

    <rect x="0" y="80.88" width="18" height="18" rx="2" ry="2" />
    <rect x="20.22" y="80.88" width="18" height="18" rx="2" ry="2" />
    <rect x="40.44" y="80.88" width="18" height="18" rx="2" ry="2" />
    <rect x="60.66" y="80.88" width="18" height="18" rx="2" ry="2" />
    <rect x="80.88" y="80.88" width="18" height="18" rx="2" ry="2" />
    <rect x="101.1" y="80.88" width="18" height="18" rx="2" ry="2" />
    <rect x="121.32" y="80.88" width="18" height="18" rx="2" ry="2" />
    <rect x="141.54" y="80.88" width="18" height="18" rx="2" ry="2" />
    <rect x="161.76" y="80.88" width="18" height="18" rx="2" ry="2" />
    <rect x="181.98" y="80.88" width="18" height="18" rx="2" ry="2" />

    <rect x="0" y="101.1" width="18" height="18" rx="2" ry="2" />
    <rect x="20.22" y="101.1" width="18" height="18" rx="2" ry="2" />
    <rect x="40.44" y="101.1" width="18" height="18" rx="2" ry="2" />
    <rect x="60.66" y="101.1" width="18" height="18" rx="2" ry="2" />
    <rect x="80.88" y="101.1" width="18" height="18" rx="2" ry="2" />
    <rect x="101.1" y="101.1" width="18" height="18" rx="2" ry="2" />
    <rect x="121.32" y="101.1" width="18" height="18" rx="2" ry="2" />
    <rect x="141.54" y="101.1" width="18" height="18" rx="2" ry="2" />
    <rect x="161.76" y="101.1" width="18" height="18" rx="2" ry="2" />
    <rect x="181.98" y="101.1" width="18" height="18" rx="2" ry="2" />

    <rect x="0" y="121.32" width="18" height="18" rx="2" ry="2" />
    <rect x="20.22" y="121.32" width="18" height="18" rx="2" ry="2" />
    <rect x="40.44" y="121.32" width="18" height="18" rx="2" ry="2" />
    <rect x="60.66" y="121.32" width="18" height="18" rx="2" ry="2" />
    <rect x="80.88" y="121.32" width="18" height="18" rx="2" ry="2" />
    <rect x="101.1" y="121.32" width="18" height="18" rx="2" ry="2" />
    <rect x="121.32" y="121.32" width="18" height="18" rx="2" ry="2" />
    <rect x="141.54" y="121.32" width="18" height="18" rx="2" ry="2" />
    <rect x="161.76" y="121.32" width="18" height="18" rx="2" ry="2" />
    <rect x="181.98" y="121.32" width="18" height="18" rx="2" ry="2" />

    <rect x="0" y="141.54" width="18" height="18" rx="2" ry="2" />
    <rect x="20.22" y="141.54" width="18" height="18" rx="2" ry="2" />
    <rect x="40.44" y="141.54" width="18" height="18" rx="2" ry="2" />
    <rect x="60.66" y="141.54" width="18" height="18" rx="2" ry="2" />
    <rect x="80.88" y="141.54" width="18" height="18" rx="2" ry="2" />
    <rect x="101.1" y="141.54" width="18" height="18" rx="2" ry="2" />
    <rect x="121.32" y="141.54" width="18" height="18" rx="2" ry="2" />
    <rect x="141.54" y="141.54" width="18" height="18" rx="2" ry="2" />
    <rect x="161.76" y="141.54" width="18" height="18" rx="2" ry="2" />
    <rect x="181.98" y="141.54" width="18" height="18" rx="2" ry="2" />

    <rect x="0" y="161.76" width="18" height="18" rx="2" ry="2" />
    <rect x="20.22" y="161.76" width="18" height="18" rx="2" ry="2" />
    <rect x="40.44" y="161.76" width="18" height="18" rx="2" ry="2" />
    <rect x="60.66" y="161.76" width="18" height="18" rx="2" ry="2" />
    <rect x="80.88" y="161.76" width="18" height="18" rx="2" ry="2" />
    <rect x="101.1" y="161.76" width="18" height="18" rx="2" ry="2" />
    <rect x="121.32" y="161.76" width="18" height="18" rx="2" ry="2" />
    <rect x="141.54" y="161.76" width="18" height="18" rx="2" ry="2" />
    <rect x="161.76" y="161.76" width="18" height="18" rx="2" ry="2" />
    <rect x="181.98" y="161.76" width="18" height="18" rx="2" ry="2" />

    <rect x="0" y="181.98" width="18" height="18" rx="2" ry="2" />
    <rect x="20.22" y="181.98" width="18" height="18" rx="2" ry="2" />
    <rect x="40.44" y="181.98" width="18" height="18" rx="2" ry="2" />
    <rect x="60.66" y="181.98" width="18" height="18" rx="2" ry="2" />
    <rect x="80.88" y="181.98" width="18" height="18" rx="2" ry="2" />
    <rect x="101.1" y="181.98" width="18" height="18" rx="2" ry="2" />
    <rect x="121.32" y="181.98" width="18" height="18" rx="2" ry="2" />
    <rect x="141.54" y="181.98" width="18" height="18" rx="2" ry="2" />
    <rect x="161.76" y="181.98" width="18" height="18" rx="2" ry="2" />
    <rect x="181.98" y="181.98" width="18" height="18" rx="2" ry="2" />
  </g>

  <g transform="translate(42.5 37.5) skewY(30) translate(0 100) scale(1 1.14)" fill="var(--color-green)" stroke="var(--innard)">
    <rect x="0" y="0" width="18" height="18" rx="2" ry="2" />
    <rect x="20.22" y="0" width="18" height="18" rx="2" ry="2" />
    <rect x="40.44" y="0" width="18" height="18" rx="2" ry="2" />
    <rect x="60.66" y="0" width="18" height="18" rx="2" ry="2" />
    <rect x="80.88" y="0" width="18" height="18" rx="2" ry="2" />
    <rect x="101.1" y="0" width="18" height="18" rx="2" ry="2" />
    <rect x="121.32" y="0" width="18" height="18" rx="2" ry="2" />
    <rect x="141.54" y="0" width="18" height="18" rx="2" ry="2" />
    <rect x="161.76" y="0" width="18" height="18" rx="2" ry="2" />
    <rect x="181.98" y="0" width="18" height="18" rx="2" ry="2" />

    <rect x="0" y="20.22" width="18" height="18" rx="2" ry="2" />
    <rect x="20.22" y="20.22" width="18" height="18" rx="2" ry="2" />
    <rect x="40.44" y="20.22" width="18" height="18" rx="2" ry="2" />
    <rect x="60.66" y="20.22" width="18" height="18" rx="2" ry="2" />
    <rect x="80.88" y="20.22" width="18" height="18" rx="2" ry="2" />
    <rect x="101.1" y="20.22" width="18" height="18" rx="2" ry="2" />
    <rect x="121.32" y="20.22" width="18" height="18" rx="2" ry="2" />
    <rect x="141.54" y="20.22" width="18" height="18" rx="2" ry="2" />
    <rect x="161.76" y="20.22" width="18" height="18" rx="2" ry="2" />
    <rect x="181.98" y="20.22" width="18" height="18" rx="2" ry="2" />

    <rect x="0" y="40.44" width="18" height="18" rx="2" ry="2" />
    <rect x="20.22" y="40.44" width="18" height="18" rx="2" ry="2" />
    <rect x="40.44" y="40.44" width="18" height="18" rx="2" ry="2" />
    <rect x="60.66" y="40.44" width="18" height="18" rx="2" ry="2" />
    <rect x="80.88" y="40.44" width="18" height="18" rx="2" ry="2" />
    <rect x="101.1" y="40.44" width="18" height="18" rx="2" ry="2" />
    <rect x="121.32" y="40.44" width="18" height="18" rx="2" ry="2" />
    <rect x="141.54" y="40.44" width="18" height="18" rx="2" ry="2" />
    <rect x="161.76" y="40.44" width="18" height="18" rx="2" ry="2" />
    <rect x="181.98" y="40.44" width="18" height="18" rx="2" ry="2" />

    <rect x="0" y="60.66" width="18" height="18" rx="2" ry="2" />
    <rect x="20.22" y="60.66" width="18" height="18" rx="2" ry="2" />
    <rect x="40.44" y="60.66" width="18" height="18" rx="2" ry="2" />
    <rect x="60.66" y="60.66" width="18" height="18" rx="2" ry="2" />
    <rect x="80.88" y="60.66" width="18" height="18" rx="2" ry="2" />
    <rect x="101.1" y="60.66" width="18" height="18" rx="2" ry="2" />
    <rect x="121.32" y="60.66" width="18" height="18" rx="2" ry="2" />
    <rect x="141.54" y="60.66" width="18" height="18" rx="2" ry="2" />
    <rect x="161.76" y="60.66" width="18" height="18" rx="2" ry="2" />
    <rect x="181.98" y="60.66" width="18" height="18" rx="2" ry="2" />

    <rect x="0" y="80.88" width="18" height="18" rx="2" ry="2" />
    <rect x="20.22" y="80.88" width="18" height="18" rx="2" ry="2" />
    <rect x="40.44" y="80.88" width="18" height="18" rx="2" ry="2" />
    <rect x="60.66" y="80.88" width="18" height="18" rx="2" ry="2" />
    <rect x="80.88" y="80.88" width="18" height="18" rx="2" ry="2" />
    <rect x="101.1" y="80.88" width="18" height="18" rx="2" ry="2" />
    <rect x="121.32" y="80.88" width="18" height="18" rx="2" ry="2" />
    <rect x="141.54" y="80.88" width="18" height="18" rx="2" ry="2" />
    <rect x="161.76" y="80.88" width="18" height="18" rx="2" ry="2" />
    <rect x="181.98" y="80.88" width="18" height="18" rx="2" ry="2" />

    <rect x="0" y="101.1" width="18" height="18" rx="2" ry="2" />
    <rect x="20.22" y="101.1" width="18" height="18" rx="2" ry="2" />
    <rect x="40.44" y="101.1" width="18" height="18" rx="2" ry="2" />
    <rect x="60.66" y="101.1" width="18" height="18" rx="2" ry="2" />
    <rect x="80.88" y="101.1" width="18" height="18" rx="2" ry="2" />
    <rect x="101.1" y="101.1" width="18" height="18" rx="2" ry="2" />
    <rect x="121.32" y="101.1" width="18" height="18" rx="2" ry="2" />
    <rect x="141.54" y="101.1" width="18" height="18" rx="2" ry="2" />
    <rect x="161.76" y="101.1" width="18" height="18" rx="2" ry="2" />
    <rect x="181.98" y="101.1" width="18" height="18" rx="2" ry="2" />

    <rect x="0" y="121.32" width="18" height="18" rx="2" ry="2" />
    <rect x="20.22" y="121.32" width="18" height="18" rx="2" ry="2" />
    <rect x="40.44" y="121.32" width="18" height="18" rx="2" ry="2" />
    <rect x="60.66" y="121.32" width="18" height="18" rx="2" ry="2" />
    <rect x="80.88" y="121.32" width="18" height="18" rx="2" ry="2" />
    <rect x="101.1" y="121.32" width="18" height="18" rx="2" ry="2" />
    <rect x="121.32" y="121.32" width="18" height="18" rx="2" ry="2" />
    <rect x="141.54" y="121.32" width="18" height="18" rx="2" ry="2" />
    <rect x="161.76" y="121.32" width="18" height="18" rx="2" ry="2" />
    <rect x="181.98" y="121.32" width="18" height="18" rx="2" ry="2" />

    <rect x="0" y="141.54" width="18" height="18" rx="2" ry="2" />
    <rect x="20.22" y="141.54" width="18" height="18" rx="2" ry="2" />
    <rect x="40.44" y="141.54" width="18" height="18" rx="2" ry="2" />
    <rect x="60.66" y="141.54" width="18" height="18" rx="2" ry="2" />
    <rect x="80.88" y="141.54" width="18" height="18" rx="2" ry="2" />
    <rect x="101.1" y="141.54" width="18" height="18" rx="2" ry="2" />
    <rect x="121.32" y="141.54" width="18" height="18" rx="2" ry="2" />
    <rect x="141.54" y="141.54" width="18" height="18" rx="2" ry="2" />
    <rect x="161.76" y="141.54" width="18" height="18" rx="2" ry="2" />
    <rect x="181.98" y="141.54" width="18" height="18" rx="2" ry="2" />

    <rect x="0" y="161.76" width="18" height="18" rx="2" ry="2" />
    <rect x="20.22" y="161.76" width="18" height="18" rx="2" ry="2" />
    <rect x="40.44" y="161.76" width="18" height="18" rx="2" ry="2" />
    <rect x="60.66" y="161.76" width="18" height="18" rx="2" ry="2" />
    <rect x="80.88" y="161.76" width="18" height="18" rx="2" ry="2" />
    <rect x="101.1" y="161.76" width="18" height="18" rx="2" ry="2" />
    <rect x="121.32" y="161.76" width="18" height="18" rx="2" ry="2" />
    <rect x="141.54" y="161.76" width="18" height="18" rx="2" ry="2" />
    <rect x="161.76" y="161.76" width="18" height="18" rx="2" ry="2" />
    <rect x="181.98" y="161.76" width="18" height="18" rx="2" ry="2" />

    <rect x="0" y="181.98" width="18" height="18" rx="2" ry="2" />
    <rect x="20.22" y="181.98" width="18" height="18" rx="2" ry="2" />
    <rect x="40.44" y="181.98" width="18" height="18" rx="2" ry="2" />
    <rect x="60.66" y="181.98" width="18" height="18" rx="2" ry="2" />
    <rect x="80.88" y="181.98" width="18" height="18" rx="2" ry="2" />
    <rect x="101.1" y="181.98" width="18" height="18" rx="2" ry="2" />
    <rect x="121.32" y="181.98" width="18" height="18" rx="2" ry="2" />
    <rect x="141.54" y="181.98" width="18" height="18" rx="2" ry="2" />
    <rect x="161.76" y="181.98" width="18" height="18" rx="2" ry="2" />
    <rect x="181.98" y="181.98" width="18" height="18" rx="2" ry="2" />
  </g>

  <g transform="translate(32.5 26) skewY(-30) translate(225 357.5) scale(1 1.14)" fill="var(--color-red)" stroke="var(--innard)">
    <rect x="0" y="0" width="18" height="18" rx="2" ry="2" />
    <rect x="20.22" y="0" width="18" height="18" rx="2" ry="2" />
    <rect x="40.44" y="0" width="18" height="18" rx="2" ry="2" />
    <rect x="60.66" y="0" width="18" height="18" rx="2" ry="2" />
    <rect x="80.88" y="0" width="18" height="18" rx="2" ry="2" />
    <rect x="101.1" y="0" width="18" height="18" rx="2" ry="2" />
    <rect x="121.32" y="0" width="18" height="18" rx="2" ry="2" />
    <rect x="141.54" y="0" width="18" height="18" rx="2" ry="2" />
    <rect x="161.76" y="0" width="18" height="18" rx="2" ry="2" />
    <rect x="181.98" y="0" width="18" height="18" rx="2" ry="2" />

    <rect x="0" y="20.22" width="18" height="18" rx="2" ry="2" />
    <rect x="20.22" y="20.22" width="18" height="18" rx="2" ry="2" />
    <rect x="40.44" y="20.22" width="18" height="18" rx="2" ry="2" />
    <rect x="60.66" y="20.22" width="18" height="18" rx="2" ry="2" />
    <rect x="80.88" y="20.22" width="18" height="18" rx="2" ry="2" />
    <rect x="101.1" y="20.22" width="18" height="18" rx="2" ry="2" />
    <rect x="121.32" y="20.22" width="18" height="18" rx="2" ry="2" />
    <rect x="141.54" y="20.22" width="18" height="18" rx="2" ry="2" />
    <rect x="161.76" y="20.22" width="18" height="18" rx="2" ry="2" />
    <rect x="181.98" y="20.22" width="18" height="18" rx="2" ry="2" />

    <rect x="0" y="40.44" width="18" height="18" rx="2" ry="2" />
    <rect x="20.22" y="40.44" width="18" height="18" rx="2" ry="2" />
    <rect x="40.44" y="40.44" width="18" height="18" rx="2" ry="2" />
    <rect x="60.66" y="40.44" width="18" height="18" rx="2" ry="2" />
    <rect x="80.88" y="40.44" width="18" height="18" rx="2" ry="2" />
    <rect x="101.1" y="40.44" width="18" height="18" rx="2" ry="2" />
    <rect x="121.32" y="40.44" width="18" height="18" rx="2" ry="2" />
    <rect x="141.54" y="40.44" width="18" height="18" rx="2" ry="2" />
    <rect x="161.76" y="40.44" width="18" height="18" rx="2" ry="2" />
    <rect x="181.98" y="40.44" width="18" height="18" rx="2" ry="2" />

    <rect x="0" y="60.66" width="18" height="18" rx="2" ry="2" />
    <rect x="20.22" y="60.66" width="18" height="18" rx="2" ry="2" />
    <rect x="40.44" y="60.66" width="18" height="18" rx="2" ry="2" />
    <rect x="60.66" y="60.66" width="18" height="18" rx="2" ry="2" />
    <rect x="80.88" y="60.66" width="18" height="18" rx="2" ry="2" />
    <rect x="101.1" y="60.66" width="18" height="18" rx="2" ry="2" />
    <rect x="121.32" y="60.66" width="18" height="18" rx="2" ry="2" />
    <rect x="141.54" y="60.66" width="18" height="18" rx="2" ry="2" />
    <rect x="161.76" y="60.66" width="18" height="18" rx="2" ry="2" />
    <rect x="181.98" y="60.66" width="18" height="18" rx="2" ry="2" />

    <rect x="0" y="80.88" width="18" height="18" rx="2" ry="2" />
    <rect x="20.22" y="80.88" width="18" height="18" rx="2" ry="2" />
    <rect x="40.44" y="80.88" width="18" height="18" rx="2" ry="2" />
    <rect x="60.66" y="80.88" width="18" height="18" rx="2" ry="2" />
    <rect x="80.88" y="80.88" width="18" height="18" rx="2" ry="2" />
    <rect x="101.1" y="80.88" width="18" height="18" rx="2" ry="2" />
    <rect x="121.32" y="80.88" width="18" height="18" rx="2" ry="2" />
    <rect x="141.54" y="80.88" width="18" height="18" rx="2" ry="2" />
    <rect x="161.76" y="80.88" width="18" height="18" rx="2" ry="2" />
    <rect x="181.98" y="80.88" width="18" height="18" rx="2" ry="2" />

    <rect x="0" y="101.1" width="18" height="18" rx="2" ry="2" />
    <rect x="20.22" y="101.1" width="18" height="18" rx="2" ry="2" />
    <rect x="40.44" y="101.1" width="18" height="18" rx="2" ry="2" />
    <rect x="60.66" y="101.1" width="18" height="18" rx="2" ry="2" />
    <rect x="80.88" y="101.1" width="18" height="18" rx="2" ry="2" />
    <rect x="101.1" y="101.1" width="18" height="18" rx="2" ry="2" />
    <rect x="121.32" y="101.1" width="18" height="18" rx="2" ry="2" />
    <rect x="141.54" y="101.1" width="18" height="18" rx="2" ry="2" />
    <rect x="161.76" y="101.1" width="18" height="18" rx="2" ry="2" />
    <rect x="181.98" y="101.1" width="18" height="18" rx="2" ry="2" />

    <rect x="0" y="121.32" width="18" height="18" rx="2" ry="2" />
    <rect x="20.22" y="121.32" width="18" height="18" rx="2" ry="2" />
    <rect x="40.44" y="121.32" width="18" height="18" rx="2" ry="2" />
    <rect x="60.66" y="121.32" width="18" height="18" rx="2" ry="2" />
    <rect x="80.88" y="121.32" width="18" height="18" rx="2" ry="2" />
    <rect x="101.1" y="121.32" width="18" height="18" rx="2" ry="2" />
    <rect x="121.32" y="121.32" width="18" height="18" rx="2" ry="2" />
    <rect x="141.54" y="121.32" width="18" height="18" rx="2" ry="2" />
    <rect x="161.76" y="121.32" width="18" height="18" rx="2" ry="2" />
    <rect x="181.98" y="121.32" width="18" height="18" rx="2" ry="2" />

    <rect x="0" y="141.54" width="18" height="18" rx="2" ry="2" />
    <rect x="20.22" y="141.54" width="18" height="18" rx="2" ry="2" />
    <rect x="40.44" y="141.54" width="18" height="18" rx="2" ry="2" />
    <rect x="60.66" y="141.54" width="18" height="18" rx="2" ry="2" />
    <rect x="80.88" y="141.54" width="18" height="18" rx="2" ry="2" />
    <rect x="101.1" y="141.54" width="18" height="18" rx="2" ry="2" />
    <rect x="121.32" y="141.54" width="18" height="18" rx="2" ry="2" />
    <rect x="141.54" y="141.54" width="18" height="18" rx="2" ry="2" />
    <rect x="161.76" y="141.54" width="18" height="18" rx="2" ry="2" />
    <rect x="181.98" y="141.54" width="18" height="18" rx="2" ry="2" />

    <rect x="0" y="161.76" width="18" height="18" rx="2" ry="2" />
    <rect x="20.22" y="161.76" width="18" height="18" rx="2" ry="2" />
    <rect x="40.44" y="161.76" width="18" height="18" rx="2" ry="2" />
    <rect x="60.66" y="161.76" width="18" height="18" rx="2" ry="2" />
    <rect x="80.88" y="161.76" width="18" height="18" rx="2" ry="2" />
    <rect x="101.1" y="161.76" width="18" height="18" rx="2" ry="2" />
    <rect x="121.32" y="161.76" width="18" height="18" rx="2" ry="2" />
    <rect x="141.54" y="161.76" width="18" height="18" rx="2" ry="2" />
    <rect x="161.76" y="161.76" width="18" height="18" rx="2" ry="2" />
    <rect x="181.98" y="161.76" width="18" height="18" rx="2" ry="2" />

    <rect x="0" y="181.98" width="18" height="18" rx="2" ry="2" />
    <rect x="20.22" y="181.98" width="18" height="18" rx="2" ry="2" />
    <rect x="40.44" y="181.98" width="18" height="18" rx="2" ry="2" />
    <rect x="60.66" y="181.98" width="18" height="18" rx="2" ry="2" />
    <rect x="80.88" y="181.98" width="18" height="18" rx="2" ry="2" />
    <rect x="101.1" y="181.98" width="18" height="18" rx="2" ry="2" />
    <rect x="121.32" y="181.98" width="18" height="18" rx="2" ry="2" />
    <rect x="141.54" y="181.98" width="18" height="18" rx="2" ry="2" />
    <rect x="161.76" y="181.98" width="18" height="18" rx="2" ry="2" />
    <rect x="181.98" y="181.98" width="18" height="18" rx="2" ry="2" />
  </g>
</svg>