<?xml version="1.0"?>

<svg xmlns="http://www.w3.org/2000/svg" width="400" height="400">
  <style>
    :root {
      --color-white: white;
      --color-red: #f45e5e;
      --color-blue: #4591f5;
      --color-green: #54fd64;
      --color-yellow: #f0ff70;
      --color-orange: #f8b468;
      --innard: #555555;
    }
  </style>

  <path d="M 200 10 L 335 87.5 L 335 320 L 200 395 L 65 320 L 65 87.5 Z" fill="var(--innard)"/>

  <g transform="translate(-50 -85)" stroke="var(--innard)">
    <g transform="translate(25 82.5) scale(1.41, .81) rotate(45) translate(50 -175)" fill="var(--color-white)">
      <rect x="69" y="69" width="65" height="65" rx="6" ry="6" />
      <rect x="138" y="69" width="65" height="65" rx="6" ry="6" />

      <rect x="69" y="138" width="65" height="65" rx="6" ry="6" />
      <rect x="138" y="138" width="65" height="65" rx="6" ry="6" />
    </g>

    <g transform="translate(42.5 37.5) skewY(30) translate(0 100) scale(1 1.14)" fill="var(--color-green)">
      <rect x="69" y="0" width="65" height="65" rx="6" ry="6" />
      <rect x="138" y="0" width="65" height="65" rx="6" ry="6" />

      <rect x="69" y="69" width="65" height="65" rx="6" ry="6" />
      <rect x="138" y="69" width="65" height="65" rx="6" ry="6" />

      <rect x="69" y="138" width="65" height="65" rx="6" ry="6" />
      <rect x="138" y="138" width="65" height="65" rx="6" ry="6" />
    </g>

    <g transform="translate(32.5 26) skewY(-30) translate(225 357.5) scale(1 1.14)" fill="var(--color-red)">
      <rect x="0" y="0" width="65" height="65" rx="6" ry="6" />
      <rect x="69" y="0" width="65" height="65" rx="6" ry="6" />

      <rect x="0" y="69" width="65" height="65" rx="6" ry="6" />
      <rect x="69" y="69" width="65" height="65" rx="6" ry="6" />

      <rect x="0" y="138" width="65" height="65" rx="6" ry="6" />
      <rect x="69" y="138" width="65" height="65" rx="6" ry="6" />
    </g>
  </g>
</svg>