<?xml version="1.0"?>

<svg xmlns="http://www.w3.org/2000/svg" width="450" height="450">
  <style>
    :root {
      --color-white: white;
      --color-red: #f45e5e;
      --color-blue: #4591f5;
      --color-green: #54fd64;
      --color-yellow: #f0ff70;
      --color-orange: #f8b468;
    }
  </style>

  <g transform="translate(10 30)">
    <!-- scale the cube down and move left to make room for "x3"-->
    <g transform="scale(0.65) translate(-20 0)">
      <g transform="translate(25 82.5) scale(1.41, .81) rotate(45) translate(50 -175)">
        <rect x="0" y="0" width="63" height="63" rx="6" ry="6" fill="var(--color-blue)" />
        <rect x="69" y="0" width="63" height="63" rx="6" ry="6" fill="var(--color-red)" />
        <rect x="138" y="0" width="63" height="63" rx="6" ry="6" fill="var(--color-orange)" />

        <rect x="0" y="69" width="63" height="63" rx="6" ry="6" fill="var(--color-orange)" />
        <rect x="69" y="69" width="63" height="63" rx="6" ry="6" fill="var(--color-white)" />
        <rect x="138" y="69" width="63" height="63" rx="6" ry="6" fill="var(--color-yellow)" />

        <rect x="0" y="138" width="63" height="63" rx="6" ry="6" fill="var(--color-yellow)" />
        <rect x="69" y="138" width="63" height="63" rx="6" ry="6" fill="var(--color-white)" />
        <rect x="138" y="138" width="63" height="63" rx="6" ry="6" fill="var(--color-white)" />
      </g>

      <g transform="translate(42.5 37.5) skewY(30) translate(0 100) scale(1 1.14)">
        <rect x="0" y="0" width="63" height="63" rx="6" ry="6" fill="var(--color-blue)" />
        <rect x="69" y="0" width="63" height="63" rx="6" ry="6" fill="var(--color-red)" />
        <rect x="138" y="0" width="63" height="63" rx="6" ry="6" fill="var(--color-green)" />

        <rect x="0" y="69" width="63" height="63" rx="6" ry="6" fill="var(--color-green)" />
        <rect x="69" y="69" width="63" height="63" rx="6" ry="6" fill="var(--color-green)" />
        <rect x="138" y="69" width="63" height="63" rx="6" ry="6" fill="var(--color-blue)" />

        <rect x="0" y="138" width="63" height="63" rx="6" ry="6" fill="var(--color-red)" />
        <rect x="69" y="138" width="63" height="63" rx="6" ry="6" fill="var(--color-red)" />
        <rect x="138" y="138" width="63" height="63" rx="6" ry="6" fill="var(--color-yellow)" />
      </g>

      <g transform="translate(32.5 26) skewY(-30) translate(225 357.5) scale(1 1.14)">
        <rect x="0" y="0" width="63" height="63" rx="6" ry="6" fill="var(--color-red)" />
        <rect x="69" y="0" width="63" height="63" rx="6" ry="6" fill="var(--color-green)" />
        <rect x="138" y="0" width="63" height="63" rx="6" ry="6" fill="var(--color-white)" />

        <rect x="0" y="69" width="63" height="63" rx="6" ry="6" fill="var(--color-yellow)" />
        <rect x="69" y="69" width="63" height="63" rx="6" ry="6" fill="var(--color-red)" />
        <rect x="138" y="69" width="63" height="63" rx="6" ry="6" fill="var(--color-orange)" />

        <rect x="0" y="138" width="63" height="63" rx="6" ry="6" fill="var(--color-red)" />
        <rect x="69" y="138" width="63" height="63" rx="6" ry="6" fill="var(--color-blue)" />
        <rect x="138" y="138" width="63" height="63" rx="6" ry="6" fill="var(--color-green)" />
      </g>
    </g>


    <g transform="scale(7 7) translate(48 38)" fill="white">
      <path
        d="M6.5 4.5C6.5 3.67157 7.17157 3 8 3C8.82843 3 9.5 3.67157 9.5 4.5C9.5 5.32843 8.82843 6 8 6H7V9H8C9.10457 9 10 9.89543 10 11C10 12.1046 9.10457 13 8 13C6.89543 13 6 12.1046 6 11H3C3 13.7614 5.23858 16 8 16C10.7614 16 13 13.7614 13 11C13 9.57824 12.4066 8.29508 11.4539 7.38469C12.107 6.60363 12.5 5.59771 12.5 4.5C12.5 2.01472 10.4853 0 8 0C5.51472 0 3.5 2.01472 3.5 4.5H6.5Z" />
    </g>

    <g transform="scale(6 6) translate(45 48)" fill="white">
      <path fill-rule="evenodd"
        d="M6 4.5858L10.2929 0.29289C10.6834 -0.09763 11.3166 -0.09763 11.7071 0.29289C12.0976 0.68342 12.0976 1.31658 11.7071 1.70711L7.4142 6L11.7071 10.2929C12.0976 10.6834 12.0976 11.3166 11.7071 11.7071C11.3166 12.0976 10.6834 12.0976 10.2929 11.7071L6 7.4142L1.70711 11.7071C1.31658 12.0976 0.68342 12.0976 0.29289 11.7071C-0.09763 11.3166 -0.09763 10.6834 0.29289 10.2929L4.5858 6L0.29289 1.70711C-0.09763 1.31658 -0.09763 0.68342 0.29289 0.29289C0.68342 -0.09763 1.31658 -0.09763 1.70711 0.29289L6 4.5858z" />
    </g>
  </g>
</svg>