<?xml version="1.0"?>

<svg xmlns="http://www.w3.org/2000/svg" width="400" height="425">
  <style>
    :root {
      --color-white: white;
      --color-red: #f45e5e;
      --color-blue: #4591f5;
      --color-green: #54fd64;
      --color-yellow: #f0ff70;
      --color-orange: #f8b468;
      --innard: #555555;
    }
  </style>

  <path d="M 200 10 L 350 98 L 350 328 L 200 413 L 48 328 L 48 98 Z" fill="var(--innard)"/>

  <g transform="translate(-50 -65)">
    <g transform="translate(25 82.5) scale(1.41, .81) rotate(45) translate(50 -175)" fill="var(--color-white)" stroke="var(--innard)">
      <rect x="51.25" y="51.25" width="49" height="49" rx="6" ry="6" />
      <rect x="102.5" y="51.25" width="49" height="49" rx="6" ry="6" />
      <rect x="153.75" y="51.25" width="49" height="49" rx="6" ry="6" />

      <rect x="51.25" y="102.5" width="49" height="49" rx="6" ry="6" />
      <rect x="102.5" y="102.5" width="49" height="49" rx="6" ry="6" />
      <rect x="153.75" y="102.5" width="49" height="49" rx="6" ry="6" />

      <rect x="51.25" y="153.75" width="49" height="49" rx="6" ry="6" />
      <rect x="102.5" y="153.75" width="49" height="49" rx="6" ry="6" />
      <rect x="153.75" y="153.75" width="49" height="49" rx="6" ry="6" />
    </g>

    <g transform="translate(42.5 37.5) skewY(30) translate(0 100) scale(1 1.14)" fill="var(--color-green)" stroke="var(--innard)">
      <rect x="51.25" y="0" width="49" height="49" rx="6" ry="6" />
      <rect x="102.5" y="0" width="49" height="49" rx="6" ry="6" />
      <rect x="153.75" y="0" width="49" height="49" rx="6" ry="6" />

      <rect x="51.25" y="51.25" width="49" height="49" rx="6" ry="6" />
      <rect x="102.5" y="51.25" width="49" height="49" rx="6" ry="6" />
      <rect x="153.75" y="51.25" width="49" height="49" rx="6" ry="6" />

      <rect x="51.25" y="102.5" width="49" height="49" rx="6" ry="6" />
      <rect x="102.5" y="102.5" width="49" height="49" rx="6" ry="6" />
      <rect x="153.75" y="102.5" width="49" height="49" rx="6" ry="6" />

      <rect x="51.25" y="153.75" width="49" height="49" rx="6" ry="6" />
      <rect x="102.5" y="153.75" width="49" height="49" rx="6" ry="6" />
      <rect x="153.75" y="153.75" width="49" height="49" rx="6" ry="6" />
    </g>

    <g transform="translate(32.5 26) skewY(-30) translate(225 357.5) scale(1 1.14)" fill="var(--color-red)" stroke="var(--innard)">
      <rect x="0" y="0" width="49" height="49" rx="6" ry="6" />
      <rect x="51.25" y="0" width="49" height="49" rx="6" ry="6" />
      <rect x="102.5" y="0" width="49" height="49" rx="6" ry="6" />

      <rect x="0.00" y="51.25" width="49" height="49" rx="6" ry="6" />
      <rect x="51.25" y="51.25" width="49" height="49" rx="6" ry="6" />
      <rect x="102.5" y="51.25" width="49" height="49" rx="6" ry="6" />

      <rect x="0" y="102.5" width="49" height="49" rx="6" ry="6" />
      <rect x="51.25" y="102.5" width="49" height="49" rx="6" ry="6" />
      <rect x="102.5" y="102.5" width="49" height="49" rx="6" ry="6" />

      <rect x="0" y="153.75" width="49" height="49" rx="6" ry="6" />
      <rect x="51.25" y="153.75" width="49" height="49" rx="6" ry="6" />
      <rect x="102.5" y="153.75" width="49" height="49" rx="6" ry="6" />
    </g>
  </g>
</svg>