<?xml version="1.0"?>

<svg xmlns="http://www.w3.org/2000/svg" width="400" height="400">
  <style>
    :root {
      --color-white: white;
      --color-red: #f45e5e;
      --color-blue: #4591f5;
      --color-green: #54fd64;
      --color-yellow: #f0ff70;
      --color-orange: #f8b468;
      --innard: #555555;
    }
  </style>

  <path d="M 200 15 L 320 85 L 320 315 L 200 385 L 80 315 L 80 85 Z" fill="var(--innard)"/>

  <g transform="translate(-50 -95)">
    <g transform="translate(25 82.5) scale(1.41, .81) rotate(45) translate(50 -175)" fill="var(--color-white)" stroke="var(--innard)">
      <rect x="82" y="82" width="39.5" height="39.5" rx="6" ry="6" />
      <rect x="123" y="82" width="39.5" height="39.5" rx="6" ry="6" />
      <rect x="164" y="82" width="39.5" height="39.5" rx="6" ry="6" />

      <rect x="82" y="123" width="39.5" height="39.5" rx="6" ry="6" />
      <rect x="123" y="123" width="39.5" height="39.5" rx="6" ry="6" />
      <rect x="164" y="123" width="39.5" height="39.5" rx="6" ry="6" />

      <rect x="82" y="164" width="39.5" height="39.5" rx="6" ry="6" />
      <rect x="123" y="164" width="39.5" height="39.5" rx="6" ry="6" />
      <rect x="164" y="164" width="39.5" height="39.5" rx="6" ry="6" />
    </g>

    <g transform="translate(42.5 37.5) skewY(30) translate(0 100) scale(1 1.14)" fill="var(--color-green)" stroke="var(--innard)">
      <rect x="82" y="0" width="39.5" height="39.5" rx="6" ry="6" />
      <rect x="123" y="0" width="39.5" height="39.5" rx="6" ry="6" />
      <rect x="164" y="0" width="39.5" height="39.5" rx="6" ry="6" />

      <rect x="82" y="41" width="39.5" height="39.5" rx="6" ry="6" />
      <rect x="123" y="41" width="39.5" height="39.5" rx="6" ry="6" />
      <rect x="164" y="41" width="39.5" height="39.5" rx="6" ry="6" />

      <rect x="82" y="82" width="39.5" height="39.5" rx="6" ry="6" />
      <rect x="123" y="82" width="39.5" height="39.5" rx="6" ry="6" />
      <rect x="164" y="82" width="39.5" height="39.5" rx="6" ry="6" />

      <rect x="82" y="123" width="39.5" height="39.5" rx="6" ry="6" />
      <rect x="123" y="123" width="39.5" height="39.5" rx="6" ry="6" />
      <rect x="164" y="123" width="39.5" height="39.5" rx="6" ry="6" />

      <rect x="82" y="164" width="39.5" height="39.5" rx="6" ry="6" />
      <rect x="123" y="164" width="39.5" height="39.5" rx="6" ry="6" />
      <rect x="164" y="164" width="39.5" height="39.5" rx="6" ry="6" />
    </g>

    <g transform="translate(32.5 26) skewY(-30) translate(225 357.5) scale(1 1.14)" fill="var(--color-red)" stroke="var(--innard)">
      <rect x="0" y="0" width="39.5" height="39.5" rx="6" ry="6" />
      <rect x="41" y="0" width="39.5" height="39.5" rx="6" ry="6" />
      <rect x="82" y="0" width="39.5" height="39.5" rx="6" ry="6" />

      <rect x="0" y="41" width="39.5" height="39.5" rx="6" ry="6" />
      <rect x="41" y="41" width="39.5" height="39.5" rx="6" ry="6" />
      <rect x="82" y="41" width="39.5" height="39.5" rx="6" ry="6" />

      <rect x="0" y="82" width="39.5" height="39.5" rx="6" ry="6" />
      <rect x="41" y="82" width="39.5" height="39.5" rx="6" ry="6" />
      <rect x="82" y="82" width="39.5" height="39.5" rx="6" ry="6" />

      <rect x="0" y="123" width="39.5" height="39.5" rx="6" ry="6" />
      <rect x="41" y="123" width="39.5" height="39.5" rx="6" ry="6" />
      <rect x="82" y="123" width="39.5" height="39.5" rx="6" ry="6" />

      <rect x="0" y="164" width="39.5" height="39.5" rx="6" ry="6" />
      <rect x="41" y="164" width="39.5" height="39.5" rx="6" ry="6" />
      <rect x="82" y="164" width="39.5" height="39.5" rx="6" ry="6" />
    </g>
  </g>
</svg>