<?xml version="1.0"?>

<svg xmlns="http://www.w3.org/2000/svg" width="500" height="500">
  <style>
    :root {
      --color-white: white;
      --color-red: #f45e5e;
      --color-blue: #4591f5;
      --color-green: #54fd64;
      --color-yellow: #f0ff70;
      --color-orange: #f8b468;
    }
  </style>

  <g transform="translate(25 82.5) scale(1.41, .81) rotate(45) translate(50 -175)" fill="var(--color-white)">
    <rect x="0" y="0" width="63" height="63" rx="6" ry="6" />
    <rect x="69" y="0" width="63" height="63" rx="6" ry="6" />
    <rect x="138" y="0" width="63" height="63" rx="6" ry="6" />

    <rect x="0" y="69" width="63" height="63" rx="6" ry="6" />
    <rect x="69" y="69" width="63" height="63" rx="6" ry="6" />
    <rect x="138" y="69" width="63" height="63" rx="6" ry="6" />

    <rect x="0" y="138" width="63" height="63" rx="6" ry="6" />
    <rect x="69" y="138" width="63" height="63" rx="6" ry="6" />
    <rect x="138" y="138" width="63" height="63" rx="6" ry="6" />
  </g>

  <g transform="translate(42.5 37.5) skewY(30) translate(0 100) scale(1 1.14)" fill="var(--color-green)">
    <rect x="0" y="0" width="63" height="63" rx="6" ry="6" />
    <rect x="69" y="0" width="63" height="63" rx="6" ry="6" />
    <rect x="138" y="0" width="63" height="63" rx="6" ry="6" />

    <rect x="0" y="69" width="63" height="63" rx="6" ry="6" />
    <rect x="69" y="69" width="63" height="63" rx="6" ry="6" />
    <rect x="138" y="69" width="63" height="63" rx="6" ry="6" />

    <rect x="0" y="138" width="63" height="63" rx="6" ry="6" />
    <rect x="69" y="138" width="63" height="63" rx="6" ry="6" />
    <rect x="138" y="138" width="63" height="63" rx="6" ry="6" />
  </g>

  <g transform="translate(32.5 26) skewY(-30) translate(225 357.5) scale(1 1.14)" fill="var(--color-red)">
    <rect x="0" y="0" width="63" height="63" rx="6" ry="6" />
    <rect x="69" y="0" width="63" height="63" rx="6" ry="6" />
    <rect x="138" y="0" width="63" height="63" rx="6" ry="6" />

    <rect x="0" y="69" width="63" height="63" rx="6" ry="6" />
    <rect x="69" y="69" width="63" height="63" rx="6" ry="6" />
    <rect x="138" y="69" width="63" height="63" rx="6" ry="6" />

    <rect x="0" y="138" width="63" height="63" rx="6" ry="6" />
    <rect x="69" y="138" width="63" height="63" rx="6" ry="6" />
    <rect x="138" y="138" width="63" height="63" rx="6" ry="6" />
  </g>

  <g transform="scale(10) translate(7 7)">
    <path
      d="M31 8.5c0 0-2.53 5.333-3.215 8.062-0.896 3.57 0.13 6.268-1.172 9.73-2.25 4.060-2.402 4.717-10.613 4.708-3.009-0.003-11.626-2.297-11.626-2.297-1.188-0.305-3.373-0.125-3.373-1.453s1.554-2.296 2.936-2.3l5.439 0.478c1.322-0.083 2.705-0.856 2.747-2.585-0.022-2.558-0.275-4.522-1.573-6.6l-5.042-7.867c-0.301-0.626-0.373-1.694 0.499-2.171s1.862 0.232 2.2 0.849l5.631 7.66c0.602 0.559 1.671 0.667 1.58-0.524l-2.487-11.401c-0.155-0.81 0.256-1.791 1.194-1.791 1.231 0 1.987 0.47 1.963 1.213l2.734 11.249c0.214 0.547 0.972 0.475 1.176-0.031l0.779-10.939c0.040-0.349 0.495-0.957 1.369-0.831s1.377 1.063 1.285 1.424l-0.253 10.809c0.177 0.958 0.93 1.098 1.517 0.563l3.827-6.843c0.232-0.574 1.143-0.693 1.67-0.466 0.491 0.32 0.81 0.748 0.81 1.351v0z"
      fill="#444444" />
  </g>

</svg>