<?xml version="1.0"?>

<svg xmlns="http://www.w3.org/2000/svg" width="500" height="500">
  <style>
    :root {
      --color-white: white;
      --color-red: #f45e5e;
      --color-blue: #4591f5;
      --color-green: #54fd64;
      --color-yellow: #f0ff70;
      --color-orange: #f8b468;
      --innard: #555555;
    }
  </style>

  <path d="M 250 20 L 450 135 L 450 370 L 250 475 L 50 370 L 50 135 Z" fill="var(--innard)"/>

  <g transform="translate(25 82.5) scale(1.41, .81) rotate(45) translate(50 -175)" fill="var(--color-white)" stroke="var(--innard)">
    <rect x="0" y="0" width="27.5" height="27.5" rx="4" ry="4" />
    <rect x="29" y="0" width="27.5" height="27.5" rx="4" ry="4" />
    <rect x="58" y="0" width="27.5" height="27.5" rx="4" ry="4" />
    <rect x="87" y="0" width="27.5" height="27.5" rx="4" ry="4" />
    <rect x="116" y="0" width="27.5" height="27.5" rx="4" ry="4" />
    <rect x="145" y="0" width="27.5" height="27.5" rx="4" ry="4" />
    <rect x="174" y="0" width="27.5" height="27.5" rx="4" ry="4" />

    <rect x="0" y="29" width="27.5" height="27.5" rx="4" ry="4" />
    <rect x="29" y="29" width="27.5" height="27.5" rx="4" ry="4" />
    <rect x="58" y="29" width="27.5" height="27.5" rx="4" ry="4" />
    <rect x="87" y="29" width="27.5" height="27.5" rx="4" ry="4" />
    <rect x="116" y="29" width="27.5" height="27.5" rx="4" ry="4" />
    <rect x="145" y="29" width="27.5" height="27.5" rx="4" ry="4" />
    <rect x="174" y="29" width="27.5" height="27.5" rx="4" ry="4" />

    <rect x="0" y="58" width="27.5" height="27.5" rx="4" ry="4" />
    <rect x="29" y="58" width="27.5" height="27.5" rx="4" ry="4" />
    <rect x="58" y="58" width="27.5" height="27.5" rx="4" ry="4" />
    <rect x="87" y="58" width="27.5" height="27.5" rx="4" ry="4" />
    <rect x="116" y="58" width="27.5" height="27.5" rx="4" ry="4" />
    <rect x="145" y="58" width="27.5" height="27.5" rx="4" ry="4" />
    <rect x="174" y="58" width="27.5" height="27.5" rx="4" ry="4" />

    <rect x="0" y="87" width="27.5" height="27.5" rx="4" ry="4" />
    <rect x="29" y="87" width="27.5" height="27.5" rx="4" ry="4" />
    <rect x="58" y="87" width="27.5" height="27.5" rx="4" ry="4" />
    <rect x="87" y="87" width="27.5" height="27.5" rx="4" ry="4" />
    <rect x="116" y="87" width="27.5" height="27.5" rx="4" ry="4" />
    <rect x="145" y="87" width="27.5" height="27.5" rx="4" ry="4" />
    <rect x="174" y="87" width="27.5" height="27.5" rx="4" ry="4" />

    <rect x="0" y="116" width="27.5" height="27.5" rx="4" ry="4" />
    <rect x="29" y="116" width="27.5" height="27.5" rx="4" ry="4" />
    <rect x="58" y="116" width="27.5" height="27.5" rx="4" ry="4" />
    <rect x="87" y="116" width="27.5" height="27.5" rx="4" ry="4" />
    <rect x="116" y="116" width="27.5" height="27.5" rx="4" ry="4" />
    <rect x="145" y="116" width="27.5" height="27.5" rx="4" ry="4" />
    <rect x="174" y="116" width="27.5" height="27.5" rx="4" ry="4" />

    <rect x="0" y="145" width="27.5" height="27.5" rx="4" ry="4" />
    <rect x="29" y="145" width="27.5" height="27.5" rx="4" ry="4" />
    <rect x="58" y="145" width="27.5" height="27.5" rx="4" ry="4" />
    <rect x="87" y="145" width="27.5" height="27.5" rx="4" ry="4" />
    <rect x="116" y="145" width="27.5" height="27.5" rx="4" ry="4" />
    <rect x="145" y="145" width="27.5" height="27.5" rx="4" ry="4" />
    <rect x="174" y="145" width="27.5" height="27.5" rx="4" ry="4" />

    <rect x="0" y="174" width="27.5" height="27.5" rx="4" ry="4" />
    <rect x="29" y="174" width="27.5" height="27.5" rx="4" ry="4" />
    <rect x="58" y="174" width="27.5" height="27.5" rx="4" ry="4" />
    <rect x="87" y="174" width="27.5" height="27.5" rx="4" ry="4" />
    <rect x="116" y="174" width="27.5" height="27.5" rx="4" ry="4" />
    <rect x="145" y="174" width="27.5" height="27.5" rx="4" ry="4" />
    <rect x="174" y="174" width="27.5" height="27.5" rx="4" ry="4" />
  </g>

  <g transform="translate(42.5 37.5) skewY(30) translate(0 100) scale(1 1.14)" fill="var(--color-green)" stroke="var(--innard)">
    <rect x="0" y="0" width="27.5" height="27.5" rx="4" ry="4" />
    <rect x="29" y="0" width="27.5" height="27.5" rx="4" ry="4" />
    <rect x="58" y="0" width="27.5" height="27.5" rx="4" ry="4" />
    <rect x="87" y="0" width="27.5" height="27.5" rx="4" ry="4" />
    <rect x="116" y="0" width="27.5" height="27.5" rx="4" ry="4" />
    <rect x="145" y="0" width="27.5" height="27.5" rx="4" ry="4" />
    <rect x="174" y="0" width="27.5" height="27.5" rx="4" ry="4" />

    <rect x="0" y="29" width="27.5" height="27.5" rx="4" ry="4" />
    <rect x="29" y="29" width="27.5" height="27.5" rx="4" ry="4" />
    <rect x="58" y="29" width="27.5" height="27.5" rx="4" ry="4" />
    <rect x="87" y="29" width="27.5" height="27.5" rx="4" ry="4" />
    <rect x="116" y="29" width="27.5" height="27.5" rx="4" ry="4" />
    <rect x="145" y="29" width="27.5" height="27.5" rx="4" ry="4" />
    <rect x="174" y="29" width="27.5" height="27.5" rx="4" ry="4" />

    <rect x="0" y="58" width="27.5" height="27.5" rx="4" ry="4" />
    <rect x="29" y="58" width="27.5" height="27.5" rx="4" ry="4" />
    <rect x="58" y="58" width="27.5" height="27.5" rx="4" ry="4" />
    <rect x="87" y="58" width="27.5" height="27.5" rx="4" ry="4" />
    <rect x="116" y="58" width="27.5" height="27.5" rx="4" ry="4" />
    <rect x="145" y="58" width="27.5" height="27.5" rx="4" ry="4" />
    <rect x="174" y="58" width="27.5" height="27.5" rx="4" ry="4" />

    <rect x="0" y="87" width="27.5" height="27.5" rx="4" ry="4" />
    <rect x="29" y="87" width="27.5" height="27.5" rx="4" ry="4" />
    <rect x="58" y="87" width="27.5" height="27.5" rx="4" ry="4" />
    <rect x="87" y="87" width="27.5" height="27.5" rx="4" ry="4" />
    <rect x="116" y="87" width="27.5" height="27.5" rx="4" ry="4" />
    <rect x="145" y="87" width="27.5" height="27.5" rx="4" ry="4" />
    <rect x="174" y="87" width="27.5" height="27.5" rx="4" ry="4" />

    <rect x="0" y="116" width="27.5" height="27.5" rx="4" ry="4" />
    <rect x="29" y="116" width="27.5" height="27.5" rx="4" ry="4" />
    <rect x="58" y="116" width="27.5" height="27.5" rx="4" ry="4" />
    <rect x="87" y="116" width="27.5" height="27.5" rx="4" ry="4" />
    <rect x="116" y="116" width="27.5" height="27.5" rx="4" ry="4" />
    <rect x="145" y="116" width="27.5" height="27.5" rx="4" ry="4" />
    <rect x="174" y="116" width="27.5" height="27.5" rx="4" ry="4" />

    <rect x="0" y="145" width="27.5" height="27.5" rx="4" ry="4" />
    <rect x="29" y="145" width="27.5" height="27.5" rx="4" ry="4" />
    <rect x="58" y="145" width="27.5" height="27.5" rx="4" ry="4" />
    <rect x="87" y="145" width="27.5" height="27.5" rx="4" ry="4" />
    <rect x="116" y="145" width="27.5" height="27.5" rx="4" ry="4" />
    <rect x="145" y="145" width="27.5" height="27.5" rx="4" ry="4" />
    <rect x="174" y="145" width="27.5" height="27.5" rx="4" ry="4" />

    <rect x="0" y="174" width="27.5" height="27.5" rx="4" ry="4" />
    <rect x="29" y="174" width="27.5" height="27.5" rx="4" ry="4" />
    <rect x="58" y="174" width="27.5" height="27.5" rx="4" ry="4" />
    <rect x="87" y="174" width="27.5" height="27.5" rx="4" ry="4" />
    <rect x="116" y="174" width="27.5" height="27.5" rx="4" ry="4" />
    <rect x="145" y="174" width="27.5" height="27.5" rx="4" ry="4" />
    <rect x="174" y="174" width="27.5" height="27.5" rx="4" ry="4" />
  </g>

  <g transform="translate(32.5 26) skewY(-30) translate(225 357.5) scale(1 1.14)" fill="var(--color-red)" stroke="var(--innard)">
    <rect x="0" y="0" width="27.5" height="27.5" rx="4" ry="4" />
    <rect x="29" y="0" width="27.5" height="27.5" rx="4" ry="4" />
    <rect x="58" y="0" width="27.5" height="27.5" rx="4" ry="4" />
    <rect x="87" y="0" width="27.5" height="27.5" rx="4" ry="4" />
    <rect x="116" y="0" width="27.5" height="27.5" rx="4" ry="4" />
    <rect x="145" y="0" width="27.5" height="27.5" rx="4" ry="4" />
    <rect x="174" y="0" width="27.5" height="27.5" rx="4" ry="4" />

    <rect x="0" y="29" width="27.5" height="27.5" rx="4" ry="4" />
    <rect x="29" y="29" width="27.5" height="27.5" rx="4" ry="4" />
    <rect x="58" y="29" width="27.5" height="27.5" rx="4" ry="4" />
    <rect x="87" y="29" width="27.5" height="27.5" rx="4" ry="4" />
    <rect x="116" y="29" width="27.5" height="27.5" rx="4" ry="4" />
    <rect x="145" y="29" width="27.5" height="27.5" rx="4" ry="4" />
    <rect x="174" y="29" width="27.5" height="27.5" rx="4" ry="4" />

    <rect x="0" y="58" width="27.5" height="27.5" rx="4" ry="4" />
    <rect x="29" y="58" width="27.5" height="27.5" rx="4" ry="4" />
    <rect x="58" y="58" width="27.5" height="27.5" rx="4" ry="4" />
    <rect x="87" y="58" width="27.5" height="27.5" rx="4" ry="4" />
    <rect x="116" y="58" width="27.5" height="27.5" rx="4" ry="4" />
    <rect x="145" y="58" width="27.5" height="27.5" rx="4" ry="4" />
    <rect x="174" y="58" width="27.5" height="27.5" rx="4" ry="4" />

    <rect x="0" y="87" width="27.5" height="27.5" rx="4" ry="4" />
    <rect x="29" y="87" width="27.5" height="27.5" rx="4" ry="4" />
    <rect x="58" y="87" width="27.5" height="27.5" rx="4" ry="4" />
    <rect x="87" y="87" width="27.5" height="27.5" rx="4" ry="4" />
    <rect x="116" y="87" width="27.5" height="27.5" rx="4" ry="4" />
    <rect x="145" y="87" width="27.5" height="27.5" rx="4" ry="4" />
    <rect x="174" y="87" width="27.5" height="27.5" rx="4" ry="4" />

    <rect x="0" y="116" width="27.5" height="27.5" rx="4" ry="4" />
    <rect x="29" y="116" width="27.5" height="27.5" rx="4" ry="4" />
    <rect x="58" y="116" width="27.5" height="27.5" rx="4" ry="4" />
    <rect x="87" y="116" width="27.5" height="27.5" rx="4" ry="4" />
    <rect x="116" y="116" width="27.5" height="27.5" rx="4" ry="4" />
    <rect x="145" y="116" width="27.5" height="27.5" rx="4" ry="4" />
    <rect x="174" y="116" width="27.5" height="27.5" rx="4" ry="4" />

    <rect x="0" y="145" width="27.5" height="27.5" rx="4" ry="4" />
    <rect x="29" y="145" width="27.5" height="27.5" rx="4" ry="4" />
    <rect x="58" y="145" width="27.5" height="27.5" rx="4" ry="4" />
    <rect x="87" y="145" width="27.5" height="27.5" rx="4" ry="4" />
    <rect x="116" y="145" width="27.5" height="27.5" rx="4" ry="4" />
    <rect x="145" y="145" width="27.5" height="27.5" rx="4" ry="4" />
    <rect x="174" y="145" width="27.5" height="27.5" rx="4" ry="4" />

    <rect x="0" y="174" width="27.5" height="27.5" rx="4" ry="4" />
    <rect x="29" y="174" width="27.5" height="27.5" rx="4" ry="4" />
    <rect x="58" y="174" width="27.5" height="27.5" rx="4" ry="4" />
    <rect x="87" y="174" width="27.5" height="27.5" rx="4" ry="4" />
    <rect x="116" y="174" width="27.5" height="27.5" rx="4" ry="4" />
    <rect x="145" y="174" width="27.5" height="27.5" rx="4" ry="4" />
    <rect x="174" y="174" width="27.5" height="27.5" rx="4" ry="4" />
  </g>
</svg>