<?xml version="1.0"?>

<svg xmlns="http://www.w3.org/2000/svg" width="500" height="500">
  <style>
    :root {
      --color-white: white;
      --color-red: #f45e5e;
      --color-blue: #4591f5;
      --color-green: #54fd64;
      --color-yellow: #f0ff70;
      --color-orange: #f8b468;
    }
  </style>

  <g transform="translate(25 82.5) scale(1.41, .81) rotate(45) translate(50 -175)">
    <rect x="0.0" y="0.0" width="20" height="20" rx="2" ry="2" fill="var(--color-green)" />
    <rect x="22.5" y="0.0" width="20" height="20" rx="2" ry="2" fill="var(--color-yellow)" />
    <rect x="45.0" y="0.0" width="20" height="20" rx="2" ry="2" fill="var(--color-green)" />
    <rect x="67.5" y="0.0" width="20" height="20" rx="2" ry="2" fill="var(--color-blue)" />
    <rect x="90.0" y="0.0" width="20" height="20" rx="2" ry="2" fill="var(--color-white)" />
    <rect x="112.5" y="0.0" width="20" height="20" rx="2" ry="2" fill="var(--color-orange)" />
    <rect x="135.0" y="0.0" width="20" height="20" rx="2" ry="2" fill="var(--color-yellow)" />
    <rect x="157.5" y="0.0" width="20" height="20" rx="2" ry="2" fill="var(--color-green)" />
    <rect x="180.0" y="0.0" width="20" height="20" rx="2" ry="2" fill="var(--color-orange)" />

    <rect x="0.0" y="22.5" width="20" height="20" rx="2" ry="2" fill="var(--color-red)" />
    <rect x="22.5" y="22.5" width="20" height="20" rx="2" ry="2" fill="var(--color-green)" />
    <rect x="45.0" y="22.5" width="20" height="20" rx="2" ry="2" fill="var(--color-red)" />
    <rect x="67.5" y="22.5" width="20" height="20" rx="2" ry="2" fill="var(--color-orange)" />
    <rect x="90.0" y="22.5" width="20" height="20" rx="2" ry="2" fill="var(--color-red)" />
    <rect x="112.5" y="22.5" width="20" height="20" rx="2" ry="2" fill="var(--color-green)" />
    <rect x="135.0" y="22.5" width="20" height="20" rx="2" ry="2" fill="var(--color-blue)" />
    <rect x="157.5" y="22.5" width="20" height="20" rx="2" ry="2" fill="var(--color-yellow)" />
    <rect x="180.0" y="22.5" width="20" height="20" rx="2" ry="2" fill="var(--color-blue)" />

    <rect x="0.0" y="45.0" width="20" height="20" rx="2" ry="2" fill="var(--color-white)" />
    <rect x="22.5" y="45.0" width="20" height="20" rx="2" ry="2" fill="var(--color-yellow)" />
    <rect x="45.0" y="45.0" width="20" height="20" rx="2" ry="2" fill="var(--color-yellow)" />
    <rect x="67.5" y="45.0" width="20" height="20" rx="2" ry="2" fill="var(--color-blue)" />
    <rect x="90.0" y="45.0" width="20" height="20" rx="2" ry="2" fill="var(--color-green)" />
    <rect x="112.5" y="45.0" width="20" height="20" rx="2" ry="2" fill="var(--color-blue)" />
    <rect x="135.0" y="45.0" width="20" height="20" rx="2" ry="2" fill="var(--color-green)" />
    <rect x="157.5" y="45.0" width="20" height="20" rx="2" ry="2" fill="var(--color-green)" />
    <rect x="180.0" y="45.0" width="20" height="20" rx="2" ry="2" fill="var(--color-red)" />

    <rect x="0.0" y="67.5" width="20" height="20" rx="2" ry="2" fill="var(--color-yellow)" />
    <rect x="22.5" y="67.5" width="20" height="20" rx="2" ry="2" fill="var(--color-orange)" />
    <rect x="45.0" y="67.5" width="20" height="20" rx="2" ry="2" fill="var(--color-green)" />
    <rect x="67.5" y="67.5" width="20" height="20" rx="2" ry="2" fill="var(--color-yellow)" />
    <rect x="90.0" y="67.5" width="20" height="20" rx="2" ry="2" fill="var(--color-green)" />
    <rect x="112.5" y="67.5" width="20" height="20" rx="2" ry="2" fill="var(--color-blue)" />
    <rect x="135.0" y="67.5" width="20" height="20" rx="2" ry="2" fill="var(--color-orange)" />
    <rect x="157.5" y="67.5" width="20" height="20" rx="2" ry="2" fill="var(--color-yellow)" />
    <rect x="180.0" y="67.5" width="20" height="20" rx="2" ry="2" fill="var(--color-orange)" />

    <rect x="0.0" y="90.0" width="20" height="20" rx="2" ry="2" fill="var(--color-yellow)" />
    <rect x="22.5" y="90.0" width="20" height="20" rx="2" ry="2" fill="var(--color-yellow)" />
    <rect x="45.0" y="90.0" width="20" height="20" rx="2" ry="2" fill="var(--color-blue)" />
    <rect x="67.5" y="90.0" width="20" height="20" rx="2" ry="2" fill="var(--color-orange)" />
    <rect x="90.0" y="90.0" width="20" height="20" rx="2" ry="2" fill="var(--color-white)" />
    <rect x="112.5" y="90.0" width="20" height="20" rx="2" ry="2" fill="var(--color-yellow)" />
    <rect x="135.0" y="90.0" width="20" height="20" rx="2" ry="2" fill="var(--color-yellow)" />
    <rect x="157.5" y="90.0" width="20" height="20" rx="2" ry="2" fill="var(--color-green)" />
    <rect x="180.0" y="90.0" width="20" height="20" rx="2" ry="2" fill="var(--color-white)" />

    <rect x="0.0" y="112.5" width="20" height="20" rx="2" ry="2" fill="var(--color-yellow)" />
    <rect x="22.5" y="112.5" width="20" height="20" rx="2" ry="2" fill="var(--color-yellow)" />
    <rect x="45.0" y="112.5" width="20" height="20" rx="2" ry="2" fill="var(--color-white)" />
    <rect x="67.5" y="112.5" width="20" height="20" rx="2" ry="2" fill="var(--color-blue)" />
    <rect x="90.0" y="112.5" width="20" height="20" rx="2" ry="2" fill="var(--color-blue)" />
    <rect x="112.5" y="112.5" width="20" height="20" rx="2" ry="2" fill="var(--color-blue)" />
    <rect x="135.0" y="112.5" width="20" height="20" rx="2" ry="2" fill="var(--color-green)" />
    <rect x="157.5" y="112.5" width="20" height="20" rx="2" ry="2" fill="var(--color-green)" />
    <rect x="180.0" y="112.5" width="20" height="20" rx="2" ry="2" fill="var(--color-blue)" />

    <rect x="0.0" y="135.0" width="20" height="20" rx="2" ry="2" fill="var(--color-white)" />
    <rect x="22.5" y="135.0" width="20" height="20" rx="2" ry="2" fill="var(--color-orange)" />
    <rect x="45.0" y="135.0" width="20" height="20" rx="2" ry="2" fill="var(--color-yellow)" />
    <rect x="67.5" y="135.0" width="20" height="20" rx="2" ry="2" fill="var(--color-blue)" />
    <rect x="90.0" y="135.0" width="20" height="20" rx="2" ry="2" fill="var(--color-white)" />
    <rect x="112.5" y="135.0" width="20" height="20" rx="2" ry="2" fill="var(--color-white)" />
    <rect x="135.0" y="135.0" width="20" height="20" rx="2" ry="2" fill="var(--color-yellow)" />
    <rect x="157.5" y="135.0" width="20" height="20" rx="2" ry="2" fill="var(--color-white)" />
    <rect x="180.0" y="135.0" width="20" height="20" rx="2" ry="2" fill="var(--color-blue)" />

    <rect x="0.0" y="157.5" width="20" height="20" rx="2" ry="2" fill="var(--color-red)" />
    <rect x="22.5" y="157.5" width="20" height="20" rx="2" ry="2" fill="var(--color-red)" />
    <rect x="45.0" y="157.5" width="20" height="20" rx="2" ry="2" fill="var(--color-red)" />
    <rect x="67.5" y="157.5" width="20" height="20" rx="2" ry="2" fill="var(--color-yellow)" />
    <rect x="90.0" y="157.5" width="20" height="20" rx="2" ry="2" fill="var(--color-yellow)" />
    <rect x="112.5" y="157.5" width="20" height="20" rx="2" ry="2" fill="var(--color-green)" />
    <rect x="135.0" y="157.5" width="20" height="20" rx="2" ry="2" fill="var(--color-green)" />
    <rect x="157.5" y="157.5" width="20" height="20" rx="2" ry="2" fill="var(--color-white)" />
    <rect x="180.0" y="157.5" width="20" height="20" rx="2" ry="2" fill="var(--color-orange)" />

    <rect x="0.0" y="180.0" width="20" height="20" rx="2" ry="2" fill="var(--color-red)" />
    <rect x="22.5" y="180.0" width="20" height="20" rx="2" ry="2" fill="var(--color-green)" />
    <rect x="45.0" y="180.0" width="20" height="20" rx="2" ry="2" fill="var(--color-green)" />
    <rect x="67.5" y="180.0" width="20" height="20" rx="2" ry="2" fill="var(--color-white)" />
    <rect x="90.0" y="180.0" width="20" height="20" rx="2" ry="2" fill="var(--color-red)" />
    <rect x="112.5" y="180.0" width="20" height="20" rx="2" ry="2" fill="var(--color-yellow)" />
    <rect x="135.0" y="180.0" width="20" height="20" rx="2" ry="2" fill="var(--color-blue)" />
    <rect x="157.5" y="180.0" width="20" height="20" rx="2" ry="2" fill="var(--color-red)" />
    <rect x="180.0" y="180.0" width="20" height="20" rx="2" ry="2" fill="var(--color-orange)" />
  </g>

  <g transform="translate(42.5 37.5) skewY(30) translate(0 100) scale(1 1.14)">
    <rect x="0.0" y="0.0" width="20" height="20" rx="2" ry="2" fill="var(--color-yellow)" />
    <rect x="22.5" y="0.0" width="20" height="20" rx="2" ry="2" fill="var(--color-orange)" />
    <rect x="45.0" y="0.0" width="20" height="20" rx="2" ry="2" fill="var(--color-orange)" />
    <rect x="67.5" y="0.0" width="20" height="20" rx="2" ry="2" fill="var(--color-blue)" />
    <rect x="90.0" y="0.0" width="20" height="20" rx="2" ry="2" fill="var(--color-green)" />
    <rect x="112.5" y="0.0" width="20" height="20" rx="2" ry="2" fill="var(--color-orange)" />
    <rect x="135.0" y="0.0" width="20" height="20" rx="2" ry="2" fill="var(--color-green)" />
    <rect x="157.5" y="0.0" width="20" height="20" rx="2" ry="2" fill="var(--color-white)" />
    <rect x="180.0" y="0.0" width="20" height="20" rx="2" ry="2" fill="var(--color-white)" />

    <rect x="0.0" y="22.5" width="20" height="20" rx="2" ry="2" fill="var(--color-white)" />
    <rect x="22.5" y="22.5" width="20" height="20" rx="2" ry="2" fill="var(--color-red)" />
    <rect x="45.0" y="22.5" width="20" height="20" rx="2" ry="2" fill="var(--color-red)" />
    <rect x="67.5" y="22.5" width="20" height="20" rx="2" ry="2" fill="var(--color-orange)" />
    <rect x="90.0" y="22.5" width="20" height="20" rx="2" ry="2" fill="var(--color-orange)" />
    <rect x="112.5" y="22.5" width="20" height="20" rx="2" ry="2" fill="var(--color-blue)" />
    <rect x="135.0" y="22.5" width="20" height="20" rx="2" ry="2" fill="var(--color-orange)" />
    <rect x="157.5" y="22.5" width="20" height="20" rx="2" ry="2" fill="var(--color-blue)" />
    <rect x="180.0" y="22.5" width="20" height="20" rx="2" ry="2" fill="var(--color-yellow)" />

    <rect x="0.0" y="45.0" width="20" height="20" rx="2" ry="2" fill="var(--color-blue)" />
    <rect x="22.5" y="45.0" width="20" height="20" rx="2" ry="2" fill="var(--color-orange)" />
    <rect x="45.0" y="45.0" width="20" height="20" rx="2" ry="2" fill="var(--color-red)" />
    <rect x="67.5" y="45.0" width="20" height="20" rx="2" ry="2" fill="var(--color-green)" />
    <rect x="90.0" y="45.0" width="20" height="20" rx="2" ry="2" fill="var(--color-red)" />
    <rect x="112.5" y="45.0" width="20" height="20" rx="2" ry="2" fill="var(--color-red)" />
    <rect x="135.0" y="45.0" width="20" height="20" rx="2" ry="2" fill="var(--color-yellow)" />
    <rect x="157.5" y="45.0" width="20" height="20" rx="2" ry="2" fill="var(--color-white)" />
    <rect x="180.0" y="45.0" width="20" height="20" rx="2" ry="2" fill="var(--color-red)" />

    <rect x="0.0" y="67.5" width="20" height="20" rx="2" ry="2" fill="var(--color-green)" />
    <rect x="22.5" y="67.5" width="20" height="20" rx="2" ry="2" fill="var(--color-red)" />
    <rect x="45.0" y="67.5" width="20" height="20" rx="2" ry="2" fill="var(--color-yellow)" />
    <rect x="67.5" y="67.5" width="20" height="20" rx="2" ry="2" fill="var(--color-orange)" />
    <rect x="90.0" y="67.5" width="20" height="20" rx="2" ry="2" fill="var(--color-orange)" />
    <rect x="112.5" y="67.5" width="20" height="20" rx="2" ry="2" fill="var(--color-yellow)" />
    <rect x="135.0" y="67.5" width="20" height="20" rx="2" ry="2" fill="var(--color-green)" />
    <rect x="157.5" y="67.5" width="20" height="20" rx="2" ry="2" fill="var(--color-blue)" />
    <rect x="180.0" y="67.5" width="20" height="20" rx="2" ry="2" fill="var(--color-white)" />

    <rect x="0.0" y="90.0" width="20" height="20" rx="2" ry="2" fill="var(--color-orange)" />
    <rect x="22.5" y="90.0" width="20" height="20" rx="2" ry="2" fill="var(--color-white)" />
    <rect x="45.0" y="90.0" width="20" height="20" rx="2" ry="2" fill="var(--color-blue)" />
    <rect x="67.5" y="90.0" width="20" height="20" rx="2" ry="2" fill="var(--color-green)" />
    <rect x="90.0" y="90.0" width="20" height="20" rx="2" ry="2" fill="var(--color-green)" />
    <rect x="112.5" y="90.0" width="20" height="20" rx="2" ry="2" fill="var(--color-white)" />
    <rect x="135.0" y="90.0" width="20" height="20" rx="2" ry="2" fill="var(--color-white)" />
    <rect x="157.5" y="90.0" width="20" height="20" rx="2" ry="2" fill="var(--color-white)" />
    <rect x="180.0" y="90.0" width="20" height="20" rx="2" ry="2" fill="var(--color-red)" />

    <rect x="0.0" y="112.5" width="20" height="20" rx="2" ry="2" fill="var(--color-orange)" />
    <rect x="22.5" y="112.5" width="20" height="20" rx="2" ry="2" fill="var(--color-red)" />
    <rect x="45.0" y="112.5" width="20" height="20" rx="2" ry="2" fill="var(--color-orange)" />
    <rect x="67.5" y="112.5" width="20" height="20" rx="2" ry="2" fill="var(--color-yellow)" />
    <rect x="90.0" y="112.5" width="20" height="20" rx="2" ry="2" fill="var(--color-green)" />
    <rect x="112.5" y="112.5" width="20" height="20" rx="2" ry="2" fill="var(--color-orange)" />
    <rect x="135.0" y="112.5" width="20" height="20" rx="2" ry="2" fill="var(--color-green)" />
    <rect x="157.5" y="112.5" width="20" height="20" rx="2" ry="2" fill="var(--color-white)" />
    <rect x="180.0" y="112.5" width="20" height="20" rx="2" ry="2" fill="var(--color-yellow)" />

    <rect x="0.0" y="135.0" width="20" height="20" rx="2" ry="2" fill="var(--color-white)" />
    <rect x="22.5" y="135.0" width="20" height="20" rx="2" ry="2" fill="var(--color-green)" />
    <rect x="45.0" y="135.0" width="20" height="20" rx="2" ry="2" fill="var(--color-yellow)" />
    <rect x="67.5" y="135.0" width="20" height="20" rx="2" ry="2" fill="var(--color-red)" />
    <rect x="90.0" y="135.0" width="20" height="20" rx="2" ry="2" fill="var(--color-orange)" />
    <rect x="112.5" y="135.0" width="20" height="20" rx="2" ry="2" fill="var(--color-blue)" />
    <rect x="135.0" y="135.0" width="20" height="20" rx="2" ry="2" fill="var(--color-yellow)" />
    <rect x="157.5" y="135.0" width="20" height="20" rx="2" ry="2" fill="var(--color-green)" />
    <rect x="180.0" y="135.0" width="20" height="20" rx="2" ry="2" fill="var(--color-green)" />

    <rect x="0.0" y="157.5" width="20" height="20" rx="2" ry="2" fill="var(--color-white)" />
    <rect x="22.5" y="157.5" width="20" height="20" rx="2" ry="2" fill="var(--color-yellow)" />
    <rect x="45.0" y="157.5" width="20" height="20" rx="2" ry="2" fill="var(--color-white)" />
    <rect x="67.5" y="157.5" width="20" height="20" rx="2" ry="2" fill="var(--color-blue)" />
    <rect x="90.0" y="157.5" width="20" height="20" rx="2" ry="2" fill="var(--color-orange)" />
    <rect x="112.5" y="157.5" width="20" height="20" rx="2" ry="2" fill="var(--color-red)" />
    <rect x="135.0" y="157.5" width="20" height="20" rx="2" ry="2" fill="var(--color-green)" />
    <rect x="157.5" y="157.5" width="20" height="20" rx="2" ry="2" fill="var(--color-red)" />
    <rect x="180.0" y="157.5" width="20" height="20" rx="2" ry="2" fill="var(--color-white)" />

    <rect x="0.0" y="180.0" width="20" height="20" rx="2" ry="2" fill="var(--color-orange)" />
    <rect x="22.5" y="180.0" width="20" height="20" rx="2" ry="2" fill="var(--color-red)" />
    <rect x="45.0" y="180.0" width="20" height="20" rx="2" ry="2" fill="var(--color-green)" />
    <rect x="67.5" y="180.0" width="20" height="20" rx="2" ry="2" fill="var(--color-red)" />
    <rect x="90.0" y="180.0" width="20" height="20" rx="2" ry="2" fill="var(--color-green)" />
    <rect x="112.5" y="180.0" width="20" height="20" rx="2" ry="2" fill="var(--color-blue)" />
    <rect x="135.0" y="180.0" width="20" height="20" rx="2" ry="2" fill="var(--color-green)" />
    <rect x="157.5" y="180.0" width="20" height="20" rx="2" ry="2" fill="var(--color-yellow)" />
    <rect x="180.0" y="180.0" width="20" height="20" rx="2" ry="2" fill="var(--color-red)" />
  </g>

  <g transform="translate(32.5 26) skewY(-30) translate(225 357.5) scale(1 1.14)">
    <rect x="0.0" y="0.0" width="20" height="20" rx="2" ry="2" fill="var(--color-blue)" />
    <rect x="22.5" y="0.0" width="20" height="20" rx="2" ry="2" fill="var(--color-yellow)" />
    <rect x="45.0" y="0.0" width="20" height="20" rx="2" ry="2" fill="var(--color-red)" />
    <rect x="67.5" y="0.0" width="20" height="20" rx="2" ry="2" fill="var(--color-white)" />
    <rect x="90.0" y="0.0" width="20" height="20" rx="2" ry="2" fill="var(--color-blue)" />
    <rect x="112.5" y="0.0" width="20" height="20" rx="2" ry="2" fill="var(--color-yellow)" />
    <rect x="135.0" y="0.0" width="20" height="20" rx="2" ry="2" fill="var(--color-white)" />
    <rect x="157.5" y="0.0" width="20" height="20" rx="2" ry="2" fill="var(--color-orange)" />
    <rect x="180.0" y="0.0" width="20" height="20" rx="2" ry="2" fill="var(--color-white)" />

    <rect x="0.0" y="22.5" width="20" height="20" rx="2" ry="2" fill="var(--color-blue)" />
    <rect x="22.5" y="22.5" width="20" height="20" rx="2" ry="2" fill="var(--color-white)" />
    <rect x="45.0" y="22.5" width="20" height="20" rx="2" ry="2" fill="var(--color-yellow)" />
    <rect x="67.5" y="22.5" width="20" height="20" rx="2" ry="2" fill="var(--color-green)" />
    <rect x="90.0" y="22.5" width="20" height="20" rx="2" ry="2" fill="var(--color-blue)" />
    <rect x="112.5" y="22.5" width="20" height="20" rx="2" ry="2" fill="var(--color-green)" />
    <rect x="135.0" y="22.5" width="20" height="20" rx="2" ry="2" fill="var(--color-blue)" />
    <rect x="157.5" y="22.5" width="20" height="20" rx="2" ry="2" fill="var(--color-red)" />
    <rect x="180.0" y="22.5" width="20" height="20" rx="2" ry="2" fill="var(--color-blue)" />

    <rect x="0.0" y="45.0" width="20" height="20" rx="2" ry="2" fill="var(--color-yellow)" />
    <rect x="22.5" y="45.0" width="20" height="20" rx="2" ry="2" fill="var(--color-orange)" />
    <rect x="45.0" y="45.0" width="20" height="20" rx="2" ry="2" fill="var(--color-green)" />
    <rect x="67.5" y="45.0" width="20" height="20" rx="2" ry="2" fill="var(--color-blue)" />
    <rect x="90.0" y="45.0" width="20" height="20" rx="2" ry="2" fill="var(--color-green)" />
    <rect x="112.5" y="45.0" width="20" height="20" rx="2" ry="2" fill="var(--color-white)" />
    <rect x="135.0" y="45.0" width="20" height="20" rx="2" ry="2" fill="var(--color-green)" />
    <rect x="157.5" y="45.0" width="20" height="20" rx="2" ry="2" fill="var(--color-white)" />
    <rect x="180.0" y="45.0" width="20" height="20" rx="2" ry="2" fill="var(--color-yellow)" />

    <rect x="0.0" y="67.5" width="20" height="20" rx="2" ry="2" fill="var(--color-orange)" />
    <rect x="22.5" y="67.5" width="20" height="20" rx="2" ry="2" fill="var(--color-orange)" />
    <rect x="45.0" y="67.5" width="20" height="20" rx="2" ry="2" fill="var(--color-green)" />
    <rect x="67.5" y="67.5" width="20" height="20" rx="2" ry="2" fill="var(--color-white)" />
    <rect x="90.0" y="67.5" width="20" height="20" rx="2" ry="2" fill="var(--color-yellow)" />
    <rect x="112.5" y="67.5" width="20" height="20" rx="2" ry="2" fill="var(--color-white)" />
    <rect x="135.0" y="67.5" width="20" height="20" rx="2" ry="2" fill="var(--color-yellow)" />
    <rect x="157.5" y="67.5" width="20" height="20" rx="2" ry="2" fill="var(--color-white)" />
    <rect x="180.0" y="67.5" width="20" height="20" rx="2" ry="2" fill="var(--color-blue)" />

    <rect x="0.0" y="90.0" width="20" height="20" rx="2" ry="2" fill="var(--color-green)" />
    <rect x="22.5" y="90.0" width="20" height="20" rx="2" ry="2" fill="var(--color-orange)" />
    <rect x="45.0" y="90.0" width="20" height="20" rx="2" ry="2" fill="var(--color-white)" />
    <rect x="67.5" y="90.0" width="20" height="20" rx="2" ry="2" fill="var(--color-red)" />
    <rect x="90.0" y="90.0" width="20" height="20" rx="2" ry="2" fill="var(--color-red)" />
    <rect x="112.5" y="90.0" width="20" height="20" rx="2" ry="2" fill="var(--color-red)" />
    <rect x="135.0" y="90.0" width="20" height="20" rx="2" ry="2" fill="var(--color-blue)" />
    <rect x="157.5" y="90.0" width="20" height="20" rx="2" ry="2" fill="var(--color-white)" />
    <rect x="180.0" y="90.0" width="20" height="20" rx="2" ry="2" fill="var(--color-red)" />

    <rect x="0.0" y="112.5" width="20" height="20" rx="2" ry="2" fill="var(--color-green)" />
    <rect x="22.5" y="112.5" width="20" height="20" rx="2" ry="2" fill="var(--color-white)" />
    <rect x="45.0" y="112.5" width="20" height="20" rx="2" ry="2" fill="var(--color-green)" />
    <rect x="67.5" y="112.5" width="20" height="20" rx="2" ry="2" fill="var(--color-yellow)" />
    <rect x="90.0" y="112.5" width="20" height="20" rx="2" ry="2" fill="var(--color-blue)" />
    <rect x="112.5" y="112.5" width="20" height="20" rx="2" ry="2" fill="var(--color-blue)" />
    <rect x="135.0" y="112.5" width="20" height="20" rx="2" ry="2" fill="var(--color-orange)" />
    <rect x="157.5" y="112.5" width="20" height="20" rx="2" ry="2" fill="var(--color-green)" />
    <rect x="180.0" y="112.5" width="20" height="20" rx="2" ry="2" fill="var(--color-red)" />

    <rect x="0.0" y="135.0" width="20" height="20" rx="2" ry="2" fill="var(--color-red)" />
    <rect x="22.5" y="135.0" width="20" height="20" rx="2" ry="2" fill="var(--color-yellow)" />
    <rect x="45.0" y="135.0" width="20" height="20" rx="2" ry="2" fill="var(--color-orange)" />
    <rect x="67.5" y="135.0" width="20" height="20" rx="2" ry="2" fill="var(--color-green)" />
    <rect x="90.0" y="135.0" width="20" height="20" rx="2" ry="2" fill="var(--color-yellow)" />
    <rect x="112.5" y="135.0" width="20" height="20" rx="2" ry="2" fill="var(--color-yellow)" />
    <rect x="135.0" y="135.0" width="20" height="20" rx="2" ry="2" fill="var(--color-blue)" />
    <rect x="157.5" y="135.0" width="20" height="20" rx="2" ry="2" fill="var(--color-yellow)" />
    <rect x="180.0" y="135.0" width="20" height="20" rx="2" ry="2" fill="var(--color-white)" />

    <rect x="0.0" y="157.5" width="20" height="20" rx="2" ry="2" fill="var(--color-orange)" />
    <rect x="22.5" y="157.5" width="20" height="20" rx="2" ry="2" fill="var(--color-orange)" />
    <rect x="45.0" y="157.5" width="20" height="20" rx="2" ry="2" fill="var(--color-blue)" />
    <rect x="67.5" y="157.5" width="20" height="20" rx="2" ry="2" fill="var(--color-white)" />
    <rect x="90.0" y="157.5" width="20" height="20" rx="2" ry="2" fill="var(--color-white)" />
    <rect x="112.5" y="157.5" width="20" height="20" rx="2" ry="2" fill="var(--color-green)" />
    <rect x="135.0" y="157.5" width="20" height="20" rx="2" ry="2" fill="var(--color-yellow)" />
    <rect x="157.5" y="157.5" width="20" height="20" rx="2" ry="2" fill="var(--color-green)" />
    <rect x="180.0" y="157.5" width="20" height="20" rx="2" ry="2" fill="var(--color-green)" />

    <rect x="0.0" y="180.0" width="20" height="20" rx="2" ry="2" fill="var(--color-yellow)" />
    <rect x="22.5" y="180.0" width="20" height="20" rx="2" ry="2" fill="var(--color-orange)" />
    <rect x="45.0" y="180.0" width="20" height="20" rx="2" ry="2" fill="var(--color-blue)" />
    <rect x="67.5" y="180.0" width="20" height="20" rx="2" ry="2" fill="var(--color-yellow)" />
    <rect x="90.0" y="180.0" width="20" height="20" rx="2" ry="2" fill="var(--color-white)" />
    <rect x="112.5" y="180.0" width="20" height="20" rx="2" ry="2" fill="var(--color-white)" />
    <rect x="135.0" y="180.0" width="20" height="20" rx="2" ry="2" fill="var(--color-white)" />
    <rect x="157.5" y="180.0" width="20" height="20" rx="2" ry="2" fill="var(--color-white)" />
    <rect x="180.0" y="180.0" width="20" height="20" rx="2" ry="2" fill="var(--color-red)" />
  </g>
</svg>