<?xml version="1.0"?>

<svg xmlns="http://www.w3.org/2000/svg" width="500" height="500">
  <style>
    :root {
      --color-red: #f45e5e;
      --color-silver: #b2b2b2;
      --innard: #222222;
    }
  </style>

  <path d="M 250 20 L 450 135 L 450 370 L 250 475 L 50 370 L 50 135 Z" fill="var(--innard)"/>

  <g transform="translate(25 82.5) scale(1.41, .81) rotate(45) translate(50 -175)">
    <rect x="0" y="0" width="100" height="73.68" rx="5" ry="5" fill="var(--color-silver)" />
    <rect x="103" y="0" width="67" height="73.68" rx="5" ry="5" fill="var(--color-silver)" />
    <rect x="173" y="0" width="27.0" height="73.68" rx="5" ry="5" fill="var(--color-silver)" />

    <rect x="0" y="76.69" width="100" height="68.68" rx="5" ry="5" fill="var(--color-silver)" />
    <rect x="103" y="76.69" width="67" height="68.68" rx="5" ry="5" fill="var(--color-silver)" />
    <rect x="173" y="76.69" width="27" height="68.68" rx="5" ry="5" fill="var(--color-silver)" />

    <rect x="0" y="148.37" width="100" height="51.63" rx="5" ry="5" fill="var(--color-silver)" />
    <rect x="103" y="148.37" width="67" height="51.63" rx="5" ry="5" fill="var(--color-silver)" />
    <rect x="173" y="148.37" width="27" height="51.63" rx="5" ry="5" fill="var(--color-silver)" />
  </g>

  <g transform="translate(42.5 37.5) skewY(30) translate(0 100) scale(1 1.14)">
    <rect x="0" y="0" width="100" height="42" rx="5" ry="5" fill="var(--color-silver)" />
    <rect x="103" y="0" width="67" height="42" rx="5" ry="5" fill="var(--color-silver)" />
    <rect x="173" y="0" width="27" height="42" rx="5" ry="5" fill="var(--color-silver)" />

    <rect x="0" y="45" width="100" height="67" rx="5" ry="5" fill="var(--color-silver)" />
    <rect x="103" y="45" width="67" height="67" rx="5" ry="5" fill="var(--color-silver)" />
    <rect x="173" y="45" width="27.0" height="67" rx="5" ry="5" fill="var(--color-silver)" />

    <rect x="0" y="115" width="100" height="85" rx="5" ry="5" fill="var(--color-silver)" />
    <rect x="103" y="115" width="67" height="85" rx="5" ry="5" fill="var(--color-silver)" />
    <rect x="173" y="115" width="27" height="85" rx="5" ry="5" fill="var(--color-silver)" />
  </g>

  <g transform="translate(32.5 26) skewY(-30) translate(225 357.5) scale(1 1.14)">
    <rect x="0" y="0" width="51.63" height="42" rx="5" ry="5" fill="var(--color-silver)" />
    <rect x="54.63" y="0" width="68.68" height="42" rx="5" ry="5" fill="var(--color-silver)" />
    <rect x="126.31" y="0" width="73.68" height="42" rx="5" ry="5" fill="var(--color-silver)" />

    <rect x="0" y="45" width="51.63" height="67" rx="5" ry="5" fill="var(--color-silver)" />
    <rect x="54.63" y="45" width="68.68" height="67" rx="5" ry="5" fill="var(--color-silver)" />
    <rect x="126.31" y="45" width="73.68" height="67" rx="5" ry="5" fill="var(--color-silver)" />

    <rect x="0" y="115" width="51.63" height="85" rx="5" ry="5" fill="var(--color-silver)" />
    <rect x="54.63" y="115" width="68.68" height="85" rx="5" ry="5" fill="var(--color-silver)" />
    <rect x="126.31" y="115" width="73.68" height="85" rx="5" ry="5" fill="var(--color-silver)" />
  </g>
</svg>