<svg viewBox="0 0 200 200" width="32" height="32" xmlns="http://www.w3.org/2000/svg">

    <!-- Dark C background -->
    <path d="M 170.4761 159.1365
               A 92 92 0 1 1 170.4761 40.8635
               L 139.8343 66.5750
               A 52 52 0 1 0 139.8343 133.4250
               Z"
          fill="#000000"/>

    <!-- 9 stickers — flat colors, top-to-bottom: red blue yellow green white orange green red blue -->

    <!-- red (40.000° to 71.111°) -->
    <path d="M 170.4761 159.1365 A 92 92 0 0 1 129.7835 187.0456 L 116.8342 149.1997 A 52 52 0 0 0 139.8343 133.4250 Z" fill="#f45e5e"/>
    <!-- blue (71.111° to 102.222°) -->
    <path d="M 129.7835 187.0456 A 92 92 0 0 1 80.5232 189.9147 L 88.9914 150.8214 A 52 52 0 0 0 116.8342 149.1997 Z" fill="#4591f5"/>
    <!-- yellow (102.222° to 133.333°) -->
    <path d="M 80.5232 189.9147 A 92 92 0 0 1 36.8658 166.9184 L 64.3154 137.8234 A 52 52 0 0 0 88.9914 150.8214 Z" fill="#f0ff70"/>
    <!-- green (133.333° to 164.444°) -->
    <path d="M 36.8658 166.9184 A 92 92 0 0 1 11.3699 124.6719 L 49.9047 113.9450 A 52 52 0 0 0 64.3154 137.8234 Z" fill="#54fd64"/>
    <!-- white (164.444° to 195.556°) -->
    <path d="M 11.3699 124.6719 A 92 92 0 0 1 11.3699 75.3281 L 49.9047 86.0550 A 52 52 0 0 0 49.9047 113.9450 Z" fill="white"/>
    <!-- orange (195.556° to 226.667°) -->
    <path d="M 11.3699 75.3281 A 92 92 0 0 1 36.8658 33.0816 L 64.3154 62.1766 A 52 52 0 0 0 49.9047 86.0550 Z" fill="#f8b468"/>
    <!-- green (226.667° to 257.778°) -->
    <path d="M 36.8658 33.0816 A 92 92 0 0 1 80.5232 10.0853 L 88.9914 49.1786 A 52 52 0 0 0 64.3154 62.1766 Z" fill="#54fd64"/>
    <!-- red (257.778° to 288.889°) -->
    <path d="M 80.5232 10.0853 A 92 92 0 0 1 129.7835 12.9544 L 116.8342 50.8003 A 52 52 0 0 0 88.9914 49.1786 Z" fill="#f45e5e"/>
    <!-- blue (288.889° to 320.000°) -->
    <path d="M 129.7835 12.9544 A 92 92 0 0 1 170.4761 40.8635 L 139.8343 66.5750 A 52 52 0 0 0 116.8342 50.8003 Z" fill="#4591f5"/>

    <!-- Divider strokes -->
    <line x1="118.4528" y1="153.9304" x2="128.1649" y2="182.3149" stroke="#000" stroke-width="7" stroke-linecap="round"/>
    <line x1="87.9329"  y1="155.7080" x2="81.5818"  y2="185.0280" stroke="#000" stroke-width="7" stroke-linecap="round"/>
    <line x1="60.8842"  y1="141.4603" x2="40.2970"  y2="163.2815" stroke="#000" stroke-width="7" stroke-linecap="round"/>
    <line x1="45.0879"  y1="115.2858" x2="16.1867"  y2="123.3310" stroke="#000" stroke-width="7" stroke-linecap="round"/>
    <line x1="45.0879"  y1="84.7142"  x2="16.1867"  y2="76.6690"  stroke="#000" stroke-width="7" stroke-linecap="round"/>
    <line x1="60.8842"  y1="58.5397"  x2="40.2970"  y2="36.7185"  stroke="#000" stroke-width="7" stroke-linecap="round"/>
    <line x1="87.9329"  y1="44.2920"  x2="81.5818"  y2="14.9720"  stroke="#000" stroke-width="7" stroke-linecap="round"/>
    <line x1="118.4528" y1="46.0696"  x2="128.1649" y2="17.6851"  stroke="#000" stroke-width="7" stroke-linecap="round"/>

    <!-- C outline -->
    <path d="M 170.4761 159.1365
               A 92 92 0 1 1 170.4761 40.8635
               L 139.8343 66.5750
               A 52 52 0 1 0 139.8343 133.4250
               Z"
          fill="none" stroke="#000" stroke-width="6"/>

</svg>
