<?xml version="1.0"?>

<svg xmlns="http://www.w3.org/2000/svg" width="500" height="500">
  <style>
    :root {
      --color-white: white;
      --color-red: #f45e5e;
      --color-blue: #4591f5;
      --color-green: #54fd64;
      --color-yellow: #f0ff70;
      --color-orange: #f8b468;
      --innard: #555555;
    }
  </style>

  <path d="M 250 20 L 450 135 L 450 370 L 250 475 L 50 370 L 50 135 Z" fill="var(--innard)"/>

  <g transform="translate(25 82.5) scale(1.41, .81) rotate(45) translate(50 -175)" stroke="var(--innard)">
    <!-- commands in comments below are paths on a 200x200 canvas, before rounding -->

    <!-- M 5 0 L 195 0 L 100 95 Z -->
    <path
      d="M10.121,5.121A3,3,45,0,1,12.243,0L187.757,0A3,3,45,0,1,189.879,5.121L102.121,92.879A3,3,-270,0,1,97.879,92.879Z"
      fill="var(--color-white)" />

    <!-- M 200 5 L 200 195 L 105 100 Z -->
    <path
      d="M194.879,10.121A3,3,45,0,1,200,12.243L200,187.757A3,3,-315,0,1,194.879,189.879L107.121,102.121A3,3,90,0,1,107.121,97.879Z"
      fill="var(--color-yellow)" />

    <!-- M 195 200 L 5 200 L 100 105 Z -->
    <path
      d="M189.879,194.879A3,3,45,0,1,187.757,200L12.243,200A3,3,45,0,1,10.121,194.879L97.879,107.121A3,3,90,0,1,102.121,107.121Z"
      fill="var(--color-white)" />

    <!-- M 0 195 L 0 5 L 95 100 Z -->
    <path
      d="M5.121,189.879A3,3,45,0,1,0,187.757L0,12.243A3,3,45,0,1,5.121,10.121L92.879,97.879A3,3,90,0,1,92.879,102.121Z"
      fill="var(--color-blue)" />
  </g>


  <g transform="translate(42.5 37.5) skewY(30) translate(0 100) scale(1 1.14)" stroke="var(--innard)">
    <path
      d="M10.121,5.121A3,3,45,0,1,12.243,0L187.757,0A3,3,45,0,1,189.879,5.121L102.121,92.879A3,3,-270,0,1,97.879,92.879Z"
      fill="var(--color-red)" />
    <path
      d="M194.879,10.121A3,3,45,0,1,200,12.243L200,187.757A3,3,-315,0,1,194.879,189.879L107.121,102.121A3,3,90,0,1,107.121,97.879Z"
      fill="var(--color-yellow)" />
    <path
      d="M189.879,194.879A3,3,45,0,1,187.757,200L12.243,200A3,3,45,0,1,10.121,194.879L97.879,107.121A3,3,90,0,1,102.121,107.121Z"
      fill="var(--color-green)" />
    <path
      d="M5.121,189.879A3,3,45,0,1,0,187.757L0,12.243A3,3,45,0,1,5.121,10.121L92.879,97.879A3,3,90,0,1,92.879,102.121Z"
      fill="var(--color-blue)" />
  </g>

  <g transform="translate(32.5 26) skewY(-30) translate(225 357.5) scale(1 1.14)" stroke="var(--innard)">
    <path
      d="M10.121,5.121A3,3,45,0,1,12.243,0L187.757,0A3,3,45,0,1,189.879,5.121L102.121,92.879A3,3,-270,0,1,97.879,92.879Z"
      fill="var(--color-green)" />
    <path
      d="M194.879,10.121A3,3,45,0,1,200,12.243L200,187.757A3,3,-315,0,1,194.879,189.879L107.121,102.121A3,3,90,0,1,107.121,97.879Z"
      fill="var(--color-white)" />
    <path
      d="M189.879,194.879A3,3,45,0,1,187.757,200L12.243,200A3,3,45,0,1,10.121,194.879L97.879,107.121A3,3,90,0,1,102.121,107.121Z"
      fill="var(--color-orange)" />
    <path
      d="M5.121,189.879A3,3,45,0,1,0,187.757L0,12.243A3,3,45,0,1,5.121,10.121L92.879,97.879A3,3,90,0,1,92.879,102.121Z"
      fill="var(--color-red)" />
  </g>
</svg>