<?xml version="1.0"?>

<svg xmlns="http://www.w3.org/2000/svg" width="500" height="500">
  <style>
    :root {
      --color-white: white;
      --color-red: #f45e5e;
      --color-blue: #4591f5;
      --color-green: #54fd64;
      --color-yellow: #f0ff70;
      --color-orange: #f8b468;
      --innard: #555555;
    }
  </style>

  <path d="M 250 20 L 450 135 L 450 370 L 250 475 L 50 370 L 50 135 Z" fill="var(--innard)"/>

  <g transform="translate(25 82.5) scale(1.41, .81) rotate(45) translate(50 -175)" fill="var(--color-white)" stroke="var(--innard)">
    <rect x="0" y="0" width="66" height="66" rx="6" ry="6" />
    <rect x="69" y="0" width="66" height="66" rx="6" ry="6" />
    <rect x="138" y="0" width="66" height="66" rx="6" ry="6" />

    <rect x="0" y="69" width="66" height="66" rx="6" ry="6" />
    <rect x="69" y="69" width="66" height="66" rx="6" ry="6" />
    <rect x="138" y="69" width="66" height="66" rx="6" ry="6" />

    <rect x="0" y="138" width="66" height="66" rx="6" ry="6" />
    <rect x="69" y="138" width="66" height="66" rx="6" ry="6" />
    <rect x="138" y="138" width="66" height="66" rx="6" ry="6" />
  </g>

  <g transform="translate(42.5 37.5) skewY(30) translate(0 100) scale(1 1.14)" fill="var(--color-green)" stroke="var(--innard)">
    <rect x="0" y="0" width="66" height="66" rx="6" ry="6" />
    <rect x="69" y="0" width="66" height="66" rx="6" ry="6" />
    <rect x="138" y="0" width="66" height="66" rx="6" ry="6" />

    <rect x="0" y="69" width="66" height="66" rx="6" ry="6" />
    <rect x="69" y="69" width="66" height="66" rx="6" ry="6" />
    <rect x="138" y="69" width="66" height="66" rx="6" ry="6" />

    <rect x="0" y="138" width="66" height="66" rx="6" ry="6" />
    <rect x="69" y="138" width="66" height="66" rx="6" ry="6" />
    <rect x="138" y="138" width="66" height="66" rx="6" ry="6" />
  </g>

  <g transform="translate(32.5 26) skewY(-30) translate(225 357.5) scale(1 1.14)" fill="var(--color-red)" stroke="var(--innard)">
    <rect x="0" y="0" width="66" height="66" rx="6" ry="6" />
    <rect x="69" y="0" width="66" height="66" rx="6" ry="6" />
    <rect x="138" y="0" width="66" height="66" rx="6" ry="6" />

    <rect x="0" y="69" width="66" height="66" rx="6" ry="6" />
    <rect x="69" y="69" width="66" height="66" rx="6" ry="6" />
    <rect x="138" y="69" width="66" height="66" rx="6" ry="6" />

    <rect x="0" y="138" width="66" height="66" rx="6" ry="6" />
    <rect x="69" y="138" width="66" height="66" rx="6" ry="6" />
    <rect x="138" y="138" width="66" height="66" rx="6" ry="6" />
  </g>

  <g transform="scale(0.125) translate(1250 1000)" fill-rule="evenodd" fill="var(--innard)">
    <path
      d="M1164.23 160.333h304.01v337.82L840.282 1126.11c-31.623 31.62-49.694 74.54-49.694 119.71v395.3h395.292c45.18 0 88.1-18.07 119.72-49.7l162.64-162.63V1867H0V160.333h329.104C351.069 98.19 410.335 53.667 480 53.667h533.33c69.67 0 128.93 44.523 150.9 106.666Zm-737.563 53.334c0-29.456 23.878-53.334 53.333-53.334h533.33c29.46 0 53.34 23.878 53.34 53.334v160H426.667v-160Z" />
    <path
      d="m1677.57 528.308 225.88 225.882c22.02 22.024 22.02 57.713 0 79.85l-677.65 677.65c-10.62 10.5-24.96 16.49-39.98 16.49H903.467v-282.36c0-15.02 5.986-29.36 16.489-39.87L1597.6 528.308c22.14-22.137 57.83-22.137 79.97 0Zm-129.55 209.28 146.03 146.033 89.56-89.562-146.03-146.033-89.56 89.562Z" />
  </g>
</svg>