<?xml version="1.0"?>
<svg xmlns="http://www.w3.org/2000/svg" width="500" height="500">
  <style>
    :root {
      --color-red: #f45e5e;
      --color-blue: #4591f5;
      --color-green: #54fd64;
      --color-yellow: #f0ff70;
      --color-white: #ffffff;
    }
  </style>
  <!-- side length 166.66 (=500/3)-->
  <!-- base unrounded paths, followed by rounded, for a single triangle cubelet -->
  <!-- pointing up -->
  <!-- M 0 -72.1687 L -83.333 72.1687 L 83.333 72.1687 Z -->
  <!-- M8.66,-57.17A10,10,-60,0,0,-8.66,-57.17L-74.67,57.17A10,10,-60,0,0,-66.01,72.17L66.01,72.17A10,10,-60,0,0,74.67,57.17Z -->
  <!-- pointing down -->
  <!-- M 0 72.1687 L -83.333 -72.1687 L 83.333 -72.1687 Z -->
  <!-- M8.66,57.169A10,10,-300,0,1,-8.66,57.17L-74.67,-57.17A10,10,60,0,1,-66.01,-72.17L66.01,-72.17A10,10,60,0,1,74.67,-57.17Z -->
  
  <!-- left face -->
  <g transform="">
    <g transform="translate(0,470)">
      <!-- bottom row left-to-right #1/5 -->
      <g transform="translate(83.33, -72.1687)">
        <g transform="scale(0.95, 0.95)">
          <path d="M8.66,-57.17A10,10,-60,0,0,-8.66,-57.17L-74.67,57.17A10,10,-60,0,0,-66.01,72.17L66.01,72.17A10,10,-60,0,0,74.67,57.17Z" fill="var(--color-blue)" />
        </g>
      </g>
      <!-- bottom row left-to-right #2/5 -->
      <g transform="translate(166.66, -72.1687)">
        <g transform="scale(0.95, 0.95)">
          <path d="M8.66,57.169A10,10,-300,0,1,-8.66,57.17L-74.67,-57.17A10,10,60,0,1,-66.01,-72.17L66.01,-72.17A10,10,60,0,1,74.67,-57.17Z" fill="var(--color-yellow)" />
        </g>
      </g>
      <!-- bottom row left-to-right #3/5 -->
      <g transform="translate(250, -72.1687)">
        <g transform="scale(0.95, 0.95)">
          <path d="M8.66,-57.17A10,10,-60,0,0,-8.66,-57.17L-74.67,57.17A10,10,-60,0,0,-66.01,72.17L66.01,72.17A10,10,-60,0,0,74.67,57.17Z" fill="var(--color-red)" />
        </g>
      </g>
      <!-- bottom row left-to-right #4/5 -->
      <g transform="translate(333.33, -72.1687)">
        <g transform="scale(0.95, 0.95)">
          <path d="M8.66,57.169A10,10,-300,0,1,-8.66,57.17L-74.67,-57.17A10,10,60,0,1,-66.01,-72.17L66.01,-72.17A10,10,60,0,1,74.67,-57.17Z" fill="var(--color-yellow)" />
        </g>
      </g>
      <!-- bottom row left-to-right #5/5 -->
      <g transform="translate(416.66, -72.1687)">
        <g transform="scale(0.95, 0.95)">
          <path d="M8.66,-57.17A10,10,-60,0,0,-8.66,-57.17L-74.67,57.17A10,10,-60,0,0,-66.01,72.17L66.01,72.17A10,10,-60,0,0,74.67,57.17Z" fill="var(--color-blue)" />
        </g>
      </g>
      <!-- middle row left-to-right #1/3 -->
      <g transform="translate(166.66, -216.5057)">
        <g transform="scale(0.95, 0.95)">
          <path d="M8.66,-57.17A10,10,-60,0,0,-8.66,-57.17L-74.67,57.17A10,10,-60,0,0,-66.01,72.17L66.01,72.17A10,10,-60,0,0,74.67,57.17Z" fill="var(--color-yellow)" />
        </g>
      </g>
      <!-- middle row left-to-right #2/3 -->
      <g transform="translate(250, -216.5057)">
        <g transform="scale(0.95, 0.95)">
          <path d="M8.66,57.169A10,10,-300,0,1,-8.66,57.17L-74.67,-57.17A10,10,60,0,1,-66.01,-72.17L66.01,-72.17A10,10,60,0,1,74.67,-57.17Z" fill="var(--color-green)" />
        </g>
      </g>
      <!-- middle row left-to-right #3/3 -->
      <g transform="translate(333.33, -216.5057)">
        <g transform="scale(0.95, 0.95)">
          <path d="M8.66,-57.17A10,10,-60,0,0,-8.66,-57.17L-74.67,57.17A10,10,-60,0,0,-66.01,72.17L66.01,72.17A10,10,-60,0,0,74.67,57.17Z" fill="var(--color-blue)" />
        </g>
      </g>
      <!-- top #1/1 -->
      <g transform="translate(250, -360.8427)">
        <g transform="scale(0.95, 0.95)">
          <path d="M8.66,-57.17A10,10,-60,0,0,-8.66,-57.17L-74.67,57.17A10,10,-60,0,0,-66.01,72.17L66.01,72.17A10,10,-60,0,0,74.67,57.17Z" fill="var(--color-red)" />
        </g>
      </g>
    </g>
  </g>

  <!-- reference -->
  <g transform="scale(0.72, 0.72) translate(-22, -30)">
  <g
     id="layer3"
     style="display:inline">
    <path
       d="m 286.29522,480.99452 c 0,-2.25222 85.96245,-420.051392 86.92669,-422.485591 0.87012,-2.196626 30.62202,28.87194 164.84754,172.142861 90.08218,96.15278 163.33835,174.9673 162.79148,175.14337 -0.54685,0.17607 -92.60143,17.04146 -204.56571,37.47864 -111.96429,20.43719 -205.01786,37.5018 -206.78572,37.92137 -1.76785,0.41957 -3.21428,0.32929 -3.21428,-0.20065 z"
       id="path3772"
       style="fill:#d5e5ff;fill-opacity:0;" />
    <path
       d="M 164.86665,416.1168 C 99.259504,380.18714 45.694091,350.2371 45.832396,349.56116 46.362289,346.9714 369.88743,57.611747 370.26678,59.38829 c 0.30455,1.426314 -84.41736,417.26983 -85.81605,421.21381 -0.1641,0.46274 -53.97694,-28.55564 -119.58408,-64.4853 z"
       id="path3774"
       style="fill:#aaccff;fill-opacity:0;" />
    <path
       d="M 209.30143,526.75453 C 121.95291,433.51972 50.727859,356.99477 51.023533,356.6991 c 0.295674,-0.29568 52.873427,28.10751 116.839437,63.1182 l 116.30186,63.65579 42.48913,105.88654 c 23.36903,58.23761 42.25826,106.11746 41.97606,106.39966 -0.28222,0.2822 -71.98007,-75.76995 -159.32859,-169.00476 l 0,0 z"
       id="path3776"
       style="fill:#aaccff;fill-opacity:0;" />
    <path
       d="m 371.43526,696.00647 c -13.86318,-33.34595 -85.00275,-211.8592 -84.592,-212.26995 0.62135,-0.62136 412.81247,-76.14555 413.11464,-75.6934 0.26743,0.40014 -320.34695,288.39295 -323.76235,290.8205 -2.51432,1.78707 -2.93431,1.53498 -4.76029,-2.85715 l 0,0 z"
       id="path3778"
       style="fill:#aaccff;fill-opacity:0;" />
  </g>
  <g
     transform="translate(0,-302.36218)"
     id="layer1"
     style="display:inline">
    <path
       d="m 373.19041,355.64302 330.58774,352.89553 0.0589,0"
       id="path10"
       style="fill:none;stroke:#0000ff;stroke-width:3;stroke-linecap:round;stroke-linejoin:round;stroke-miterlimit:4;stroke-opacity:1;stroke-dasharray:none" />
    <path
       d="m 703.77815,708.53855 -330.58774,296.92435 0.0589,0"
       id="path15"
       style="fill:none;stroke:#0000ff;stroke-width:3;stroke-linecap:round;stroke-linejoin:round;stroke-miterlimit:4;stroke-opacity:1;stroke-dasharray:none" />
    <path
       d="M 373.19041,355.64302 42.602664,652.5673 l 0.0589,0"
       id="path28"
       style="fill:none;stroke:#0000ff;stroke-width:3;stroke-linecap:round;stroke-linejoin:round;stroke-miterlimit:4;stroke-opacity:1;stroke-dasharray:none" />
    <path
       d="m 42.602664,652.5673 330.587746,352.8956 0.0589,0"
       id="path29"
       style="fill:none;stroke:#0000ff;stroke-width:3;stroke-linecap:round;stroke-linejoin:round;stroke-miterlimit:4;stroke-opacity:1;stroke-dasharray:none" />
    <path
       d="m 373.19041,355.64302 -88.34116,429.52496 0.0589,0"
       id="path35"
       style="fill:none;stroke:#0000ff;stroke-width:3;stroke-linecap:round;stroke-linejoin:round;stroke-miterlimit:4;stroke-opacity:1;stroke-dasharray:none" />
    <path
       d="m 284.84925,785.16798 88.34116,220.29492 0.0589,0"
       id="path36"
       style="fill:none;stroke:#0000ff;stroke-width:3;stroke-linecap:round;stroke-linejoin:round;stroke-miterlimit:4;stroke-opacity:1;stroke-dasharray:none" />
    <path
       d="m 42.602664,652.5673 242.246586,132.60068 0.0589,0"
       id="path40"
       style="fill:none;stroke:#0000ff;stroke-width:3;stroke-linecap:round;stroke-linejoin:round;stroke-miterlimit:4;stroke-opacity:1;stroke-dasharray:none" />
    <path
       d="m 284.84925,785.16798 418.9289,-76.62943 0.0589,0"
       id="path41"
       style="fill:none;stroke:#0000ff;stroke-width:3;stroke-linecap:round;stroke-linejoin:round;stroke-miterlimit:4;stroke-opacity:1;stroke-dasharray:none" />
  </g>
  </g>
  
</svg>