<?xml version="1.0"?>
<svg xmlns="http://www.w3.org/2000/svg" width="500" height="500">
  <style>
    :root {
      --color-red: #f45e5e;
      --color-blue: #4591f5;
      --color-green: #54fd64;
      --color-yellow: #f0ff70;
      --color-orange: #f8b468;
      --color-white: #ffffff;
      --color-purple: #a25ccaff;
      --color-grey: #787579ff;
    }
  </style>
  <!-- side length 166.66 (=500/3)-->
  <!-- base unrounded paths, followed by rounded, for a single triangle cubelet -->
  <!-- pointing up -->
  <!-- M 0 -72.1687 L -83.333 72.1687 L 83.333 72.1687 Z -->
  <!-- M8.66,-57.17A10,10,-60,0,0,-8.66,-57.17L-74.67,57.17A10,10,-60,0,0,-66.01,72.17L66.01,72.17A10,10,-60,0,0,74.67,57.17Z -->
  <!-- pointing down -->
  <!-- M 0 72.1687 L -83.333 -72.1687 L 83.333 -72.1687 Z -->
  <!-- M8.66,57.169A10,10,-300,0,1,-8.66,57.17L-74.67,-57.17A10,10,60,0,1,-66.01,-72.17L66.01,-72.17A10,10,60,0,1,74.67,-57.17Z -->
  <!-- UR face -->
  <g transform="matrix(0.6, -0.11, 0.2037, 0.6516, 94.2593, 18.7384)">
    <g transform="translate(0,470)">
      <!-- bottom row left-to-right #1/5 -->
      <g transform="translate(83.33, -72.1687)">
        <g transform="scale(0.95, 0.95)">
          <path d="M8.66,-57.17A10,10,-60,0,0,-8.66,-57.17L-74.67,57.17A10,10,-60,0,0,-66.01,72.17L66.01,72.17A10,10,-60,0,0,74.67,57.17Z" fill="var(--color-blue)" />
        </g>
      </g>
      <!-- bottom row left-to-right #2/5 -->
      <g transform="translate(166.66, -72.1687)">
        <g transform="scale(0.95, 0.95)">
          <path d="M8.66,57.169A10,10,-300,0,1,-8.66,57.17L-74.67,-57.17A10,10,60,0,1,-66.01,-72.17L66.01,-72.17A10,10,60,0,1,74.67,-57.17Z" fill="var(--color-yellow)" />
        </g>
      </g>
      <!-- bottom row left-to-right #3/5 -->
      <g transform="translate(250, -72.1687)">
        <g transform="scale(0.95, 0.95)">
          <path d="M8.66,-57.17A10,10,-60,0,0,-8.66,-57.17L-74.67,57.17A10,10,-60,0,0,-66.01,72.17L66.01,72.17A10,10,-60,0,0,74.67,57.17Z" fill="var(--color-yellow)" />
        </g>
      </g>
      <!-- bottom row left-to-right #4/5 -->
      <g transform="translate(333.33, -72.1687)">
        <g transform="scale(0.95, 0.95)">
          <path d="M8.66,57.169A10,10,-300,0,1,-8.66,57.17L-74.67,-57.17A10,10,60,0,1,-66.01,-72.17L66.01,-72.17A10,10,60,0,1,74.67,-57.17Z" fill="var(--color-red)" />
        </g>
      </g>
      <!-- bottom row left-to-right #5/5 -->
      <g transform="translate(416.66, -72.1687)">
        <g transform="scale(0.95, 0.95)">
          <path d="M8.66,-57.17A10,10,-60,0,0,-8.66,-57.17L-74.67,57.17A10,10,-60,0,0,-66.01,72.17L66.01,72.17A10,10,-60,0,0,74.67,57.17Z" fill="var(--color-red)" />
        </g>
      </g>
      <!-- middle row left-to-right #1/3 -->
      <g transform="translate(166.66, -216.5057)">
        <g transform="scale(0.95, 0.95)">
          <path d="M8.66,-57.17A10,10,-60,0,0,-8.66,-57.17L-74.67,57.17A10,10,-60,0,0,-66.01,72.17L66.01,72.17A10,10,-60,0,0,74.67,57.17Z" fill="var(--color-purple)" />
        </g>
      </g>
      <!-- middle row left-to-right #2/3 -->
      <g transform="translate(250, -216.5057)">
        <g transform="scale(0.95, 0.95)">
          <path d="M8.66,57.169A10,10,-300,0,1,-8.66,57.17L-74.67,-57.17A10,10,60,0,1,-66.01,-72.17L66.01,-72.17A10,10,60,0,1,74.67,-57.17Z" fill="var(--color-blue)" />
        </g>
      </g>
      <!-- middle row left-to-right #3/3 -->
      <g transform="translate(333.33, -216.5057)">
        <g transform="scale(0.95, 0.95)">
          <path d="M8.66,-57.17A10,10,-60,0,0,-8.66,-57.17L-74.67,57.17A10,10,-60,0,0,-66.01,72.17L66.01,72.17A10,10,-60,0,0,74.67,57.17Z" fill="var(--color-red)" />
        </g>
      </g>
      <!-- top #1/1 -->
      <g transform="translate(250, -360.8427)">
        <g transform="scale(0.95, 0.95)">
          <path d="M8.66,-57.17A10,10,-60,0,0,-8.66,-57.17L-74.67,57.17A10,10,-60,0,0,-66.01,72.17L66.01,72.17A10,10,-60,0,0,74.67,57.17Z" fill="var(--color-yellow)" />
        </g>
      </g>
    </g>
  </g>
  <!-- DR face -->
  <g transform="matrix(0.124, 0.318, -0.6227, 0.3113, 482.662, 178.6689)">
    <g transform="translate(0,470)">
      <!-- bottom row left-to-right #1/5 -->
      <g transform="translate(83.33, -72.1687)">
        <g transform="scale(0.95, 0.95)">
          <path d="M8.66,-57.17A10,10,-60,0,0,-8.66,-57.17L-74.67,57.17A10,10,-60,0,0,-66.01,72.17L66.01,72.17A10,10,-60,0,0,74.67,57.17Z" fill="var(--color-grey)" />
        </g>
      </g>
      <!-- bottom row left-to-right #2/5 -->
      <g transform="translate(166.66, -72.1687)">
        <g transform="scale(0.95, 0.95)">
          <path d="M8.66,57.169A10,10,-300,0,1,-8.66,57.17L-74.67,-57.17A10,10,60,0,1,-66.01,-72.17L66.01,-72.17A10,10,60,0,1,74.67,-57.17Z" fill="var(--color-white)" />
        </g>
      </g>
      <!-- bottom row left-to-right #3/5 -->
      <g transform="translate(250, -72.1687)">
        <g transform="scale(0.95, 0.95)">
          <path d="M8.66,-57.17A10,10,-60,0,0,-8.66,-57.17L-74.67,57.17A10,10,-60,0,0,-66.01,72.17L66.01,72.17A10,10,-60,0,0,74.67,57.17Z" fill="var(--color-white)" />
        </g>
      </g>
      <!-- bottom row left-to-right #4/5 -->
      <g transform="translate(333.33, -72.1687)">
        <g transform="scale(0.95, 0.95)">
          <path d="M8.66,57.169A10,10,-300,0,1,-8.66,57.17L-74.67,-57.17A10,10,60,0,1,-66.01,-72.17L66.01,-72.17A10,10,60,0,1,74.67,-57.17Z" fill="var(--color-orange)" />
        </g>
      </g>
      <!-- bottom row left-to-right #5/5 -->
      <g transform="translate(416.66, -72.1687)">
        <g transform="scale(0.95, 0.95)">
          <path d="M8.66,-57.17A10,10,-60,0,0,-8.66,-57.17L-74.67,57.17A10,10,-60,0,0,-66.01,72.17L66.01,72.17A10,10,-60,0,0,74.67,57.17Z" fill="var(--color-grey)" />
        </g>
      </g>
      <!-- middle row left-to-right #1/3 -->
      <g transform="translate(166.66, -216.5057)">
        <g transform="scale(0.95, 0.95)">
          <path d="M8.66,-57.17A10,10,-60,0,0,-8.66,-57.17L-74.67,57.17A10,10,-60,0,0,-66.01,72.17L66.01,72.17A10,10,-60,0,0,74.67,57.17Z" fill="var(--color-orange)" />
        </g>
      </g>
      <!-- middle row left-to-right #2/3 -->
      <g transform="translate(250, -216.5057)">
        <g transform="scale(0.95, 0.95)">
          <path d="M8.66,57.169A10,10,-300,0,1,-8.66,57.17L-74.67,-57.17A10,10,60,0,1,-66.01,-72.17L66.01,-72.17A10,10,60,0,1,74.67,-57.17Z" fill="var(--color-grey)" />
        </g>
      </g>
      <!-- middle row left-to-right #3/3 -->
      <g transform="translate(333.33, -216.5057)">
        <g transform="scale(0.95, 0.95)">
          <path d="M8.66,-57.17A10,10,-60,0,0,-8.66,-57.17L-74.67,57.17A10,10,-60,0,0,-66.01,72.17L66.01,72.17A10,10,-60,0,0,74.67,57.17Z" fill="var(--color-green)" />
        </g>
      </g>
      <!-- top #1/1 -->
      <g transform="translate(250, -360.8427)">
        <g transform="scale(0.95, 0.95)">
          <path d="M8.66,-57.17A10,10,-60,0,0,-8.66,-57.17L-74.67,57.17A10,10,-60,0,0,-66.01,72.17L66.01,72.17A10,10,-60,0,0,74.67,57.17Z" fill="var(--color-white)" />
        </g>
      </g>
    </g>
  </g>
  <!-- DL face -->
  <g transform="matrix(-0.124, -0.318, 0.4769, 0.4039, 27.8796, 294.1505)">
    <g transform="translate(0,470)">
      <!-- bottom row left-to-right #1/5 -->
      <g transform="translate(83.33, -72.1687)">
        <g transform="scale(0.95, 0.95)">
          <path d="M8.66,-57.17A10,10,-60,0,0,-8.66,-57.17L-74.67,57.17A10,10,-60,0,0,-66.01,72.17L66.01,72.17A10,10,-60,0,0,74.67,57.17Z" fill="var(--color-yellow)" />
        </g>
      </g>
      <!-- bottom row left-to-right #2/5 -->
      <g transform="translate(166.66, -72.1687)">
        <g transform="scale(0.95, 0.95)">
          <path d="M8.66,57.169A10,10,-300,0,1,-8.66,57.17L-74.67,-57.17A10,10,60,0,1,-66.01,-72.17L66.01,-72.17A10,10,60,0,1,74.67,-57.17Z" fill="var(--color-purple)" />
        </g>
      </g>
      <!-- bottom row left-to-right #3/5 -->
      <g transform="translate(250, -72.1687)">
        <g transform="scale(0.95, 0.95)">
          <path d="M8.66,-57.17A10,10,-60,0,0,-8.66,-57.17L-74.67,57.17A10,10,-60,0,0,-66.01,72.17L66.01,72.17A10,10,-60,0,0,74.67,57.17Z" fill="var(--color-purple)" />
        </g>
      </g>
      <!-- bottom row left-to-right #4/5 -->
      <g transform="translate(333.33, -72.1687)">
        <g transform="scale(0.95, 0.95)">
          <path d="M8.66,57.169A10,10,-300,0,1,-8.66,57.17L-74.67,-57.17A10,10,60,0,1,-66.01,-72.17L66.01,-72.17A10,10,60,0,1,74.67,-57.17Z" fill="var(--color-purple)" />
        </g>
      </g>
      <!-- bottom row left-to-right #5/5 -->
      <g transform="translate(416.66, -72.1687)">
        <g transform="scale(0.95, 0.95)">
          <path d="M8.66,-57.17A10,10,-60,0,0,-8.66,-57.17L-74.67,57.17A10,10,-60,0,0,-66.01,72.17L66.01,72.17A10,10,-60,0,0,74.67,57.17Z" fill="var(--color-red)" />
        </g>
      </g>
      <!-- middle row left-to-right #1/3 -->
      <g transform="translate(166.66, -216.5057)">
        <g transform="scale(0.95, 0.95)">
          <path d="M8.66,-57.17A10,10,-60,0,0,-8.66,-57.17L-74.67,57.17A10,10,-60,0,0,-66.01,72.17L66.01,72.17A10,10,-60,0,0,74.67,57.17Z" fill="var(--color-blue)" />
        </g>
      </g>
      <!-- middle row left-to-right #2/3 -->
      <g transform="translate(250, -216.5057)">
        <g transform="scale(0.95, 0.95)">
          <path d="M8.66,57.169A10,10,-300,0,1,-8.66,57.17L-74.67,-57.17A10,10,60,0,1,-66.01,-72.17L66.01,-72.17A10,10,60,0,1,74.67,-57.17Z" fill="var(--color-blue)" />
        </g>
      </g>
      <!-- middle row left-to-right #3/3 -->
      <g transform="translate(333.33, -216.5057)">
        <g transform="scale(0.95, 0.95)">
          <path d="M8.66,-57.17A10,10,-60,0,0,-8.66,-57.17L-74.67,57.17A10,10,-60,0,0,-66.01,72.17L66.01,72.17A10,10,-60,0,0,74.67,57.17Z" fill="var(--color-red)" />
        </g>
      </g>
      <!-- top #1/1 -->
      <g transform="translate(250, -360.8427)">
        <g transform="scale(0.95, 0.95)">
          <path d="M8.66,-57.17A10,10,-60,0,0,-8.66,-57.17L-74.67,57.17A10,10,-60,0,0,-66.01,72.17L66.01,72.17A10,10,-60,0,0,74.67,57.17Z" fill="var(--color-purple)" />
        </g>
      </g>
    </g>
  </g>
  <!-- UL face -->
  <g transform="matrix(0.35, 0.19, -0.3461, 0.6053, 177.6505, -54.5023)">
    <g transform="translate(0,470)">
      <!-- bottom row left-to-right #1/5 -->
      <g transform="translate(83.33, -72.1687)">
        <g transform="scale(0.95, 0.95)">
          <path d="M8.66,-57.17A10,10,-60,0,0,-8.66,-57.17L-74.67,57.17A10,10,-60,0,0,-66.01,72.17L66.01,72.17A10,10,-60,0,0,74.67,57.17Z" fill="var(--color-orange)" />
        </g>
      </g>
      <!-- bottom row left-to-right #2/5 -->
      <g transform="translate(166.66, -72.1687)">
        <g transform="scale(0.95, 0.95)">
          <path d="M8.66,57.169A10,10,-300,0,1,-8.66,57.17L-74.67,-57.17A10,10,60,0,1,-66.01,-72.17L66.01,-72.17A10,10,60,0,1,74.67,-57.17Z" fill="var(--color-orange)" />
        </g>
      </g>
      <!-- bottom row left-to-right #3/5 -->
      <g transform="translate(250, -72.1687)">
        <g transform="scale(0.95, 0.95)">
          <path d="M8.66,-57.17A10,10,-60,0,0,-8.66,-57.17L-74.67,57.17A10,10,-60,0,0,-66.01,72.17L66.01,72.17A10,10,-60,0,0,74.67,57.17Z" fill="var(--color-green)" />
        </g>
      </g>
      <!-- bottom row left-to-right #4/5 -->
      <g transform="translate(333.33, -72.1687)">
        <g transform="scale(0.95, 0.95)">
          <path d="M8.66,57.169A10,10,-300,0,1,-8.66,57.17L-74.67,-57.17A10,10,60,0,1,-66.01,-72.17L66.01,-72.17A10,10,60,0,1,74.67,-57.17Z" fill="var(--color-white)" />
        </g>
      </g>
      <!-- bottom row left-to-right #5/5 -->
      <g transform="translate(416.66, -72.1687)">
        <g transform="scale(0.95, 0.95)">
          <path d="M8.66,-57.17A10,10,-60,0,0,-8.66,-57.17L-74.67,57.17A10,10,-60,0,0,-66.01,72.17L66.01,72.17A10,10,-60,0,0,74.67,57.17Z" fill="var(--color-white)" />
        </g>
      </g>
      <!-- middle row left-to-right #1/3 -->
      <g transform="translate(166.66, -216.5057)">
        <g transform="scale(0.95, 0.95)">
          <path d="M8.66,-57.17A10,10,-60,0,0,-8.66,-57.17L-74.67,57.17A10,10,-60,0,0,-66.01,72.17L66.01,72.17A10,10,-60,0,0,74.67,57.17Z" fill="var(--color-grey)" />
        </g>
      </g>
      <!-- middle row left-to-right #2/3 -->
      <g transform="translate(250, -216.5057)">
        <g transform="scale(0.95, 0.95)">
          <path d="M8.66,57.169A10,10,-300,0,1,-8.66,57.17L-74.67,-57.17A10,10,60,0,1,-66.01,-72.17L66.01,-72.17A10,10,60,0,1,74.67,-57.17Z" fill="var(--color-white)" />
        </g>
      </g>
      <!-- middle row left-to-right #3/3 -->
      <g transform="translate(333.33, -216.5057)">
        <g transform="scale(0.95, 0.95)">
          <path d="M8.66,-57.17A10,10,-60,0,0,-8.66,-57.17L-74.67,57.17A10,10,-60,0,0,-66.01,72.17L66.01,72.17A10,10,-60,0,0,74.67,57.17Z" fill="var(--color-green)" />
        </g>
      </g>
      <!-- top #1/1 -->
      <g transform="translate(250, -360.8427)">
        <g transform="scale(0.95, 0.95)">
          <path d="M8.66,-57.17A10,10,-60,0,0,-8.66,-57.17L-74.67,57.17A10,10,-60,0,0,-66.01,72.17L66.01,72.17A10,10,-60,0,0,74.67,57.17Z" fill="var(--color-green)" />
        </g>
      </g>
    </g>
  </g>
</svg>