<?xml version="1.0"?>
<svg xmlns="http://www.w3.org/2000/svg" width="620" height="620">
  <style>
    :root {
      --color-red: #f45e5e;
      --color-pink: #fa3e86ff;
      --color-blue: #4591f5;
      --color-lightblue: #68f5ffff;
      --color-green: #35d345ff;
      --color-lightgreen: #a1ffabff;
      --color-yellow: #f0ff70;
      --color-orange: #f8b468;
      --color-white: #ffffff;
      --color-tan: #ffe1a9ff;
      --color-purple: #a25ccaff;
      --color-grey: #787579ff;
    }
  </style>
  <g>
    <path d="M241.453,139.013A10,10,103.894106762635,0,1,253.699,137.593L341.377,191.19A10,10,87.6927748052987,0,1,344.477,205.277L275.661,308.288A10,10,-279.8405073397161,0,1,260.452,309.977L170.128,224.008A10,10,88.25362577178242,0,1,169.992,209.652Z" fill="var(--color-white)" />
    <path d="M457.708,255.182A10,10,105.6707407892987,0,1,462.686,266.191L439.715,367.025A10,10,-274.3227000862019,0,1,427.015,374.359L306.567,337.175A10,10,82.64630088841284,0,1,300.418,323.471L352.142,210.026A10,10,86.00565840849036,0,1,366.013,205.387Z" fill="var(--color-white)" />
    <path d="M416.557,495.916A10,10,-256.8383752417689,0,1,407.282,504.188L305.787,510.053A10,10,-271.0429443980411,0,1,295.218,500.464L290.294,375.931A10,10,79.65782928566776,0,1,301.691,365.635L425.667,383.231A10,10,88.2234903541422,0,1,434.115,394.843Z" fill="var(--color-white)" />
    <path d="M179.406,523.29A10,10,-253.45478619618206,0,1,169.092,517.234L129.521,423.336A10,10,86.32374898073418,0,1,135.451,410.008L248.773,370.599A10,10,82.14949579942237,0,1,261.863,378.08L286.386,500.526A10,10,84.98154141602551,0,1,277.679,512.429Z" fill="var(--color-white)" />
    <path d="M73.809,305.904A10,10,105.96909574433803,0,1,76.173,294.098L149.46,228.892A10,10,85.72591073393689,0,1,164.053,230.292L239.761,329.362A10,10,81.39960833302672,0,1,236.631,344.198L131.671,401.867A10,10,-273.0946148113016,0,1,117.844,397.438Z" fill="var(--color-white)" />
  </g>
  <g>
    <path d="M271.384,25.439A5,5,85.28067017757616,0,1,277.528,21.394L365.143,43.247A5,5,123.30746767071665,0,1,368.652,46.446L388.458,102.996A5,5,51.818080270409816,0,1,382.121,109.379L268.248,70.437A5,5,99.59378188129739,0,1,264.932,64.9Z" fill="var(--color-green)" />
    <path d="M459.841,64.452A5,5,145.43420805824474,0,1,462.419,65.93L508.36,115.377A5,5,43.364124531923444,0,1,504.371,123.77L419.362,118.211A5,5,-235.43677081271449,0,1,415.394,115.784L379.223,55.161A5,5,46.63843822254627,0,1,384.602,47.718Z" fill="var(--color-green)" />
    <path d="M580.241,188.696A5,5,69.08121004324073,0,1,578.703,196.789L533.411,216.744A5,5,-243.84925268399465,0,1,528.176,215.995L441.31,142.921A5,5,44.38303799682836,0,1,444.153,134.108L518.225,128.524A5,5,130.38500464392556,0,1,522.156,129.993Z" fill="var(--color-green)" />
    <path d="M471.692,249.865A5,5,-238.7431476978795,0,1,466.787,249.795L368.061,192.377A5,5,71.89200399655148,0,1,367.248,184.322L413.388,143.198A5,5,102.7624771139048,0,1,419.621,142.861L520.679,215.018A5,5,64.08866658742322,0,1,520.164,223.479Z" fill="var(--color-green)" />
    <path d="M251.844,128.438A5,5,103.07083526379635,0,1,249.43,122.705L262.036,77.644A5,5,82.56649546474434,0,1,268.81,74.391L385.9,124.243A5,5,81.91129025136439,0,1,388.22,131.43L358.148,181.18A5,5,-267.5486209799051,0,1,351.468,182.979Z" fill="var(--color-green)" />
  </g>
  <g>
    <path d="M581.43,207.156A5,5,63.645035939962426,0,1,588.907,211.192L593.78,291.74A5,5,133.3890389398387,0,1,592.437,295.461L540.969,350.367A5,5,41.483509376874814,0,1,532.324,346.803L535.539,236.21A5,5,121.48241574332411,0,1,538.05,232.017Z" fill="var(--color-purple)" />
    <path d="M601.523,377.5A5,5,146.68003366906103,0,1,600.956,380.31L564.323,449.049A5,5,-314.5345312580264,0,1,555.139,448.193L535.12,384.352A5,5,126.7467234144505,0,1,535.838,379.928L586.482,309.82A5,5,41.10777417451486,0,1,595.514,312.289Z" fill="var(--color-purple)" />
    <path d="M514.779,546.873A5,5,-274.77177653395825,0,1,507.703,548.895L476.672,529.922A5,5,99.64695824566151,0,1,474.638,523.8L518.484,414.149A5,5,51.06498480687514,0,1,527.488,413.561L554.802,462.294A5,5,124.05983348142158,0,1,554.908,466.983Z" fill="var(--color-purple)" />
    <path d="M427.499,506.522A5,5,102.43149098038151,0,1,424.707,500.915L448.122,393.635A5,5,95.52521810958048,0,1,453.598,389.737L506.163,395.993A5,5,78.95908098107036,0,1,510.332,402.488L472.228,520.968A5,5,-276.9157900710323,0,1,465.375,523.978Z" fill="var(--color-purple)" />
    <path d="M473.09,265.437A5,5,126.2644178263355,0,1,475.86,261.866L524.233,238.969A5,5,58.63644560010062,0,1,531.344,244.014L518.538,365.182A5,5,-252.82959778332884,0,1,514.531,369.562L457.823,380.726A5,5,67.92873435689272,0,1,451.948,374.872Z" fill="var(--color-purple)" />
  </g>
  <g>
    <path d="M414.89,511.211A3,3,146.13613276124968,0,1,416.601,511.57L451.948,530.979A3,3,36.639106269891464,0,1,450.915,536.58L334.904,552.612A3,3,-229.29837274218158,0,1,332.508,551.889L303.432,526.228A3,3,46.52313371104043,0,1,305.151,520.991Z" fill="var(--color-yellow)" />
    <path d="M498.196,553.36A3,3,38.39704030415238,0,1,497.617,558.997L426.626,575.82A3,3,-206.07957415902965,0,1,425.272,575.827L360.52,561.178A3,3,23.111960480592998,0,1,360.643,555.3L461.567,536.842A3,3,144.5705733742843,0,1,463.378,537.076Z" fill="var(--color-yellow)" />
    <path d="M352.58,594.799A3,3,-198.3851323208228,0,1,351.626,594.886L277.959,589.786A3,3,26.62346569630162,0,1,277.01,584.025L326.33,563.431A3,3,148.91676363650282,0,1,327.925,563.232L406.782,574.906A3,3,22.84490298801837,0,1,407.09,580.779Z" fill="var(--color-yellow)" />
    <path d="M169.339,583.475A3,3,76.07199871967124,0,1,166.641,579.596L172.119,561.844A3,3,106.42084152999273,0,1,175.023,559.729L292.57,561.222A3,3,33.20787819311706,0,1,294.143,566.753L260.685,588.051A3,3,-215.70071844278107,0,1,258.905,588.516Z" fill="var(--color-yellow)" />
    <path d="M175.174,533.495A3,3,99.17463812367555,0,1,177.937,530.757L289.114,522.348A3,3,110.22620058720352,0,1,292.069,524.093L304.281,550.824A3,3,66.83407145272193,0,1,301.625,555.07L176.425,558.099A3,3,83.76508983639904,0,1,173.363,554.846Z" fill="var(--color-yellow)" />
  </g>
  <g>
    <path d="M17.637,276.87A2,2,31.02061968977946,0,1,20.764,274.617L37.887,288.339A2,2,150.3891640696605,0,1,38.495,289.161L79.176,391.485A2,2,15.236989961458548,0,1,75.718,393.426L46.326,354.304A2,2,-196.6467737208985,0,1,46.049,353.796Z" fill="var(--color-blue)" />
    <path d="M63.617,305.142A2,2,147.28427087459684,0,1,64.353,305.994L112.076,411.046A2,2,58.61476557941024,0,1,110.013,413.859L92.478,411.72A2,2,-240.09454053348722,0,1,90.879,410.515L42.256,295.697A2,2,34.19550407948018,0,1,45.182,293.237Z" fill="var(--color-blue)" />
    <path d="M165.164,525.755A2,2,143.70853402437518,0,1,165.31,526.992L161.501,545.828A2,2,-321.99253167459904,0,1,157.752,546.326L103.427,437.723A2,2,112.57689327091761,0,1,103.703,435.521L114.474,423.063A2,2,65.70710437930619,0,1,117.802,423.53Z" fill="var(--color-blue)" />
    <path d="M158.58,572.58A2,2,-325.9445824323495,0,1,154.846,573.405L115.93,504.585A2,2,-197.3319458805556,0,1,115.716,504.022L106.061,459.196A2,2,15.716634838282568,0,1,109.784,457.84L159.868,552.546A2,2,147.55989347462247,0,1,160.094,553.64Z" fill="var(--color-blue)" />
    <path d="M74.409,432.565A2,2,-190.22113609551548,0,1,74.26,432.242L53.581,374.685A2,2,13.506524431133698,0,1,57.135,372.912L91.775,425.708A2,2,162.84404470367213,0,1,92.024,426.25L108.777,484.244A2,2,13.87056696070962,0,1,105.123,485.798Z" fill="var(--color-blue)" />
  </g>
  <g>
    <path d="M255.953,25.69A3,3,43.16888968854488,0,1,260.555,28.844L251.351,69.242A3,3,-219.78666914756874,0,1,250.247,70.959L166.757,134.742A3,3,26.194607622543096,0,1,162.249,131.023L193.398,68.349A3,3,150.4231718364808,0,1,194.407,67.197Z" fill="var(--color-red)" />
    <path d="M242.388,125.18A3,3,-217.6255735882496,0,1,241.488,126.893L160.052,204.064A3,3,-310.29994985021915,0,1,154.993,202.052L152.552,157.84A3,3,127.09179099793441,0,1,153.609,155.385L244.369,78.548A3,3,40.8337324405344,0,1,249.271,81.302Z" fill="var(--color-red)" />
    <path d="M67.678,294.146A3,3,-264.7750610491728,0,1,63.636,294.284L43.98,277.541A3,3,88.10839841945868,0,1,43.708,273.237L129.546,178.962A3,3,67.29943017968193,0,1,134.483,179.715L149.312,211.543A3,3,109.36723245003219,0,1,148.69,214.956Z" fill="var(--color-red)" />
    <path d="M19.021,262.645A3,3,82.15185786226573,0,1,18.099,258.217L73.421,185.233A3,3,139.4768136885267,0,1,75.172,184.114L116.321,175.131A3,3,37.7673221266055,0,1,119.262,179.987L41.768,272.61A3,3,-259.39599367739794,0,1,37.998,273.301Z" fill="var(--color-red)" />
    <path d="M129.182,109.486A3,3,159.0901598535109,0,1,129.976,108.74L178.958,77.224A3,3,25.990289977527944,0,1,183.146,81.303L140.067,152.291A3,3,-215.43216244459364,0,1,138.69,153.489L87.547,175.532A3,3,30.351712613554845,0,1,83.943,171Z" fill="var(--color-red)" />
  </g>
</svg>