<?xml version="1.0"?>
<svg xmlns="http://www.w3.org/2000/svg" width="620" height="620">
  <style>
    :root {
      --color-red: #f45e5e;
      --color-pink: #fa3e86ff;
      --color-blue: #4591f5;
      --color-lightblue: #68f5ffff;
      --color-green: #35d345ff;
      --color-lightgreen: #a1ffabff;
      --color-yellow: #f0ff70;
      --color-orange: #f8b468;
      --color-white: #ffffff;
      --color-tan: #ffe1a9ff;
      --color-purple: #a25ccaff;
      --color-grey: #787579ff;
    }
  </style>
  <!-- corner unrounded path -->
  <!-- M 310 0 L 437 94 L 310 186 L 183 94 Z -->
  <!-- edge unrounded path -->
  <!-- M 438 95 L 475 122 L 427 271 L 311 187 Z -->
  <!-- center unrounded path -->
  <!-- M 310 187 L 427 272 L 382 409 L 238 409 L 193 272 Z -->
  <!-- 
    This a "frame" (white outlined plain pentagon) to figure out cubelets against.
    Delete or comment out below when done. 
  -->
  <!-- <g transform="translate(310, 310)"><path d="M 0 -309.02 L 293.89 -95.11 L 181.64 250.37 L -181.64 250.37 L -293.89 -95.11 Z" style="fill:#ffffff;" /></g> -->
  <!--
    These are the individual paths for each piece on the pentagonal face.
    They have been "pre-transformed" so they are just a flat list of paths,
    no groups with translations, rotations, or scale applied.

    This allows us to pass the paths into some other util to perform a perspective
    translation (which SVG doesn't natively support) and then get out another set
    of paths which we can hardcode for each face of the isometric dodecahedron.

    These paths below have not yet been rounded (via svg-round-corners). I'll have to
    do that after the perspective transformation since it's difficult to handle arcs.
  -->
  <!-- <g><path d="M 310.0,12.0 L 424.3,96.6 L 310.0,179.4 L 195.7,96.6 M 195.7,96.6 L 310.0,12.0" fill="var(color-orange)" /><path d="M 434.2,105.5 L 467.5,129.8 L 424.3,263.9 L 319.9,188.3 M 319.9,188.3 L 434.2,105.5" fill="var(color-orange)" /><path d="M 593.4148418559557,217.91293567626565 L 548.2761030344423,352.76153321292225 L 434.20798102814706,269.64238053463185 L 477.6348181203292,135.35001358785016 M 477.6348181203292,135.35001358785019 L 593.4148418559557,217.91293567626565" fill="var(color-orange)" /><path d="M 542.8709682837274,364.9272439741813 L 530.0505608504409,404.10653893012113 L 389.1643478582631,404.46007637185096 L 428.80284627743214,281.8080912958909 M 428.8028462774322,281.80809129589096 L 542.8709682837274,364.92724397418135" fill="var(color-orange)" /><path d="M 485.16000518315707,551.0870643237342 L 342.9627303821573,549.8280809366435 L 386.764753949397,415.6576194653681 L 527.9040152962702,415.46037226258403 M 527.9040152962702,415.4603722625841 L 485.16000518315707,551.0870643237342" fill="var(color-orange)" /><path d="M 329.7221733924423,548.4469036844018 L 288.4987258490495,548.3610396224301 L 244.62625767362653,414.47953777771477 L 373.524196959682,414.27644221312653 M 373.524196959682,414.2764422131266 L 329.7221733924423,548.446903684402" fill="var(color-orange)" /><path d="M 134.83999481684305,551.0870643237344 L 92.09598470372975,415.4603722625841 L 233.23524605060302,415.65761946536816 L 277.03726961784275,549.8280809366435 L 134.83999481684305,551.0870643237344" fill="var(color-orange)" /><path d="M 89.31800520482079,402.4410470149516 L 76.66092092284214,363.208685150301 L 190.43245741226048,280.1118291036554 L 230.4572665516941,402.6382942177356 M 230.45726655169403,402.6382942177356 L 89.31800520482074,402.44104701495155" fill="var(color-orange)" /><path d="M 26.585158144044215,217.91293567626573 L 142.3651818796707,135.35001358785019 L 185.79201897185294,269.6423805346319 L 71.72389696555777,352.76153321292236 M 71.72389696555777,352.7615332129223 L 26.585158144044215,217.91293567626573" fill="var(color-orange)" /><path d="M 153.88885311900953,128.6848053264652 L 187.2897923776675,104.52373629714779 L 301.4769370558499,187.04855674677884 L 197.3156902111918,262.97717227324694 M 197.3156902111918,262.9771722732469 L 153.88885311900955,128.68480532646515" fill="var(color-orange)" /><path d="M 311.0,200.3 L 416.3,276.8 L 375.8,400.1 L 246.2,400.1 L 205.7,276.8 L 311.0,200.3" fill="var(color-orange)" /></g> -->
  <g>
    <path d="M257.412,271.135A10,10,106.96653706995802,0,1,269.243,269.845L336.698,309.25A10,10,108.97399454718365,0,1,341.459,319.848L326.293,395.62A10,10,-253.41188307520872,0,1,317.406,403.615L241.91,410.578A10,10,-250.75057493390995,0,1,231.893,404.77L199.583,333.933A10,10,108.22192639197698,0,1,201.894,322.439Z" fill="var(--color-white)" />
    <path d="M241.556,138.73A10,10,105.84369731785957,0,1,253.534,137.342L322.479,177.9A10,10,73.17575882404331,0,1,324.191,193.867L266.596,247.031A10,10,-252.89081211398045,0,1,254.786,248.327L186.748,208.757A10,10,73.87135597207755,0,1,184.868,192.882Z" fill="var(--color-white)" />
    <path d="M336.393,195.304A10,10,107.23458823925986,0,1,348.185,194.004L361.189,201.54A10,10,109.09580107395789,0,1,365.992,212.1L350.863,289.963A10,10,-289.17712409615115,0,1,336.02,296.701L280.516,264.431A10,10,72.84673478293341,0,1,278.764,248.434Z" fill="var(--color-white)" />
    <path d="M457.997,255.2A10,10,107.59667974987951,0,1,462.865,265.963L446.274,344.951A10,10,-288.4792788961449,0,1,431.436,351.526L361.765,310.745A10,10,109.27150764035632,0,1,357.003,300.195L372.318,221.915A10,10,71.61109150590902,0,1,387.05,215.128Z" fill="var(--color-white)" />
    <path d="M434.426,363.978A10,10,108.91139914349515,0,1,439.171,374.592L436.224,389.129A10,10,-253.14499499730874,0,1,427.364,397.098L348.662,404.532A10,10,73.54143388404341,0,1,337.908,392.657L350.155,330.017A10,10,70.69216196977015,0,1,365.025,323.309Z" fill="var(--color-white)" />
    <path d="M416.64,496.209A10,10,-254.88305635595648,0,1,407.564,504.301L328.378,510.228A10,10,74.48221397485669,0,1,317.824,498.307L333.146,421.189A10,10,106.53927803455963,0,1,342.03,413.18L420.923,405.859A10,10,73.86156434654019,0,1,431.669,417.697Z" fill="var(--color-white)" />
    <path d="M307.399,503.604A10,10,-254.11044608858018,0,1,298.404,511.625L284.304,512.778A10,10,-250.19501891807022,0,1,274.388,506.954L241.567,434.858A10,10,70.8346641046882,0,1,249.742,420.758L311.879,414.98A10,10,73.47080090196219,0,1,322.614,426.883Z" fill="var(--color-white)" />
    <path d="M179.162,523.444A10,10,-251.5277986083977,0,1,169.086,517.519L137.136,445.016A10,10,71.35446149229794,0,1,145.392,431.023L220.921,424.235A10,10,109.27302392665658,0,1,230.923,430.063L263.686,502.26A10,10,70.90031318944315,0,1,255.505,516.35Z" fill="var(--color-white)" />
    <path d="M135.638,422.736A10,10,-251.03104083257492,0,1,125.61,416.867L119.581,403.418A10,10,108.76078523013909,0,1,121.898,392.002L176.979,340.804A10,10,71.51979865845445,0,1,192.892,343.993L219.156,401.816A10,10,70.75045694398139,0,1,210.953,415.911Z" fill="var(--color-white)" />
    <path d="M73.588,305.72A10,10,107.89909213346863,0,1,75.893,294.178L131.843,242.625A10,10,71.60143503323219,0,1,147.737,245.871L180.138,317.77A10,10,108.6104010554399,0,1,177.825,329.208L122.528,380.537A10,10,-288.11092822214067,0,1,106.644,377.396Z" fill="var(--color-white)" />
    <path d="M152.283,234.239A10,10,108.78492858791688,0,1,154.573,222.821L164.723,213.339A10,10,106.80531306861805,0,1,176.572,211.999L244.21,251.277A10,10,73.03041471952227,0,1,245.994,267.252L200.631,309.386A10,10,-288.6206563760572,0,1,184.709,306.168Z" fill="var(--color-white)" />
  </g>
  <g>
    <path d="M356.525,91.38A5,5,82.95795058114568,0,1,362.582,86.971L428.7,101.587A5,5,144.76465768681146,0,1,431.319,103.104L470.69,146.375A5,5,68.95711980499709,0,1,468.804,154.4L432.333,168.587A5,5,-230.4128983221756,0,1,428.085,168.293L356.04,128.1A5,5,113.73317024922139,0,1,353.498,123.261Z" fill="var(--color-green)" />
    <path d="M271.227,25.159A5,5,87.94599566424449,0,1,277.298,21.294L347.876,38.298A5,5,97.22332593999903,0,1,351.675,43.709L348.424,73.052A5,5,-276.1910088222134,0,1,342.371,77.383L268.935,61.084A5,5,91.0216872179699,0,1,265.119,55.207Z" fill="var(--color-green)" />
    <path d="M359.001,47.156A5,5,82.36682219214362,0,1,365.131,42.789L380.338,46.396A5,5,145.90864472113887,0,1,382.867,47.879L417.012,85.057A5,5,34.93408054155325,0,1,412.247,93.321L359.975,81.731A5,5,96.79045254516431,0,1,356.082,76.352Z" fill="var(--color-green)" />
    <path d="M459.897,64.451A5,5,146.57012553900404,0,1,462.394,65.879L497.212,102.535A5,5,33.873963347587605,0,1,492.497,110.859L435.287,98.071A5,5,-214.76174210059952,0,1,432.7,96.579L398.689,59.643A5,5,34.31765321400788,0,1,403.496,51.385Z" fill="var(--color-green)" />
    <path d="M511.06,118.911A5,5,146.26576696295032,0,1,513.588,120.335L521.933,129.053A5,5,67.88421286619092,0,1,520.164,137.159L486.184,150.633A5,5,-248.99543747699923,0,1,480.663,149.372L448.392,114.321A5,5,34.84545764785797,0,1,453.154,106.054Z" fill="var(--color-green)" />
    <path d="M580.491,188.854A5,5,71.25848412102886,0,1,579.048,196.853L544.594,213.217A5,5,-252.86992578271816,0,1,538.765,212.08L492.576,161.736A5,5,69.35158471240737,0,1,494.397,153.716L528.686,139.941A5,5,112.25985694928194,0,1,534.137,141.098Z" fill="var(--color-green)" />
    <path d="M531.749,211.421A5,5,73.55277222477817,0,1,530.246,219.288L524.927,221.877A5,5,-235.1382380055513,0,1,520.301,221.747L446.893,180.756A5,5,51.044681967346236,0,1,447.469,171.75L479.413,158.931A5,5,110.54078381342687,0,1,484.967,160.199Z" fill="var(--color-green)" />
    <path d="M471.625,249.981A5,5,-236.7575290119817,0,1,466.874,249.872L387.973,204.872A5,5,51.35764322242477,0,1,388.605,195.882L431.949,178.668A5,5,129.1141356687618,0,1,436.236,178.951L511.333,220.966A5,5,56.2857501207951,0,1,511.166,229.782Z" fill="var(--color-green)" />
    <path d="M373.11,193.74A5,5,-230.7511805648647,0,1,368.836,193.432L347.788,181.524A5,5,114.14442431641275,0,1,345.272,176.706L348.933,137.646A5,5,66.13454927455535,0,1,356.352,133.749L417.232,167.801A5,5,50.47220697389663,0,1,416.603,176.825Z" fill="var(--color-green)" />
    <path d="M251.679,128.384A5,5,105.5122738945452,0,1,249.259,122.836L258.132,86.364A5,5,74.37348719157272,0,1,265.437,83.185L339.77,124.9A5,5,113.30031636032791,0,1,342.296,129.783L338.202,168.731A5,5,-293.18607744644584,0,1,330.792,172.573Z" fill="var(--color-green)" />
    <path d="M264.736,78.026A5,5,106.51341088260142,0,1,262.305,72.56L263.201,68.606A5,5,90.35651951971495,0,1,269.153,64.828L343.792,81.261A5,5,96.50100830044744,0,1,347.69,86.659L344.764,114.903A5,5,-293.37093870276385,0,1,337.345,118.749Z" fill="var(--color-green)" />
  </g>
  <g>
    <path d="M541.194,319.604A5,5,64.3609552898251,0,1,548.771,323.376L554.389,379.574A5,5,146.31968128871011,0,1,553.83,382.417L522.118,442.133A5,5,-276.7236012916395,0,1,514.856,443.899L491.24,427.55A5,5,112.81778829386634,0,1,489.193,422.41L505.905,342.946A5,5,133.225176419238,0,1,508.197,339.705Z" fill="var(--color-purple)" />
    <path d="M581.602,206.823A5,5,65.69486272266182,0,1,588.962,210.875L593.505,275.664A5,5,116.84254331411569,0,1,591.081,280.306L559.06,299.436A5,5,-295.24664414609305,0,1,551.519,295.632L545.075,229.992A5,5,112.70923810931554,0,1,547.68,225.102Z" fill="var(--color-purple)" />
    <path d="M586.871,290.144A5,5,63.09757730228206,0,1,594.445,294.051L595.273,305.168A5,5,147.9477821704553,0,1,594.71,307.871L566.706,361.006A5,5,-326.58034028712535,0,1,557.307,359.165L552.859,314.037A5,5,115.53498081438804,0,1,555.248,309.269Z" fill="var(--color-purple)" />
    <path d="M601.543,377.55A5,5,147.7768927999872,0,1,600.991,380.27L573.975,431.972A5,5,-326.9113477675158,0,1,564.567,430.136L559.963,382.327A5,5,146.7205180083704,0,1,560.516,379.518L588.193,326.98A5,5,32.41393695915821,0,1,597.6,328.906Z" fill="var(--color-purple)" />
    <path d="M562.505,451.464A5,5,146.95704089216161,0,1,561.967,454.257L554.71,468.247A5,5,-276.7302012267639,0,1,547.465,470.083L525.302,455.051A5,5,96.3648972488699,0,1,523.685,448.582L548.384,401.701A5,5,33.40826308573241,0,1,557.783,403.541Z" fill="var(--color-purple)" />
    <path d="M514.701,547.12A5,5,-272.0189062178889,0,1,507.816,549.209L483.562,535.691A5,5,91.27170423947064,0,1,481.575,528.987L516.068,463.734A5,5,84.0676121659659,0,1,523.269,461.915L545.683,476.916A5,5,96.67958981245238,0,1,547.353,483.35Z" fill="var(--color-purple)" />
    <path d="M478.687,526.28A5,5,-270.40057496334543,0,1,471.897,528.342L469.262,526.923A5,5,106.42799909846208,0,1,466.74,521.491L483.375,442.408A5,5,68.04465242494283,0,1,491.052,439.284L512.186,453.45A5,5,95.92792343994054,0,1,513.82,459.944Z" fill="var(--color-purple)" />
    <path d="M427.275,506.573A5,5,104.98178328534624,0,1,424.638,501.084L442.559,415.705A5,5,67.70649898507207,0,1,450.259,412.594L478.983,432.076A5,5,112.26545819287257,0,1,481.069,437.244L464.051,518.129A5,5,-284.95374046329084,0,1,456.9,521.561Z" fill="var(--color-purple)" />
    <path d="M449.149,401.174A5,5,113.03439215784452,0,1,447.1,396.051L451.871,372.974A5,5,133.10064306673098,0,1,454.161,369.719L491.945,346.638A5,5,46.69582295868672,0,1,499.444,351.935L485.551,417.951A5,5,-292.8308581832622,0,1,477.81,421.032Z" fill="var(--color-purple)" />
    <path d="M473.09,265.332A5,5,128.15733722822597,0,1,475.74,261.855L513.899,242.603A5,5,51.277247489018734,0,1,521.043,248.102L503.52,330.894A5,5,-226.98251819898886,0,1,501.209,334.141L463.162,357.063A5,5,47.54793348174415,0,1,455.681,351.793Z" fill="var(--color-purple)" />
    <path d="M527.049,238.842A5,5,129.39321051601567,0,1,529.638,235.442L534.462,232.94A5,5,68.34857237392119,0,1,541.739,236.877L548.423,303.153A5,5,115.35789041436593,0,1,546.032,307.935L517.308,325.273A5,5,46.90032669569723,0,1,509.833,319.955Z" fill="var(--color-purple)" />
  </g>
  <g>
    <path d="M354.399,541.919A3,3,152.1504865289903,0,1,355.823,542.154L383.862,554.223A3,3,37.97822960959624,0,1,383.437,559.881L335.127,572.545A3,3,-198.65807723524566,0,1,334.158,572.636L267.123,567.985A3,3,70.27344480440254,0,1,264.583,563.787L270.549,550.192A3,3,118.2559162922566,0,1,273.058,548.407Z" fill="var(--color-yellow)" />
    <path d="M414.931,511.204A3,3,147.59292038402793,0,1,416.573,511.533L445.303,526.529A3,3,32.12436561018141,0,1,444.153,532.179L361.929,538.74A3,3,-208.1211384174983,0,1,360.491,538.5L327.806,524.248A3,3,28.40385242328896,0,1,328.752,518.509Z" fill="var(--color-yellow)" />
    <path d="M456.315,533.317A3,3,148.43153214599548,0,1,457.915,533.635L462.425,535.935A2.257,2.257,41.809537057800675,0,1,461.976,540.129L401.428,556.114A3,3,-218.3121464857845,0,1,399.464,555.964L375.263,545.43A3,3,28.071077281988316,0,1,376.223,539.688Z" fill="var(--color-yellow)" />
    <path d="M498.599,553.355A3,3,39.948201559502536,0,1,497.98,558.96L440.507,572.93A3,3,-217.39790451214637,0,1,438.591,572.761L411.992,561.066A3,3,38.4203170596163,0,1,412.439,555.417L470.376,540.234A3,3,139.02938589302752,0,1,472.465,540.446Z" fill="var(--color-yellow)" />
    <path d="M424.919,570.976A3,3,37.23127588879326,0,1,424.44,576.642L415.443,578.849A3,3,-197.69232078750522,0,1,414.524,578.928L359.216,575.148A3,3,18.611736090584838,0,1,358.659,569.254L396.467,559.333A3,3,141.84930880812712,0,1,398.422,559.483Z" fill="var(--color-yellow)" />
    <path d="M352.564,594.806A3,3,-197.74813680503942,0,1,351.643,594.89L297.871,591.403A3,3,18.325174232902853,0,1,297.308,585.507L336.167,575.373A3,3,161.487074937551,0,1,337.128,575.283L391.654,578.998A3,3,17.93588763458557,0,1,392.178,584.901Z" fill="var(--color-yellow)" />
    <path d="M273.118,589.477A3,3,-198.3047064197292,0,1,272.168,589.57L254.969,588.488A3,3,70.21387425277565,0,1,252.404,584.303L257.868,571.667A3,3,109.4787173826722,0,1,260.826,569.865L311.615,573.333A3,3,18.612114784281324,0,1,312.172,579.227Z" fill="var(--color-yellow)" />
    <path d="M169.048,583.474A3,3,80.49586683276523,0,1,166.305,579.806L169.416,566.286A3,3,99.01600631955388,0,1,172.545,563.966L247.802,569.152A3,3,71.23681490281926,0,1,250.364,573.303L245.032,586.045A3,3,-250.7486880551384,0,1,242.084,587.882Z" fill="var(--color-yellow)" />
    <path d="M174.36,562.077A2.744,2.744,82.54314165149195,0,1,171.86,558.795L172.032,557.944A3,3,106.04130076310442,0,1,174.732,555.549L256.695,548.946A3,3,62.629389242615346,0,1,259.702,553.097L254.451,565.609A3,3,-251.2138316572117,0,1,251.477,567.441Z" fill="var(--color-yellow)" />
    <path d="M175.03,533.296A3,3,103.29213900635865,0,1,177.756,530.76L266.766,523.628A3,3,62.1347894148116,0,1,269.762,527.804L262.314,545.11A3,3,-242.1164706536654,0,1,259.799,546.915L175.64,553.686A3,3,76.68954223249511,0,1,172.434,550.241Z" fill="var(--color-yellow)" />
    <path d="M280.242,524.329A3,3,119.01823073387786,0,1,282.731,522.576L308.496,520.471A3,3,152.0695912526799,0,1,309.925,520.705L342.727,534.803A3,3,27.858029811289057,0,1,341.783,540.55L275.371,545.892A3,3,61.05414820215318,0,1,272.397,541.665Z" fill="var(--color-yellow)" />
  </g>
  <g>
    <path d="M67.412,374.008A2,2,28.993946427531384,0,1,70.62,371.838L83.903,383.56A2,2,156.1298789842945,0,1,84.397,384.224L119.16,459.797A2,2,154.40440576350903,0,1,119.343,460.664L119.093,476.713A2,2,-329.0663641784388,0,1,115.362,477.683L86.682,428.089A2,2,-190.46186699689613,0,1,86.529,427.757Z" fill="var(--color-blue)" />
    <path d="M17.462,276.449A2,2,33.005675600509036,0,1,20.54,274.161L33.228,283.679A2,2,146.4925045123824,0,1,33.912,284.607L56.933,349.195A2,2,29.541673878008424,0,1,53.741,351.38L41.212,340.549A2,2,-209.03985399089984,0,1,40.642,339.724Z" fill="var(--color-blue)" />
    <path d="M37.048,289.538A1.101,1.101,34.236161642204195,0,1,38.735,288.28L41.201,290.084A2,2,150.9291623126538,0,1,41.837,290.861L76.845,366.804A2,2,24.38628827928704,0,1,73.72,369.154L62.059,359.065A2,2,-209.551612234145,0,1,61.483,358.223Z" fill="var(--color-blue)" />
    <path d="M63.661,305.148A2,2,149.41726723606925,0,1,64.337,305.957L101.921,388.153A2,2,24.38858560514438,0,1,98.789,390.494L82.544,376.352A2,2,-204.22482798587677,0,1,82.04,375.68L45.958,297.361A2,2,30.41897514466316,0,1,48.917,294.883Z" fill="var(--color-blue)" />
    <path d="M109.163,404.73A2,2,156.08658286066571,0,1,109.657,405.395L121.191,430.548A2,2,154.48901832328087,0,1,121.373,431.413L121.065,451.593A2,2,-334.38550909830116,0,1,117.248,452.4L89.73,392.676A2,2,23.809907914354536,0,1,92.87,390.34Z" fill="var(--color-blue)" />
    <path d="M165.186,525.798A2,2,146.2027120043829,0,1,165.344,526.95L162.859,542.489A2,2,-326.2030585861619,0,1,159.068,543.01L124.304,467.472A2,2,153.86224211160976,0,1,124.122,466.586L124.616,446.723A2,2,26.138104470169157,0,1,128.432,445.936Z" fill="var(--color-blue)" />
    <path d="M160.894,549.726A2,2,147.21677466129702,0,1,161.057,550.842L160.705,553.33A1.07,1.07,-321.9186427090751,0,1,158.719,553.715L123.391,492.566A2,2,148.6534838583349,0,1,123.123,491.519L123.449,477.464A2,2,26.048384189443173,0,1,127.266,476.674Z" fill="var(--color-blue)" />
    <path d="M158.772,573.04A2,2,-323.6474099977113,0,1,155.047,573.796L122.997,517.467A2,2,148.69468428971288,0,1,122.736,516.42L123.165,501.682A2,2,31.6531519391708,0,1,126.896,500.741L160.108,558.295A2,2,143.29957376882754,0,1,160.362,559.529Z" fill="var(--color-blue)" />
    <path d="M119.577,503.742A2,2,-329.1136107452463,0,1,115.84,504.693L109.658,493.863A2,2,-190.10002193601872,0,1,109.511,493.544L95.264,453.587A2,2,10.366562348101358,0,1,98.88,451.916L119.611,487.837A2,2,148.84707033316366,0,1,119.879,488.877Z" fill="var(--color-blue)" />
    <path d="M74.406,432.56A2,2,-189.86960224179117,0,1,74.261,432.248L59.717,392.155A2,2,10.011586401935935,0,1,63.33,390.474L85.11,428.274A2,2,169.69895265267635,0,1,85.261,428.6L99.404,468.21A2,2,10.159063187178837,0,1,95.785,469.877Z" fill="var(--color-blue)" />
    <path d="M50.077,365.181A2,2,-189.94819281630404,0,1,49.93,364.866L45.707,353.281A2,2,28.90508587577526,0,1,48.9,351.088L61.316,361.907A2,2,150.7137696992222,0,1,61.886,362.742L75.911,402.031A2,2,10.329337241306513,0,1,72.295,403.702Z" fill="var(--color-blue)" />
  </g>
  <g>
    <path d="M180.315,111.977A3,3,42.692300666161884,0,1,184.818,115.286L176.165,147.655A3,3,-211.02867688793012,0,1,175.351,149.039L116.387,205.99A3,3,-245.85267056260858,0,1,113.187,206.617L96.928,200.098A3,3,75.63282047798906,0,1,95.624,195.541L136.164,140.178A3,3,158.55622630638774,0,1,136.98,139.416Z" fill="var(--color-red)" />
    <path d="M256.187,25.474A3,3,44.85410252045809,0,1,260.787,28.572L254.445,59.671A3,3,-226.04760861273243,0,1,253.114,61.604L201.333,94.496A3,3,43.09462426892028,0,1,196.82,91.214L204.723,60.612A3,3,138.09888182335402,0,1,205.967,58.864Z" fill="var(--color-red)" />
    <path d="M247.486,68.667A2.703,2.703,46.60034075406459,0,1,251.585,71.47L250.561,76.706A3,3,-214.84660426682154,0,1,249.704,78.285L190.606,135.525A3,3,31.400797605569675,0,1,185.615,132.618L192.993,104.119A3,3,136.84546590718728,0,1,194.292,102.335Z" fill="var(--color-red)" />
    <path d="M242.403,125.229A3,3,-216.0655611665307,0,1,241.525,126.865L177.242,188.405A3,3,31.5851136565869,0,1,172.265,185.478L182.317,147.062A3,3,148.72470225265556,0,1,183.133,145.666L243.747,87.008A3,3,35.75574525728827,0,1,248.786,89.694Z" fill="var(--color-red)" />
    <path d="M163.026,201.042A3,3,-211.14362111270373,0,1,162.207,202.429L143.466,220.448A3,3,-245.68582661104656,0,1,140.272,221.07L119.509,212.761A3,3,65.87575767286928,0,1,118.537,207.82L168.345,159.615A3,3,30.95369005088098,0,1,173.329,162.546Z" fill="var(--color-red)" />
    <path d="M67.564,294.276A3,3,-261.0671602900671,0,1,63.672,294.516L47.073,282.003A3,3,81.02957058681484,0,1,46.795,277.45L108.473,217.849A3,3,113.04406322199824,0,1,111.727,217.243L132.215,225.913A3,3,66.99352648125401,0,1,133.132,230.832Z" fill="var(--color-red)" />
    <path d="M44.751,276.119A3,3,-259.4142901621356,0,1,40.929,276.407L39.643,275.494A3,3,89.14026970076439,0,1,38.961,271.274L85.52,207.769A3,3,103.45009871915376,0,1,89.102,206.777L103.998,213.038A3,3,66.82392174221745,0,1,104.92,217.961Z" fill="var(--color-red)" />
    <path d="M18.699,262.712A3,3,86.28719676236899,0,1,17.942,258.4L62.788,198.664A3,3,103.41177043944596,0,1,66.383,197.714L81.222,204.162A3,3,77.18299953296301,0,1,82.444,208.69L36.632,271.05A3,3,-266.8819667347779,0,1,32.572,271.785Z" fill="var(--color-red)" />
    <path d="M72.464,192.334A3,3,75.61742596637352,0,1,71.205,187.764L81.931,173.42A3,3,159.23602647841167,0,1,82.724,172.685L118.882,149.696A3,3,21.260416631272516,0,1,122.909,154.003L90.97,197.497A3,3,-256.1138690760577,0,1,87.409,198.495Z" fill="var(--color-red)" />
    <path d="M129.191,109.469A3,3,159.8080787289092,0,1,129.957,108.748L166.176,85.053A3,3,20.45589327015704,0,1,170.235,89.341L136.052,135.789A3,3,-201.15052666541794,0,1,135.248,136.541L99.278,159.455A3,3,20.886554666351714,0,1,95.258,155.135Z" fill="var(--color-red)" />
    <path d="M184.421,73.624A3,3,159.65422970692197,0,1,185.19,72.894L193.794,67.231A3,3,41.95612800969398,0,1,198.345,70.498L190.398,100.803A3,3,-222.80835833386732,0,1,189.108,102.572L153.842,125.037A3,3,21.19800061725135,0,1,149.812,120.73Z" fill="var(--color-red)" />
  </g>
  <!-- <g id="layer1" transform="translate(-50, -70) scale(2,2)"><g style="opacity:0.89999998"><g transform="translate(2.142857,2.142857)" id="g24289"><path d="M 156.74036,40.287001 L 87.692834,86.458152 L 29.251920,165.25005 L 54.505733,183.78994 L 145.74597,96.023963 L 156.74036,40.287001 z " style="opacity:0.60000002;fill:#c6c8d2;fill-opacity:1.0000000;fill-rule:evenodd;stroke:#4b4b4b;stroke-width:1.0000000px;stroke-linecap:butt;stroke-linejoin:bevel;stroke-opacity:1.0000000" id="path8253" /><path d="M 156.74035,40.526849 L 254.72515,64.622577 L 318.66063,131.26201 L 258.91369,161.24008 L 145.89391,95.728096 L 156.74035,40.526849 z " style="opacity:0.60000002;fill:#c1c8f2;fill-opacity:1.0000000;fill-rule:evenodd;stroke:#4b4b4b;stroke-width:1.0000000px;stroke-linecap:butt;stroke-linejoin:bevel;stroke-opacity:1.0000000" id="path8255" /><path d="M 29.134625,165.07149 L 54.505733,183.78994 L 107.18161,298.26369 L 102.81448,325.38987 L 58.041267,247.42955 L 29.134625,165.07149 z " style="opacity:0.60000002;fill:#c8c8c8;fill-opacity:1.0000000;fill-rule:evenodd;stroke:#4b4b4b;stroke-width:1.0000000px;stroke-linecap:butt;stroke-linejoin:bevel;stroke-opacity:1.0000000" id="path8257" /><path d="M 107.18161,298.26369 L 232.47115,287.83565 L 279.68310,311.75281 L 199.61056,331.59872 L 102.84513,325.35924 L 107.18161,298.26369 z " style="opacity:0.60000002;fill:#c3c8e6;fill-opacity:1.0000000;fill-rule:evenodd;stroke:#4b4b4b;stroke-width:1.0000000px;stroke-linecap:butt;stroke-linejoin:bevel;stroke-opacity:1.0000000" id="path8259" /><path d="M 258.58718,161.41865 L 318.80856,131.23138 L 325.55313,222.32368 L 279.76975,311.54361 L 232.68037,287.83565 L 258.58718,161.41865 z " style="opacity:0.60000002;fill:#bec8ff;fill-opacity:1.0000000;fill-rule:evenodd;stroke:#4b4b4b;stroke-width:1.0000000px;stroke-linecap:butt;stroke-linejoin:bevel;stroke-opacity:1.0000000" id="path8261" /><path d="M 146.10311,95.697458 L 258.79640,161.06151 L 232.61909,287.65708 L 107.36018,298.29432 L 54.505733,183.85122 L 146.10311,95.697458 z " style="opacity:0.60000002;fill:#c4c8e1;fill-opacity:1.0000000;fill-rule:evenodd;stroke:#4b4b4b;stroke-width:1.0000000px;stroke-linecap:butt;stroke-linejoin:bevel;stroke-opacity:1.0000000" id="path8263" /></g></g></g> -->
</svg>