<?xml version="1.0"?>
<svg xmlns="http://www.w3.org/2000/svg" width="620" height="620">
  <style>
    :root {
      --color-red: #f45e5e;
      --color-blue: #4591f5;
      --color-green: #54fd64;
      --color-yellow: #f0ff70;
    }
  </style>

  <g transform="translate(310, 310)">
    <!-- "frame" to figure out cubelets against. Delete or comment out below when done. -->
    <path d="M 0 -309.02 L 293.89 -95.11 L 181.64 250.37 L -181.64 250.37 L -293.89 -95.11 Z"
    style="fill:#ffffff;"/>
 </g>

  <!-- corner unrounded path -->
  <!-- M 310 0 L 437 94 L 310 186 L 183 94 Z -->

  <!-- edge unrounded path -->
  <!-- M 438 95 L 475 122 L 427 271 L 311 187 Z -->

  <!-- center unrounded path -->
  <!-- M 310 187 L 427 272 L 382 409 L 238 409 L 193 272 Z -->

  <g>
    <!-- U corner -->
    <g transform="translate(31, 12) scale(0.9, 0.9)">
      <path d="M304.051,4.403A10,10,106.98545805623698,0,1,315.949,4.403L426.023,85.875A10,10,72.4271981078548,0,1,425.94,102.012L315.867,181.75A10,10,-251.83985427194656,0,1,304.133,181.75L194.06,102.012A10,10,72.4271981078548,0,1,193.977,85.875Z" fill="var(--color-blue)" />
    </g>
    <!-- UR edge -->
    <g transform="translate(40, 20) scale(0.9, 0.9)">
      <path d="M432.112,99.265A10,10,107.96073201454696,0,1,443.873,99.286L469.159,117.738A10,10,108.2631175921655,0,1,472.783,128.882L431.225,257.886A10,10,-288.05349982186345,0,1,415.841,262.919L322.183,195.098A10,10,71.82965021515096,0,1,322.181,178.9Z" fill="var(--color-red)" />
    </g>
    <!-- R corner -->
    <g transform="rotate(72, 310, 310) translate(31, 12) scale(0.9, 0.9)">
      <path d="M304.051,4.403A10,10,106.98545805623698,0,1,315.949,4.403L426.023,85.875A10,10,72.4271981078548,0,1,425.94,102.012L315.867,181.75A10,10,-251.83985427194656,0,1,304.133,181.75L194.06,102.012A10,10,72.4271981078548,0,1,193.977,85.875Z" fill="var(--color-blue)" />
    </g>
    <!-- DR edge -->
    <g transform="rotate(72, 310, 310) translate(40, 20) scale(0.9, 0.9)">
      <path d="M432.112,99.265A10,10,107.96073201454696,0,1,443.873,99.286L469.159,117.738A10,10,108.2631175921655,0,1,472.783,128.882L431.225,257.886A10,10,-288.05349982186345,0,1,415.841,262.919L322.183,195.098A10,10,71.82965021515096,0,1,322.181,178.9Z" fill="var(--color-red)" />
    </g>
    <!-- DR corner -->
    <g transform="rotate(144, 310, 310) translate(31, 12) scale(0.9, 0.9)">
      <path d="M304.051,4.403A10,10,106.98545805623698,0,1,315.949,4.403L426.023,85.875A10,10,72.4271981078548,0,1,425.94,102.012L315.867,181.75A10,10,-251.83985427194656,0,1,304.133,181.75L194.06,102.012A10,10,72.4271981078548,0,1,193.977,85.875Z" fill="var(--color-blue)" />
    </g>
    <!-- D edge -->
    <g transform="rotate(144, 310, 310) translate(40, 20) scale(0.9, 0.9)">
      <path d="M432.112,99.265A10,10,107.96073201454696,0,1,443.873,99.286L469.159,117.738A10,10,108.2631175921655,0,1,472.783,128.882L431.225,257.886A10,10,-288.05349982186345,0,1,415.841,262.919L322.183,195.098A10,10,71.82965021515096,0,1,322.181,178.9Z" fill="var(--color-red)" />
    </g>
    <!-- DL corner -->
    <g transform="rotate(216, 310, 310) translate(31, 12) scale(0.9, 0.9)">
      <path d="M304.051,4.403A10,10,106.98545805623698,0,1,315.949,4.403L426.023,85.875A10,10,72.4271981078548,0,1,425.94,102.012L315.867,181.75A10,10,-251.83985427194656,0,1,304.133,181.75L194.06,102.012A10,10,72.4271981078548,0,1,193.977,85.875Z" fill="var(--color-blue)" />
    </g>
    <!-- DL edge -->
    <g transform="rotate(216, 310, 310) translate(40, 20) scale(0.9, 0.9)">
      <path d="M432.112,99.265A10,10,107.96073201454696,0,1,443.873,99.286L469.159,117.738A10,10,108.2631175921655,0,1,472.783,128.882L431.225,257.886A10,10,-288.05349982186345,0,1,415.841,262.919L322.183,195.098A10,10,71.82965021515096,0,1,322.181,178.9Z" fill="var(--color-red)" />
    </g>
    <!-- L corner -->
    <g transform="rotate(288, 310, 310) translate(31, 12) scale(0.9, 0.9)">
      <path d="M304.051,4.403A10,10,106.98545805623698,0,1,315.949,4.403L426.023,85.875A10,10,72.4271981078548,0,1,425.94,102.012L315.867,181.75A10,10,-251.83985427194656,0,1,304.133,181.75L194.06,102.012A10,10,72.4271981078548,0,1,193.977,85.875Z" fill="var(--color-blue)" />
    </g>
    <!-- UL edge -->
    <g transform="rotate(288, 310, 310) translate(40, 20) scale(0.9, 0.9)">
      <path d="M432.112,99.265A10,10,107.96073201454696,0,1,443.873,99.286L469.159,117.738A10,10,108.2631175921655,0,1,472.783,128.882L431.225,257.886A10,10,-288.05349982186345,0,1,415.841,262.919L322.183,195.098A10,10,71.82965021515096,0,1,322.181,178.9Z" fill="var(--color-red)" />
    </g>
    <!-- center -->
    <g transform="translate(32, 32) scale(0.9, 0.9)">
      <path d="M301.184,193.405A15,15,108.00351024512261,0,1,318.816,193.405L418.153,265.573A15,15,107.81459172172563,0,1,423.587,282.389L385.389,398.681A15,15,-251.81634684428695,0,1,371.139,409L248.861,409A15,15,-251.81634684428695,0,1,234.611,398.681L196.413,282.389A15,15,107.81459172172563,0,1,201.847,265.573Z" fill="var(--color-green)" />
    </g>
  </g>
</svg>