<?xml version="1.0"?>
<svg xmlns="http://www.w3.org/2000/svg" width="620" height="620">
  <style>
    :root {
      --color-red: #f45e5e;
      --color-blue: #4591f5;
      --color-green: #54fd64;
      --color-yellow: #f0ff70;
    }
  </style>



  <!-- corner unrounded path -->
  <!-- M 310 0 L 437 94 L 310 186 L 183 94 Z -->

  <!-- edge unrounded path -->
  <!-- M 438 95 L 475 122 L 427 271 L 311 187 Z -->

  <!-- center unrounded path -->
  <!-- M 310 187 L 427 272 L 382 409 L 238 409 L 193 272 Z -->
   <g transform="translate(310, 310)">
     <!-- "frame" to figure out cubelets against. Delete or comment out below when done. -->
     <path d="M 0 -309.02 L 293.89 -95.11 L 181.64 250.37 L -181.64 250.37 L -293.89 -95.11 Z"
    style="fill:#ffffff;"/>
 </g>
  

<g>
	 <!-- U corner -->
	 <g transform="translate(31, 12) scale(0.9, 0.9)">
		 <path d="M304.051,4.403A10,10,106.98545805623698,0,1,315.949,4.403L426.023,85.875A10,10,72.4271981078548,0,1,425.94,102.012L315.867,181.75A10,10,-251.83985427194656,0,1,304.133,181.75L194.06,102.012A10,10,72.4271981078548,0,1,193.977,85.875Z" fill="var(--color-blue)" />
	 </g>
	 <!-- UR edge -->
	 <g transform="translate(40, 20) scale(0.9, 0.9)">
		 <path d="M432.112,99.265A10,10,107.96073201454696,0,1,443.873,99.286L469.159,117.738A10,10,108.2631175921655,0,1,472.783,128.882L431.225,257.886A10,10,-288.05349982186345,0,1,415.841,262.919L322.183,195.098A10,10,71.82965021515096,0,1,322.181,178.9Z" fill="var(--color-red)" />
	 </g>
	 <!-- R corner -->
	 <g transform="rotate(72, 310, 310) translate(31, 12) scale(0.9, 0.9)">
		 <path d="M304.051,4.403A10,10,106.98545805623698,0,1,315.949,4.403L426.023,85.875A10,10,72.4271981078548,0,1,425.94,102.012L315.867,181.75A10,10,-251.83985427194656,0,1,304.133,181.75L194.06,102.012A10,10,72.4271981078548,0,1,193.977,85.875Z" fill="var(--color-blue)" />
	 </g>
	 <!-- DR edge -->
	 <g transform="rotate(72, 310, 310) translate(40, 20) scale(0.9, 0.9)">
		 <path d="M432.112,99.265A10,10,107.96073201454696,0,1,443.873,99.286L469.159,117.738A10,10,108.2631175921655,0,1,472.783,128.882L431.225,257.886A10,10,-288.05349982186345,0,1,415.841,262.919L322.183,195.098A10,10,71.82965021515096,0,1,322.181,178.9Z" fill="var(--color-red)" />
	 </g>
	 <!-- DR corner -->
	 <g transform="rotate(144, 310, 310) translate(31, 12) scale(0.9, 0.9)">
		 <path d="M304.051,4.403A10,10,106.98545805623698,0,1,315.949,4.403L426.023,85.875A10,10,72.4271981078548,0,1,425.94,102.012L315.867,181.75A10,10,-251.83985427194656,0,1,304.133,181.75L194.06,102.012A10,10,72.4271981078548,0,1,193.977,85.875Z" fill="var(--color-blue)" />
	 </g>
	 <!-- D edge -->
	 <g transform="rotate(144, 310, 310) translate(40, 20) scale(0.9, 0.9)">
		 <path d="M432.112,99.265A10,10,107.96073201454696,0,1,443.873,99.286L469.159,117.738A10,10,108.2631175921655,0,1,472.783,128.882L431.225,257.886A10,10,-288.05349982186345,0,1,415.841,262.919L322.183,195.098A10,10,71.82965021515096,0,1,322.181,178.9Z" fill="var(--color-red)" />
	 </g>
	 <!-- DL corner -->
	 <g transform="rotate(216, 310, 310) translate(31, 12) scale(0.9, 0.9)">
		 <path d="M304.051,4.403A10,10,106.98545805623698,0,1,315.949,4.403L426.023,85.875A10,10,72.4271981078548,0,1,425.94,102.012L315.867,181.75A10,10,-251.83985427194656,0,1,304.133,181.75L194.06,102.012A10,10,72.4271981078548,0,1,193.977,85.875Z" fill="var(--color-blue)" />
	 </g>
	 <!-- DL edge -->
	 <g transform="rotate(216, 310, 310) translate(40, 20) scale(0.9, 0.9)">
		 <path d="M432.112,99.265A10,10,107.96073201454696,0,1,443.873,99.286L469.159,117.738A10,10,108.2631175921655,0,1,472.783,128.882L431.225,257.886A10,10,-288.05349982186345,0,1,415.841,262.919L322.183,195.098A10,10,71.82965021515096,0,1,322.181,178.9Z" fill="var(--color-red)" />
	 </g>
	 <!-- L corner -->
	 <g transform="rotate(288, 310, 310) translate(31, 12) scale(0.9, 0.9)">
		 <path d="M304.051,4.403A10,10,106.98545805623698,0,1,315.949,4.403L426.023,85.875A10,10,72.4271981078548,0,1,425.94,102.012L315.867,181.75A10,10,-251.83985427194656,0,1,304.133,181.75L194.06,102.012A10,10,72.4271981078548,0,1,193.977,85.875Z" fill="var(--color-blue)" />
	 </g>
	 <!-- UL edge -->
	 <g transform="rotate(288, 310, 310) translate(40, 20) scale(0.9, 0.9)">
		 <path d="M432.112,99.265A10,10,107.96073201454696,0,1,443.873,99.286L469.159,117.738A10,10,108.2631175921655,0,1,472.783,128.882L431.225,257.886A10,10,-288.05349982186345,0,1,415.841,262.919L322.183,195.098A10,10,71.82965021515096,0,1,322.181,178.9Z" fill="var(--color-red)" />
	 </g>
	 <!-- center -->
	 <g transform="translate(32, 32) scale(0.9, 0.9)">
		 <path d="M301.184,193.405A15,15,108.00351024512261,0,1,318.816,193.405L418.153,265.573A15,15,107.81459172172563,0,1,423.587,282.389L385.389,398.681A15,15,-251.81634684428695,0,1,371.139,409L248.861,409A15,15,-251.81634684428695,0,1,234.611,398.681L196.413,282.389A15,15,107.81459172172563,0,1,201.847,265.573Z" fill="var(--color-green)" />
	 </g>
 </g>

    <!-- <g
     id="layer1" transform="translate(-50, -70) scale(2,2)">
    <g
       style="opacity:0.89999998">
      <g
         transform="translate(2.142857,2.142857)"
         id="g24289">
        <path
           d="M 156.74036,40.287001 L 87.692834,86.458152 L 29.251920,165.25005 L 54.505733,183.78994 L 145.74597,96.023963 L 156.74036,40.287001 z "
           style="opacity:0.60000002;fill:#c6c8d2;fill-opacity:1.0000000;fill-rule:evenodd;stroke:#4b4b4b;stroke-width:1.0000000px;stroke-linecap:butt;stroke-linejoin:bevel;stroke-opacity:1.0000000"
           id="path8253" />
        <path
           d="M 156.74035,40.526849 L 254.72515,64.622577 L 318.66063,131.26201 L 258.91369,161.24008 L 145.89391,95.728096 L 156.74035,40.526849 z "
           style="opacity:0.60000002;fill:#c1c8f2;fill-opacity:1.0000000;fill-rule:evenodd;stroke:#4b4b4b;stroke-width:1.0000000px;stroke-linecap:butt;stroke-linejoin:bevel;stroke-opacity:1.0000000"
           id="path8255" />
        <path
           d="M 29.134625,165.07149 L 54.505733,183.78994 L 107.18161,298.26369 L 102.81448,325.38987 L 58.041267,247.42955 L 29.134625,165.07149 z "
           style="opacity:0.60000002;fill:#c8c8c8;fill-opacity:1.0000000;fill-rule:evenodd;stroke:#4b4b4b;stroke-width:1.0000000px;stroke-linecap:butt;stroke-linejoin:bevel;stroke-opacity:1.0000000"
           id="path8257" />
        <path
           d="M 107.18161,298.26369 L 232.47115,287.83565 L 279.68310,311.75281 L 199.61056,331.59872 L 102.84513,325.35924 L 107.18161,298.26369 z "
           style="opacity:0.60000002;fill:#c3c8e6;fill-opacity:1.0000000;fill-rule:evenodd;stroke:#4b4b4b;stroke-width:1.0000000px;stroke-linecap:butt;stroke-linejoin:bevel;stroke-opacity:1.0000000"
           id="path8259" />
        <path
           d="M 258.58718,161.41865 L 318.80856,131.23138 L 325.55313,222.32368 L 279.76975,311.54361 L 232.68037,287.83565 L 258.58718,161.41865 z "
           style="opacity:0.60000002;fill:#bec8ff;fill-opacity:1.0000000;fill-rule:evenodd;stroke:#4b4b4b;stroke-width:1.0000000px;stroke-linecap:butt;stroke-linejoin:bevel;stroke-opacity:1.0000000"
           id="path8261" />
        <path
           d="M 146.10311,95.697458 L 258.79640,161.06151 L 232.61909,287.65708 L 107.36018,298.29432 L 54.505733,183.85122 L 146.10311,95.697458 z "
           style="opacity:0.60000002;fill:#c4c8e1;fill-opacity:1.0000000;fill-rule:evenodd;stroke:#4b4b4b;stroke-width:1.0000000px;stroke-linecap:butt;stroke-linejoin:bevel;stroke-opacity:1.0000000"
           id="path8263" />
      </g>
    </g>
  </g> -->
</svg>