<?xml version="1.0"?>
<svg xmlns="http://www.w3.org/2000/svg" width="620" height="620">
  <style>
    :root {
      --color-red: #f45e5e;
      --color-blue: #4591f5;
      --color-green: #54fd64;
      --color-yellow: #f0ff70;
      --color-orange: #f8b468;
    }
  </style>
  <!-- corner unrounded path -->
  <!-- M 310 0 L 437 94 L 310 186 L 183 94 Z -->
  <!-- edge unrounded path -->
  <!-- M 438 95 L 475 122 L 427 271 L 311 187 Z -->
  <!-- center unrounded path -->
  <!-- M 310 187 L 427 272 L 382 409 L 238 409 L 193 272 Z -->
  <!-- 
    This a "frame" (white outlined plain pentagon) to figure out cubelets against.
    Delete or comment out below when done. 
  -->
  <!-- <g transform="translate(310, 310)">
    <path d="M 0 -309.02 L 293.89 -95.11 L 181.64 250.37 L -181.64 250.37 L -293.89 -95.11 Z" style="fill:#ffffff;" />
  </g> -->
  <!--
    These are the individual paths for each piece on the pentagonal face.
    They have been "pre-transformed" so they are just a flat list of paths,
    no groups with translations, rotations, or scale applied.

    This allows us to pass the paths into some other util to perform a perspective
    translation (which SVG doesn't natively support) and then get out another set
    of paths which we can hardcode for each face of the isometric dodecahedron.

    These paths below have not yet been rounded (via svg-round-corners). I'll have to
    do that after the perspective transformation since it's difficult to handle arcs.
  -->
  <!-- <g>
    <path d="M 310.0,12.0 L 424.3,96.6 L 310.0,179.4 L 195.7,96.6 M 195.7,96.6 L 310.0,12.0" fill="var(color-orange)" />
    <path d="M 434.2,105.5 L 467.5,129.8 L 424.3,263.9 L 319.9,188.3 M 319.9,188.3 L 434.2,105.5" fill="var(color-orange)" />
    <path d="M 593.4148418559557,217.91293567626565 L 548.2761030344423,352.76153321292225 L 434.20798102814706,269.64238053463185 L 477.6348181203292,135.35001358785016 M 477.6348181203292,135.35001358785019 L 593.4148418559557,217.91293567626565" fill="var(color-orange)" />
    <path d="M 542.8709682837274,364.9272439741813 L 530.0505608504409,404.10653893012113 L 389.1643478582631,404.46007637185096 L 428.80284627743214,281.8080912958909 M 428.8028462774322,281.80809129589096 L 542.8709682837274,364.92724397418135" fill="var(color-orange)" />
    <path d="M 485.16000518315707,551.0870643237342 L 342.9627303821573,549.8280809366435 L 386.764753949397,415.6576194653681 L 527.9040152962702,415.46037226258403 M 527.9040152962702,415.4603722625841 L 485.16000518315707,551.0870643237342" fill="var(color-orange)" />
    <path d="M 329.7221733924423,548.4469036844018 L 288.4987258490495,548.3610396224301 L 244.62625767362653,414.47953777771477 L 373.524196959682,414.27644221312653 M 373.524196959682,414.2764422131266 L 329.7221733924423,548.446903684402" fill="var(color-orange)" />
    <path d="M 134.83999481684305,551.0870643237344 L 92.09598470372975,415.4603722625841 L 233.23524605060302,415.65761946536816 L 277.03726961784275,549.8280809366435 L 134.83999481684305,551.0870643237344" fill="var(color-orange)" />
    <path d="M 89.31800520482079,402.4410470149516 L 76.66092092284214,363.208685150301 L 190.43245741226048,280.1118291036554 L 230.4572665516941,402.6382942177356 M 230.45726655169403,402.6382942177356 L 89.31800520482074,402.44104701495155" fill="var(color-orange)" />
    <path d="M 26.585158144044215,217.91293567626573 L 142.3651818796707,135.35001358785019 L 185.79201897185294,269.6423805346319 L 71.72389696555777,352.76153321292236 M 71.72389696555777,352.7615332129223 L 26.585158144044215,217.91293567626573" fill="var(color-orange)" />
    <path d="M 153.88885311900953,128.6848053264652 L 187.2897923776675,104.52373629714779 L 301.4769370558499,187.04855674677884 L 197.3156902111918,262.97717227324694 M 197.3156902111918,262.9771722732469 L 153.88885311900955,128.68480532646515" fill="var(color-orange)" />
    <path d="M 311.0,200.3 L 416.3,276.8 L 375.8,400.1 L 246.2,400.1 L 205.7,276.8 L 311.0,200.3" fill="var(color-orange)" />
  </g> -->

  <g>
    <path d="M 247.0159294519052,133.5097920413752 L 334.08551437426746,184.73055910988205 L 261.1665015854491,252.04009539769135 L 175.248554577759,202.07034353322854 L 247.0159294519052,133.5097920413752" fill="var(--color-orange)" />
<path d="M 341.8050520751313,190.3146706019302 L 367.3488187773557,205.11241323125526 L 348.1812304126939,303.7724646480207 L 268.7987178812331,257.6166980805879 L 341.8050520751313,190.3146706019302" fill="var(--color-orange)" />
<path d="M 464.3723241326233,258.7956112377222 L 443.42394837096293,358.54135269082116 L 355.63631402390945,307.1589757569928 L 374.98400192308884,208.30743284657538 M 374.98400192308884,208.30743284657544 L 464.3723241326233,258.7956112377222" fill="var(--color-orange)" />
<path d="M 440.59201569959777,367.59377310957393 L 434.7490268788327,396.3974646479017 L 335.3363172742747,405.7909994092036 L 352.8551861826021,316.18184874557653 M 352.8551861826021,316.1818487455766 L 440.59201569959777,367.59377310957404" fill="var(--color-orange)" />
<path d="M 415.20469555970595,503.7311131126088 L 315.26009218946945,511.20868768353023 L 334.59617389023373,413.8652946324151 L 434.1734922936679,404.6314621513755 L 415.20469555970595,503.7311131126088" fill="var(--color-orange)" />
<path d="M 305.92636528186995,511.0100314306085 L 277.30460024184606,513.3510743731971 L 235.73680871299783,422.0557597432526 L 325.2157384741028,413.7350833580628 M 325.2157384741028,413.7350833580629 L 305.92636528186995,511.0100314306085" fill="var(--color-orange)" />
<path d="M 171.99203955271992,524.1056206972149 L 131.51612812193713,432.26837945547123 L 227.98705493062067,423.59905011181826 L 269.49465942877276,515.0457652516242 L 171.99203955271992,524.1056206972149" fill="var(--color-orange)" />
<path d="M 128.53406672296296,423.38105734427853 L 116.64646973239213,396.8778737733295 L 187.15083549470833,331.34596559995816 L 224.9783412859956,414.64420457619536 M 224.97834128599555,414.64420457619536 L 128.5340667229629,423.38105734427853" fill="var(--color-orange)" />
<path d="M 70.53696706204462,299.10646859985064 L 142.03700067751598,233.23005420715833 L 183.0861614161337,324.32033178712044 L 112.42197365969466,389.9240282936758 L 70.53696706204462,299.10646859985064" fill="var(--color-orange)" />
<path d="M 149.3393030463417,227.71234692994472 L 170.1508890201526,208.2722691281294 L 255.89403624299038,258.06369386283205 L 190.42522359659333,318.857838196807 M 190.42522359659333,318.85783819680694 L 149.33930304634174,227.7123469299447" fill="var(--color-orange)" />
<path d="M 263.6250776943106,266.74317266024326 L 343.6426450504188,313.494344722098 L 325.6164163319231,403.5685148260626 L 235.61165632811745,411.86428037886816 L 197.34747690540567,327.98585564954516 L 263.6250776943106,266.74317266024326" fill="var(--color-orange)" />
  </g>

  <g>
  <path d="M 272.2619424095398,20.07552679507826 L 352.15649108452135,39.327303343591964 L 347.80554247774444,78.58623297773536 L 264.14389915482235,60.016831510450594 L 272.2619424095398,20.07552679507826" fill="var(--color-orange)" />
<path d="M 359.5746715858564,41.47315388387824 L 381.825205993224,46.753517962822706 L 427.76020486688185,96.75669870238667 L 355.63641961552594,80.76613456873524 L 359.5746715858564,41.47315388387824" fill="var(--color-orange)" />
<path d="M 461.3551755185716,64.79227257385034 L 508.51521408475526,114.43926500491703 L 433.7572507124629,97.72982370713689 L 387.71779804726214,47.73251859920232 M 387.71779804726214,47.732518599202336 L 461.3551755185716,64.79227257385034" fill="var(--color-orange)" />
<path d="M 512.5370927066659,119.24251513934678 L 527.0680109421297,134.41866472521176 L 482.99176275958206,151.90248650932136 L 437.6013306632223,102.59787306354737 M 437.6013306632224,102.5978730635474 L 512.5370927066659,119.24251513934678" fill="var(--color-orange)" />
<path d="M 585.3483508235739,193.8561322447236 L 541.2613082326176,214.80099232378416 L 487.69356046850595,156.4131221169996 L 531.8039220776183,138.6897602424147 M 531.8039220776183,138.68976024241474 L 585.3483508235739,193.8561322447236" fill="var(--color-orange)" />
<path d="M 536.2554716413665,216.3566818199757 L 522.580842533653,223.02468110450116 L 437.74726564595716,175.64933480727072 L 482.63198481142604,157.64077241232508 L 536.2554716413665,216.35668181997573" fill="var(--color-orange)" />
<path d="M 469.2232116112607,251.20531571219956 L 378.9438943700181,199.71731861001405 L 434.1596346269576,177.79257078086533 L 519.4907646096167,225.53139554688653 L 469.2232116112607,251.20531571219956" fill="var(--color-orange)" />
<path d="M 370.900530070566,194.60017939787255 L 344.96541076169325,179.92675184326137 L 349.64952275759146,130.00391587890803 L 426.4861158194099,172.97888967850494 L 370.90053007056594,194.6001793978725" fill="var(--color-orange)" />
<path d="M 248.36451064340625,126.53481959970632 L 259.689733367666,79.96096240873437 L 342.6360565502478,126.5100088224022 L 337.40647073229235,176.2719463099623 M 337.4064707322923,176.2719463099623 L 248.36451064340625,126.53481959970632" fill="var(--color-orange)" />
<path d="M 261.47804172435536,76.20435851389043 L 264.2997131699597,63.75993370306411 L 348.1483358267202,82.2182352938971 L 343.9781711164435,122.4717129230908 M 343.97817111644343,122.47171292309078 L 261.4780417243553,76.20435851389041" fill="var(--color-orange)" />
<path d="M 357.9003186374755,86.01044488569958 L 431.05611559889456,102.17425110642773 L 476.4193927522793,152.0029856621029 L 431.0167054123458,169.69426933069474 L 354.07896769194093,126.77409929907456 L 357.9003186374755,86.01044488569958" fill="var(--color-orange)" />
  </g>
  
  <g>
  <path d="M 588.4233844217171,203.15476371134088 L 593.722089868636,278.7294651678553 L 552.2940123584643,303.4790504735741 L 544.7517446165502,226.67796301912708 L 588.4233844217171,203.15476371134088" fill="var(--color-orange)" />
<path d="M 593.8388191808127,285.92648135988026 L 595.3771421411858,306.6012965452756 L 558.9378555643605,375.73765816092714 L 552.547242473007,310.89970923696256 L 593.8388191808127,285.92648135988026" fill="var(--color-orange)" />
<path d="M 601.6584689202577,378.994319263066 L 566.1847204759608,446.88575767050855 L 559.8207960573252,380.8380448751284 L 596.2146359240323,311.75992604491324 L 601.6584689202577,378.994319263066" fill="var(--color-orange)" />
<path d="M 562.6520942222957,452.9358025945033 L 552.1225069619609,473.24194599865245 L 521.5976073766499,452.5417396731605 L 556.1476869478098,386.96344595470316 L 562.6520942222957,452.9358025945033" fill="var(--color-orange)" />
<path d="M 512.3379943041574,551.7269972701904 L 479.2914271055984,533.3064265391971 L 518.6627202285896,458.82692358995246 L 549.3759537297475,479.38554311243246 M 549.3759537297475,479.3855431124326 L 512.3379943041574,551.7269972701904" fill="var(--color-orange)" />
<path d="M 476.325411920962,530.7258668364702 L 465.9730501728802,525.1495532206771 L 484.90227806552366,435.16113640818963 L 515.929490563228,455.96004444933703 L 476.325411920962,530.7258668364702" fill="var(--color-orange)" />
<path d="M 423.845272168069,504.8417952835766 L 444.0917541810522,408.41155503191595 L 481.7591699084553,433.95762139546594 L 462.70628017715666,524.4979081846183 L 423.845272168069,504.8417952835766" fill="var(--color-orange)" />
<path d="M 446.43305079323534,399.28983576086557 L 452.3103974788158,370.8546231542375 L 501.82925027783455,340.59966618187315 L 484.00456959372866,425.3150053683082 L 446.43305079323545,399.28983576086557" fill="var(--color-orange)" />
<path d="M 473.5680730823074,262.9498805499392 L 523.2042551443387,237.91227119432605 L 503.06636107851017,333.0194188045388 L 453.4448910670685,362.9222869470442 M 453.44489106706857,362.9222869470442 L 473.5680730823074,262.9498805499392" fill="var(--color-orange)" />
<path d="M 527.5434743825798,236.52735429995934 L 541.0021771736665,229.55292198196886 L 548.7436256336671,306.2991588035361 L 507.4429387597381,331.234024829965 L 527.5434743825798,236.5273542999593" fill="var(--color-orange)" />
<path d="M 547.9810309707873,316.2787793727913 L 554.546292682775,381.84068783979154 L 519.4907217619535,447.85340643076614 L 488.53640365856853,426.4583030820344 L 506.36582960142624,341.66121498774123 L 547.9810309707873,316.2787793727913" fill="var(--color-orange)" />
  </g>

  <g>
  <path d="M 415.7993958222904,511.12793345694706 L 454.54254203189356,531.3542791837245 L 361.175382291132,538.7992543022885 L 316.9401488728153,519.5055637276463 L 415.7993958222904,511.12793345694706" fill="var(--color-orange)" />
<path d="M 457.1603887836522,533.2509107687312 L 467.689709413795,538.6244818570809 L 400.41871741134463,556.3804761955755 L 364.2581549846981,540.6392616644582 L 457.1603887836522,533.2509107687312" fill="var(--color-orange)" />
<path d="M 506.00121607384494,557.007380208817 L 439.52497146636244,573.1673039818769 L 404.1133876193117,557.5993050854979 L 471.4610222818957,539.946784356207 L 506.00121607384494,557.007380208817" fill="var(--color-orange)" />
<path d="M 433.08966181745086,574.5161801329315 L 414.99295399896,578.9647963337719 L 340.9470558036127,573.8982039226977 L 397.47344734862656,559.0681854610982 M 397.4734473486266,559.0681854610982 L 433.08966181745086,574.5161801329315" fill="var(--color-orange)" />
<path d="M 352.1076203432129,594.9200003627334 L 279.31080356241034,590.2019646927006 L 336.63863512074914,575.2451257664038 L 410.6247819418428,580.2908354808854 L 352.1076203432129,594.9200003627334" fill="var(--color-orange)" />
<path d="M 272.65305537595935,589.6010940154987 L 250.7130945734172,588.2156214745295 L 258.71301659084304,569.7244652667931 L 329.88475545097776,574.5795026413019 M 329.8847554509777,574.5795026413019 L 272.65305537595935,589.6010940154988" fill="var(--color-orange)" />
<path d="M 165.51284511047638,583.2559307986211 L 169.99036214361476,563.7862588939922 L 251.9804657502248,569.4394031082703 L 244.21435752448537,588.0062081973479 L 165.51284511047638,583.2559307986211" fill="var(--color-orange)" />
<path d="M 171.2413318571765,561.8552730135035 L 172.48315311176515,555.7266872628838 L 261.6115375111278,548.5500482138547 L 253.61803212991325,567.5863970637461 M 253.61803212991322,567.5863970637461 L 171.24133185717648,561.8552730135035" fill="var(--color-orange)" />
<path d="M 175.3936238273527,530.9474222035775 L 271.7300400841207,523.2317150579141 L 261.6011052963311,546.7733927693025 L 171.8622831881017,553.9910533531028 L 175.3936238273527,530.9474222035775" fill="var(--color-orange)" />
<path d="M 280.96810499596313,522.7186845520326 L 309.23577754403175,520.405099213224 L 353.8367711715568,539.5765403943137 L 270.2953537063643,546.2975035482842 L 280.96810499596313,522.7186845520326" fill="var(--color-orange)" />
<path d="M 355.42153549579854,542.0566661623185 L 392.11746024297287,557.8537231184756 L 334.9179943629722,572.8364522236113 L 263.188695236545,567.8641042216877 L 271.59824447635424,548.7449137405476 L 355.42153549579854,542.0566661623185" fill="var(--color-orange)" />
  </g>

  <g>
  <path d="M 15.141805821293401,270.10996591440176 L 33.70670217572329,284.0362525701258 L 59.48200861104283,356.3397150118497 L 40.816971560582594,340.2140111822448 L 15.141805821293401,270.10996591440176" fill="var(--color-orange)" />
<path d="M 35.85119400015681,286.1669554630299 L 41.619176093348976,290.38517436839294 L 80.7186903070904,375.20674949950853 L 61.65733497043909,358.72162675986345 L 35.85119400015681,286.1669554630299" fill="var(--color-orange)" />
<path d="M 64.11162962402454,305.4559721921109 L 105.76990115101891,396.5749329391443 L 82.22014193452549,376.06573911270624 L 42.88498782850067,290.6750109705831 M 42.88498782850068,290.6750109705831 L 64.11162962402454,305.4559721921109" fill="var(--color-orange)" />
<path d="M 109.48392768519255,405.00662603739994 L 121.38186455516573,430.96216447618946 L 120.92748936011887,460.38711489124915 L 85.76237018329701,384.0564951649719 M 85.76237018329702,384.0564951649719 L 109.48392768519258,405.00662603739994" fill="var(--color-orange)" />
<path d="M 165.44149455963847,526.3484642684554 L 161.81613455524123,548.9852517835174 L 124.11284666307033,467.0542591055904 L 124.82503034073447,438.11236170504026 M 124.82503034073449,438.11236170504037 L 165.44149455963847,526.3484642684554" fill="var(--color-orange)" />
<path d="M 161.14277993600842,550.2552336081377 L 160.26885096000169,556.399932492169 L 123.10924249205924,492.08362294005764 L 123.65326527245908,468.8158788942422 M 123.6532652724591,468.8158788942422 L 161.14277993600848,550.2552336081377" fill="var(--color-orange)" />
<path d="M 158.05961933153313,579.085973181318 L 122.72281825044094,516.983706611373 L 123.37422782482199,494.6262299929251 L 160.4445282665683,558.8747865732507 L 158.05961933153313,579.085973181318" fill="var(--color-orange)" />
<path d="M 119.42616088044049,510.98172371035287 L 109.57040288556948,493.70800335591804 L 87.85528127792126,432.81787845124 L 119.88605059252134,488.32189181487763 M 119.88605059252133,488.3218918148776 L 119.42616088044048,510.98172371035287" fill="var(--color-orange)" />
<path d="M 74.32113235385891,432.41440693866326 L 51.927254635381054,370.6906583342636 L 85.2016083169471,428.4285474076135 L 106.9730744961403,489.39975837239257 M 106.97307449614028,489.3997583723925 L 74.32113235385891,432.41440693866326" fill="var(--color-orange)" />
<path d="M 49.98827896750272,365.0338707221996 L 43.05435124474797,345.9881908803593 L 61.710884044862176,362.25339028081453 L 83.3521164927564,422.8679884532448 M 83.35211649275638,422.8679884532448 L 49.9882789675027,365.0338707221996" fill="var(--color-orange)" />
<path d="M 65.06616342682669,367.0132203482535 L 84.48676546048684,384.15946204082024 L 119.64121421143922,460.5718345587514 L 119.25340542704632,484.29278203283735 L 86.8440599703452,428.24158587819835 L 65.06616342682669,367.0132203482535" fill="var(--color-orange)" />
  </g>

  <g>
  <path d="M 262.2406904106463,21.452153532894233 L 254.1896714765933,60.91756632162598 L 194.92238640350274,98.57042502378825 L 205.01404800277064,59.50273397023069 L 262.2406904106463,21.452153532894233" fill="var(--color-orange)" />
<path d="M 252.785255709066,65.31192327044174 L 250.3780080631665,77.62928226566426 L 182.94232478536213,142.95274005570462 L 193.2890526125542,102.96510353554356 L 252.785255709066,65.31192327044174" fill="var(--color-orange)" />
<path d="M 242.2268506964996,126.19101821585768 L 169.5799703157045,195.73679949033524 L 182.5254323913428,146.24998205732277 L 250.42623281315852,80.54066137766927 M 250.4262328131585,80.54066137766928 L 242.2268506964996,126.19101821585768" fill="var(--color-orange)" />
<path d="M 162.80991571507656,201.8487442260917 L 142.0668883094666,221.78856289665362 L 115.2061856680134,211.0420190329137 L 176.12556179828434,152.08021212797104 M 176.1255617982843,152.08021212797107 L 162.8099157150765,201.8487442260917" fill="var(--color-orange)" />
<path d="M 65.72380076786402,296.0557345596446 L 44.269935243222385,279.88779713325084 L 109.90299066341686,216.4733131041504 L 136.38832629324074,227.6815956320434 M 136.3883262932407,227.6815956320435 L 65.72380076786402,296.0557345596446" fill="var(--color-orange)" />
<path d="M 42.95718365491853,277.8530322435 L 37.16309925691882,273.73169036535404 L 86.9203278880501,205.85900955451956 L 108.1926577820125,214.79558489093287 M 108.19265778201246,214.79558489093293 L 42.95718365491847,277.85303224350014" fill="var(--color-orange)" />
<path d="M 16.01866222670572,260.9635239602494 L 64.21355846594031,196.76837981958002 L 84.6729048323583,205.6584303966772 L 34.952716734799665,273.3382812707437 L 16.01866222670572,260.9635239602494" fill="var(--color-orange)" />
<path d="M 68.8903963160441,190.85908061708193 L 82.25541349784615,172.9843748096761 L 132.3677710664512,141.12367173925495 L 89.57711373005492,199.38760287611973 M 89.5771137300549,199.38760287611976 L 68.89039631604413,190.85908061708187" fill="var(--color-orange)" />
<path d="M 129.50937038812106,109.0377577787182 L 180.08682203184625,75.94633105171272 L 135.7171738296423,136.23656212587014 L 85.5539876971467,168.1967859454096 M 85.55398769714672,168.19678594540954 L 129.50937038812106,109.0377577787182" fill="var(--color-orange)" />
<path d="M 184.74498097130845,73.18560068946867 L 200.3250479099176,62.931170917141046 L 190.0988703712679,101.94040726025415 L 140.32029892811875,133.6485452145921 L 184.74498097130848,73.18560068946866" fill="var(--color-orange)" />
<path d="M 186.5933069894168,108.36621936078828 L 175.72419266429648,149.0056689424015 L 114.73250547247504,207.9052595481015 L 93.08766954128212,199.19684533564313 L 136.2787801772681,140.21031734044792 L 186.5933069894168,108.36621936078828" fill="var(--color-orange)" />
  </g>

  <!-- <g id="layer1" transform="translate(-50, -70) scale(2,2)">
    <g style="opacity:0.89999998">
      <g transform="translate(2.142857,2.142857)" id="g24289">
        <path d="M 156.74036,40.287001 L 87.692834,86.458152 L 29.251920,165.25005 L 54.505733,183.78994 L 145.74597,96.023963 L 156.74036,40.287001 z " style="opacity:0.60000002;fill:#c6c8d2;fill-opacity:1.0000000;fill-rule:evenodd;stroke:#4b4b4b;stroke-width:1.0000000px;stroke-linecap:butt;stroke-linejoin:bevel;stroke-opacity:1.0000000" id="path8253" />
        <path d="M 156.74035,40.526849 L 254.72515,64.622577 L 318.66063,131.26201 L 258.91369,161.24008 L 145.89391,95.728096 L 156.74035,40.526849 z " style="opacity:0.60000002;fill:#c1c8f2;fill-opacity:1.0000000;fill-rule:evenodd;stroke:#4b4b4b;stroke-width:1.0000000px;stroke-linecap:butt;stroke-linejoin:bevel;stroke-opacity:1.0000000" id="path8255" />
        <path d="M 29.134625,165.07149 L 54.505733,183.78994 L 107.18161,298.26369 L 102.81448,325.38987 L 58.041267,247.42955 L 29.134625,165.07149 z " style="opacity:0.60000002;fill:#c8c8c8;fill-opacity:1.0000000;fill-rule:evenodd;stroke:#4b4b4b;stroke-width:1.0000000px;stroke-linecap:butt;stroke-linejoin:bevel;stroke-opacity:1.0000000" id="path8257" />
        <path d="M 107.18161,298.26369 L 232.47115,287.83565 L 279.68310,311.75281 L 199.61056,331.59872 L 102.84513,325.35924 L 107.18161,298.26369 z " style="opacity:0.60000002;fill:#c3c8e6;fill-opacity:1.0000000;fill-rule:evenodd;stroke:#4b4b4b;stroke-width:1.0000000px;stroke-linecap:butt;stroke-linejoin:bevel;stroke-opacity:1.0000000" id="path8259" />
        <path d="M 258.58718,161.41865 L 318.80856,131.23138 L 325.55313,222.32368 L 279.76975,311.54361 L 232.68037,287.83565 L 258.58718,161.41865 z " style="opacity:0.60000002;fill:#bec8ff;fill-opacity:1.0000000;fill-rule:evenodd;stroke:#4b4b4b;stroke-width:1.0000000px;stroke-linecap:butt;stroke-linejoin:bevel;stroke-opacity:1.0000000" id="path8261" />
        <path d="M 146.10311,95.697458 L 258.79640,161.06151 L 232.61909,287.65708 L 107.36018,298.29432 L 54.505733,183.85122 L 146.10311,95.697458 z " style="opacity:0.60000002;fill:#c4c8e1;fill-opacity:1.0000000;fill-rule:evenodd;stroke:#4b4b4b;stroke-width:1.0000000px;stroke-linecap:butt;stroke-linejoin:bevel;stroke-opacity:1.0000000" id="path8263" />
      </g>
    </g>
  </g> -->
 
</svg>