<?xml version="1.0"?>
<svg xmlns="http://www.w3.org/2000/svg" width="500" height="500">
  <style>
    :root {
      --color-red: #f45e5e;
      --color-blue: #4591f5;
      --color-green: #54fd64;
      --color-yellow: #f0ff70;
      --innard: #555555;
    }
  </style>

  <path d="M 200 25 L 475 385 L 105 480 L 18 330 Z" fill="var(--innard)"/>

  <!-- side length 166.66 (=500/3)-->
  <!-- base unrounded paths, followed by rounded, for a single triangle cubelet -->
  <!-- pointing up -->
  <!-- M 0 -72.1687 L -83.333 72.1687 L 83.333 72.1687 Z -->
  <!-- M8.66,-57.17A10,10,-60,0,0,-8.66,-57.17L-74.67,57.17A10,10,-60,0,0,-66.01,72.17L66.01,72.17A10,10,-60,0,0,74.67,57.17Z -->
  <!-- pointing down -->
  <!-- M 0 72.1687 L -83.333 -72.1687 L 83.333 -72.1687 Z -->
  <!-- M8.66,57.169A10,10,-300,0,1,-8.66,57.17L-74.67,-57.17A10,10,60,0,1,-66.01,-72.17L66.01,-72.17A10,10,60,0,1,74.67,-57.17Z -->
  <!-- left face -->
  <g transform="matrix(0.18, 0.314, -0.3356, 0.9294, 167.7546, -103.8171)" stroke="var(--innard)">
    <g transform="translate(0,470)">
      <!-- bottom row left-to-right #1/5 -->
      <g transform="translate(83.33, -72.1687)">
        <g transform="scale(0.95, 0.95)">
          <path d="M8.66,-57.17A10,10,-60,0,0,-8.66,-57.17L-74.67,57.17A10,10,-60,0,0,-66.01,72.17L66.01,72.17A10,10,-60,0,0,74.67,57.17Z" fill="var(--color-blue)" />
        </g>
      </g>
      <!-- bottom row left-to-right #2/5 -->
      <g transform="translate(166.66, -72.1687)">
        <g transform="scale(0.95, 0.95)">
          <path d="M8.66,57.169A10,10,-300,0,1,-8.66,57.17L-74.67,-57.17A10,10,60,0,1,-66.01,-72.17L66.01,-72.17A10,10,60,0,1,74.67,-57.17Z" fill="var(--color-yellow)" />
        </g>
      </g>
      <!-- bottom row left-to-right #3/5 -->
      <g transform="translate(250, -72.1687)">
        <g transform="scale(0.95, 0.95)">
          <path d="M8.66,-57.17A10,10,-60,0,0,-8.66,-57.17L-74.67,57.17A10,10,-60,0,0,-66.01,72.17L66.01,72.17A10,10,-60,0,0,74.67,57.17Z" fill="var(--color-red)" />
        </g>
      </g>
      <!-- bottom row left-to-right #4/5 -->
      <g transform="translate(333.33, -72.1687)">
        <g transform="scale(0.95, 0.95)">
          <path d="M8.66,57.169A10,10,-300,0,1,-8.66,57.17L-74.67,-57.17A10,10,60,0,1,-66.01,-72.17L66.01,-72.17A10,10,60,0,1,74.67,-57.17Z" fill="var(--color-yellow)" />
        </g>
      </g>
      <!-- bottom row left-to-right #5/5 -->
      <g transform="translate(416.66, -72.1687)">
        <g transform="scale(0.95, 0.95)">
          <path d="M8.66,-57.17A10,10,-60,0,0,-8.66,-57.17L-74.67,57.17A10,10,-60,0,0,-66.01,72.17L66.01,72.17A10,10,-60,0,0,74.67,57.17Z" fill="var(--color-blue)" />
        </g>
      </g>
      <!-- middle row left-to-right #1/3 -->
      <g transform="translate(166.66, -216.5057)">
        <g transform="scale(0.95, 0.95)">
          <path d="M8.66,-57.17A10,10,-60,0,0,-8.66,-57.17L-74.67,57.17A10,10,-60,0,0,-66.01,72.17L66.01,72.17A10,10,-60,0,0,74.67,57.17Z" fill="var(--color-yellow)" />
        </g>
      </g>
      <!-- middle row left-to-right #2/3 -->
      <g transform="translate(250, -216.5057)">
        <g transform="scale(0.95, 0.95)">
          <path d="M8.66,57.169A10,10,-300,0,1,-8.66,57.17L-74.67,-57.17A10,10,60,0,1,-66.01,-72.17L66.01,-72.17A10,10,60,0,1,74.67,-57.17Z" fill="var(--color-green)" />
        </g>
      </g>
      <!-- middle row left-to-right #3/3 -->
      <g transform="translate(333.33, -216.5057)">
        <g transform="scale(0.95, 0.95)">
          <path d="M8.66,-57.17A10,10,-60,0,0,-8.66,-57.17L-74.67,57.17A10,10,-60,0,0,-66.01,72.17L66.01,72.17A10,10,-60,0,0,74.67,57.17Z" fill="var(--color-blue)" />
        </g>
      </g>
      <!-- top #1/1 -->
      <g transform="translate(250, -360.8427)">
        <g transform="scale(0.95, 0.95)">
          <path d="M8.66,-57.17A10,10,-60,0,0,-8.66,-57.17L-74.67,57.17A10,10,-60,0,0,-66.01,72.17L66.01,72.17A10,10,-60,0,0,74.67,57.17Z" fill="var(--color-red)" />
        </g>
      </g>
    </g>
  </g>
  <!-- right face -->
  <g transform="matrix(0.78, -0.2, 0.2199, 0.9954, -3.3565, 22.1759)" stroke="var(--innard)">
    <g transform="translate(0,470)">
      <!-- bottom row left-to-right #1/5 -->
      <g transform="translate(83.33, -72.1687)">
        <g transform="scale(0.95, 0.95)">
          <path d="M8.66,-57.17A10,10,-60,0,0,-8.66,-57.17L-74.67,57.17A10,10,-60,0,0,-66.01,72.17L66.01,72.17A10,10,-60,0,0,74.67,57.17Z" fill="var(--color-yellow)" />
        </g>
      </g>
      <!-- bottom row left-to-right #2/5 -->
      <g transform="translate(166.66, -72.1687)">
        <g transform="scale(0.95, 0.95)">
          <path d="M8.66,57.169A10,10,-300,0,1,-8.66,57.17L-74.67,-57.17A10,10,60,0,1,-66.01,-72.17L66.01,-72.17A10,10,60,0,1,74.67,-57.17Z" fill="var(--color-green)" />
        </g>
      </g>
      <!-- bottom row left-to-right #3/5 -->
      <g transform="translate(250, -72.1687)">
        <g transform="scale(0.95, 0.95)">
          <path d="M8.66,-57.17A10,10,-60,0,0,-8.66,-57.17L-74.67,57.17A10,10,-60,0,0,-66.01,72.17L66.01,72.17A10,10,-60,0,0,74.67,57.17Z" fill="var(--color-blue)" />
        </g>
      </g>
      <!-- bottom row left-to-right #4/5 -->
      <g transform="translate(333.33, -72.1687)">
        <g transform="scale(0.95, 0.95)">
          <path d="M8.66,57.169A10,10,-300,0,1,-8.66,57.17L-74.67,-57.17A10,10,60,0,1,-66.01,-72.17L66.01,-72.17A10,10,60,0,1,74.67,-57.17Z" fill="var(--color-red)" />
        </g>
      </g>
      <!-- bottom row left-to-right #5/5 -->
      <g transform="translate(416.66, -72.1687)">
        <g transform="scale(0.95, 0.95)">
          <path d="M8.66,-57.17A10,10,-60,0,0,-8.66,-57.17L-74.67,57.17A10,10,-60,0,0,-66.01,72.17L66.01,72.17A10,10,-60,0,0,74.67,57.17Z" fill="var(--color-blue)" />
        </g>
      </g>
      <!-- middle row left-to-right #1/3 -->
      <g transform="translate(166.66, -216.5057)">
        <g transform="scale(0.95, 0.95)">
          <path d="M8.66,-57.17A10,10,-60,0,0,-8.66,-57.17L-74.67,57.17A10,10,-60,0,0,-66.01,72.17L66.01,72.17A10,10,-60,0,0,74.67,57.17Z" fill="var(--color-red)" />
        </g>
      </g>
      <!-- middle row left-to-right #2/3 -->
      <g transform="translate(250, -216.5057)">
        <g transform="scale(0.95, 0.95)">
          <path d="M8.66,57.169A10,10,-300,0,1,-8.66,57.17L-74.67,-57.17A10,10,60,0,1,-66.01,-72.17L66.01,-72.17A10,10,60,0,1,74.67,-57.17Z" fill="var(--color-red)" />
        </g>
      </g>
      <!-- middle row left-to-right #3/3 -->
      <g transform="translate(333.33, -216.5057)">
        <g transform="scale(0.95, 0.95)">
          <path d="M8.66,-57.17A10,10,-60,0,0,-8.66,-57.17L-74.67,57.17A10,10,-60,0,0,-66.01,72.17L66.01,72.17A10,10,-60,0,0,74.67,57.17Z" fill="var(--color-green)" />
        </g>
      </g>
      <!-- top #1/1 -->
      <g transform="translate(250, -360.8427)">
        <g transform="scale(0.95, 0.95)">
          <path d="M8.66,-57.17A10,10,-60,0,0,-8.66,-57.17L-74.67,57.17A10,10,-60,0,0,-66.01,72.17L66.01,72.17A10,10,-60,0,0,74.67,57.17Z" fill="var(--color-yellow)" />
        </g>
      </g>
    </g>
  </g>
</svg>