<?xml version="1.0"?>

<svg xmlns="http://www.w3.org/2000/svg" width="500" height="500">
  <style>
    :root {
      --color-white: white;
      --color-red: #f45e5e;
      --color-blue: #4591f5;
      --color-green: #54fd64;
      --color-yellow: #f0ff70;
      --color-orange: #f8b468;
      --innard: #555555;
    }
  </style>

  <path d="M 250 20 L 450 135 L 450 370 L 250 475 L 50 370 L 50 135 Z" fill="var(--innard)"/>

  <g transform="translate(25 82.5) scale(1.41, .81) rotate(45) translate(50 -175)" fill="var(--color-white)" stroke="var(--innard)">
    <rect x="0" y="0" width="63" height="63" rx="6" ry="6" />
    <rect x="137" y="0" width="63" height="63" rx="6" ry="6" />
    <rect x="137" y="137" width="63" height="63" rx="6" ry="6" />
    <rect x="0" y="137" width="63" height="63" rx="6" ry="6" />

    <!-- base unrounded path for edge -->
    <!-- M 68.5 0 L 131.5 0 L 131.5 63 L 100 95 L 68.5 63 Z -->
    <path
      d="M68.5,6A6,6,90,0,1,74.5,0L125.5,0A6,6,90,0,1,131.5,6L131.5,60.542A6,6,-224.54886145321274,0,1,129.776,64.751L104.276,90.656A6,6,-270.9022770935746,0,1,95.724,90.656L70.224,64.751A6,6,135.45113854678726,0,1,68.5,60.542Z" />
    <path
      d="M194,68.5A6,6,90,0,1,200,74.5L200,125.5A6,6,-270,0,1,194,131.5L139.458,131.5A6,6,-224.54886145321274,0,1,135.249,129.776L109.344,104.276A6,6,89.09772290642545,0,1,109.344,95.724L135.249,70.224A6,6,135.4511385467873,0,1,139.458,68.5Z" />
    <path
      d="M131.5,194A6,6,-270,0,1,125.5,200L74.5,200A6,6,90,0,1,68.5,194L68.5,139.458A6,6,135.4511385467873,0,1,70.224,135.249L95.724,109.344A6,6,89.09772290642545,0,1,104.276,109.344L129.776,135.249A6,6,135.4511385467873,0,1,131.5,139.458Z" />
    <path
      d="M6,131.5A6,6,90,0,1,0,125.5L0,74.5A6,6,90,0,1,6,68.5L60.542,68.5A6,6,135.4511385467873,0,1,64.751,70.224L90.656,95.724A6,6,89.09772290642545,0,1,90.656,104.276L64.751,129.776A6,6,-224.54886145321274,0,1,60.542,131.5Z" />
  </g>

  <g transform="translate(42.5 37.5) skewY(30) translate(0 100) scale(1 1.14)" fill="var(--color-green)" stroke="var(--innard)">
    <rect x="0" y="0" width="63" height="63" rx="6" ry="6" />
    <rect x="137" y="0" width="63" height="63" rx="6" ry="6" />
    <rect x="137" y="137" width="63" height="63" rx="6" ry="6" />
    <rect x="0" y="137" width="63" height="63" rx="6" ry="6" />

    <path
      d="M68.5,6A6,6,90,0,1,74.5,0L125.5,0A6,6,90,0,1,131.5,6L131.5,60.542A6,6,-224.54886145321274,0,1,129.776,64.751L104.276,90.656A6,6,-270.9022770935746,0,1,95.724,90.656L70.224,64.751A6,6,135.45113854678726,0,1,68.5,60.542Z" />
    <path
      d="M194,68.5A6,6,90,0,1,200,74.5L200,125.5A6,6,-270,0,1,194,131.5L139.458,131.5A6,6,-224.54886145321274,0,1,135.249,129.776L109.344,104.276A6,6,89.09772290642545,0,1,109.344,95.724L135.249,70.224A6,6,135.4511385467873,0,1,139.458,68.5Z" />
    <path
      d="M131.5,194A6,6,-270,0,1,125.5,200L74.5,200A6,6,90,0,1,68.5,194L68.5,139.458A6,6,135.4511385467873,0,1,70.224,135.249L95.724,109.344A6,6,89.09772290642545,0,1,104.276,109.344L129.776,135.249A6,6,135.4511385467873,0,1,131.5,139.458Z" />
    <path
      d="M6,131.5A6,6,90,0,1,0,125.5L0,74.5A6,6,90,0,1,6,68.5L60.542,68.5A6,6,135.4511385467873,0,1,64.751,70.224L90.656,95.724A6,6,89.09772290642545,0,1,90.656,104.276L64.751,129.776A6,6,-224.54886145321274,0,1,60.542,131.5Z" />
  </g>

  <g transform="translate(32.5 26) skewY(-30) translate(225 357.5) scale(1 1.14)" fill="var(--color-red)" stroke="var(--innard)">
    <rect x="0" y="0" width="63" height="63" rx="6" ry="6" />
    <rect x="137" y="0" width="63" height="63" rx="6" ry="6" />
    <rect x="137" y="137" width="63" height="63" rx="6" ry="6" />
    <rect x="0" y="137" width="63" height="63" rx="6" ry="6" />

    <path
      d="M68.5,6A6,6,90,0,1,74.5,0L125.5,0A6,6,90,0,1,131.5,6L131.5,60.542A6,6,-224.54886145321274,0,1,129.776,64.751L104.276,90.656A6,6,-270.9022770935746,0,1,95.724,90.656L70.224,64.751A6,6,135.45113854678726,0,1,68.5,60.542Z" />
    <path
      d="M194,68.5A6,6,90,0,1,200,74.5L200,125.5A6,6,-270,0,1,194,131.5L139.458,131.5A6,6,-224.54886145321274,0,1,135.249,129.776L109.344,104.276A6,6,89.09772290642545,0,1,109.344,95.724L135.249,70.224A6,6,135.4511385467873,0,1,139.458,68.5Z" />
    <path
      d="M131.5,194A6,6,-270,0,1,125.5,200L74.5,200A6,6,90,0,1,68.5,194L68.5,139.458A6,6,135.4511385467873,0,1,70.224,135.249L95.724,109.344A6,6,89.09772290642545,0,1,104.276,109.344L129.776,135.249A6,6,135.4511385467873,0,1,131.5,139.458Z" />
    <path
      d="M6,131.5A6,6,90,0,1,0,125.5L0,74.5A6,6,90,0,1,6,68.5L60.542,68.5A6,6,135.4511385467873,0,1,64.751,70.224L90.656,95.724A6,6,89.09772290642545,0,1,90.656,104.276L64.751,129.776A6,6,-224.54886145321274,0,1,60.542,131.5Z" />
  </g>


</svg>