<?xml version="1.0"?>

<svg xmlns="http://www.w3.org/2000/svg" width="500" height="500">
  <style>
    :root {
      --color-white: white;
      --color-red: #f45e5e;
      --color-blue: #4591f5;
      --color-green: #54fd64;
      --color-yellow: #f0ff70;
      --color-orange: #f8b468;
      --innard: #555555;
    }
  </style>

  <!--
  https://yqnn.github.io/svg-path-editor/
  to create paths, use to rotate around origin, etc
  -->

  <!--
  edges notes
  start point for upper edge, boxed corners, no curve on long inner edges
  M50 0 450 0 450 12.5 258 125 242 125 50 12.5Z

  svg-round-corners roundCorners(path, 50)
  M50,6.25A6.25,6.25,90,0,1,56.25,0L443.75,0A6.25,6.25,90,0,1,450,6.25L450,6.25A10.906,10.906,-239.6323630158515,0,1,444.608,15.66L264.902,120.956A29.478,29.478,-210.36763698414856,0,1,250,125L250,125A29.478,29.478,-210.36763698414856,0,1,235.098,120.956L55.392,15.66A10.906,10.906,120.36763698414853,0,1,50,6.25Z

  manually turn straight edges into slight bezier curves
  M50 6.25A6.25 6.25 90 0156.25 0L443.75 0A6.25 6.25 90 01450 6.25L450 6.25A10.906 10.906-239.6324 01444.608 15.66Q350 55 264.902 120.956A29.478 29.478-210.3676 01250 125L250 125A29.478 29.478-210.3676 01235.098 120.956Q144.608 55 55.392 15.66A10.906 10.906 120.3676 0150 6.25Z
  -->

  <!--
  corner piece notes
  edges tips UL at (50, 6.25) and (6.25, 50)
  edges inner tips at (125, 250) and (250, 125)

  unrounded starting point
  M 7 7 L 237.5 137.5 L 137.5 237.5 Z

  svg-round-corners roundCorners(path, 10)
  M24.786,38.415A10,10,30.966347501134496,0,1,38.415,24.786L226.06,131.023A10,10,74.51682624943275,0,1,228.204,146.796L146.796,228.204A10,10,-285.48317375056723,0,1,131.023,226.06Z

  manually turn long straights into bezier curves with SVG path editor
  M24.786 38.415A10 10 30.9663 0138.415 24.786Q135 60 226.06 131.023A10 10 74.5168 01228.204 146.796L146.796 228.204A10 10-285.4832 01131.023 226.06Q59.91 135 24.786 38.415

  manually turn short inner straight into bezier curve
  M24.786 38.415A10 10 30.9663 0138.415 24.786Q135 60 226.06 131.023A10 10 74.5168 01228.204 146.796Q184 184 146.796 228.204A10 10-285.4832 01131.023 226.06Q59.91 135 24.786 38.415
  -->

  <!--
  center piece notes
  based on unrounded edge starting point, start with (242, 125) and (258, 125) as corners, then rotate all around
  (375, 242) -> (275, 258) -> (258, 375) -> (242, 375) -> (125, 258) -> (125, 242)

  Then move it all inwards by 35

  Starting, unrounded
  M 242 160 L 258 160 L 340 242 L 340 258 L 258 340 L 242 340 L 160 258 L 160 242 Z

  roundCorners(path, 30)
  M236.343,165.657A19.314,19.314,135,0,1,250,160L250,160A19.314,19.314,135,0,1,263.657,165.657L334.343,236.343A19.314,19.314,135,0,1,340,250L340,250A19.314,19.314,-225,0,1,334.343,263.657L263.657,334.343A19.314,19.314,-225,0,1,250,340L250,340A19.314,19.314,-225,0,1,236.343,334.343L165.657,263.657A19.314,19.314,135,0,1,160,250L160,250A19.314,19.314,135,0,1,165.657,236.343Z

  manually turn straights into bezier curves
  M236.343 165.657A19.314 19.314 135 01250 160L250 160A19.314 19.314 135 01263.657 165.657Q306 198 334 236A19.314 19.314 135 01340 250L340 250A19.314 19.314-225 01334.343 263.657Q306 302 263.657 334.343A19.314 19.314-225 01250 340L250 340A19.314 19.314-225 01236.343 334.343Q196 304 165.657 263.657A19.314 19.314 135 01160 250L160 250A19.314 19.314 135 01165.657 236.343Q196 196 236.343 165.657
  -->

  <path d="M 249 15 L 450 135 L 455 365 L 251 480 L 47 365 L 47 135 Z" fill="var(--innard)"/>

  <g transform="translate(25 82.5) scale(1.41, .81) rotate(45) translate(50 -175)" fill="var(--color-white)" stroke="var(--innard)">
    <g transform="scale(0.4 0.4)">
      <!-- edges U, R, D, L in order-->
       <path d="M50 6.25A6.25 6.25 90 0156.25 0L443.75 0A6.25 6.25 90 01450 6.25L450 6.25A10.906 10.906-239.6324 01444.608 15.66Q350 55 264.902 120.956A29.478 29.478-210.3676 01250 125L250 125A29.478 29.478-210.3676 01235.098 120.956Q144.608 55 55.392 15.66A10.906 10.906 120.3676 0150 6.25Z"/>
       <path d="M493.75 50A6.25 6.25 180 01500 56.25L500 443.75A6.25 6.25 180 01493.75 450L493.75 450A10.906 10.906-149.6324 01484.34 444.608Q445 350 379.044 264.902A29.478 29.478-120.3676 01375 250L375 250A29.478 29.478-120.3676 01379.044 235.098Q445 144.608 484.34 55.392A10.906 10.906 210.3676 01493.75 50Z"/>
       <path d="M450 493.75A6.25 6.25 270 01443.75 500L56.25 500A6.25 6.25 270 0150 493.75L50 493.75A10.906 10.906-59.6324 0155.392 484.34Q150 445 235.098 379.044A29.478 29.478-30.3676 01250 375L250 375A29.478 29.478-30.3676 01264.902 379.044Q355.392 445 444.608 484.34A10.906 10.906 300.3676 01450 493.75Z"/>
       <path d="M6.25 450A6.25 6.25 0 010 443.75L0 56.25A6.25 6.25 0 016.25 50L6.25 50A10.906 10.906 30.3676 0115.66 55.392Q55 150 120.956 235.098A29.478 29.478 59.6324 01125 250L125 250A29.478 29.478 59.6324 01120.956 264.902Q55 355.392 15.66 444.608A10.906 10.906 30.3676 016.25 450Z"/>
    
      <!-- corners UL, UR, DR, DL in order-->
      <path d="M24.786 38.415A10 10 30.9663 0138.415 24.786Q135 60 226.06 131.023A10 10 74.5168 01228.204 146.796Q184 184 146.796 228.204A10 10-285.4832 01131.023 226.06Q59.91 135 24.786 38.415"/>
      <path d="M461.585 24.786A10 10 120.9663 01475.214 38.415Q440 135 368.977 226.06A10 10 164.5168 01353.204 228.204Q316 184 271.796 146.796A10 10-195.4832 01273.94 131.023Q365 59.91 461.585 24.786"/>
      <path d="M475.214 461.585A10 10 210.9663 01461.585 475.214Q365 440 273.94 368.977A10 10 254.5168 01271.796 353.204Q316 316 353.204 271.796A10 10-105.4832 01368.977 273.94Q440.09 365 475.214 461.585"/>
      <path d="M38.415 475.214A10 10 300.9663 0124.786 461.585Q60 365 131.023 273.94A10 10 344.5168 01146.796 271.796Q184 316 228.204 353.204A10 10-15.4832 01226.06 368.977Q135 440.09 38.415 475.214"/>
  
      <!-- center -->
       <path d="M236.343 165.657A19.314 19.314 135 01250 160L250 160A19.314 19.314 135 01263.657 165.657Q306 198 334 236A19.314 19.314 135 01340 250L340 250A19.314 19.314-225 01334.343 263.657Q306 302 263.657 334.343A19.314 19.314-225 01250 340L250 340A19.314 19.314-225 01236.343 334.343Q196 304 165.657 263.657A19.314 19.314 135 01160 250L160 250A19.314 19.314 135 01165.657 236.343Q196 196 236.343 165.657"/>
    </g>
  
  </g>

  <g transform="translate(42.5 37.5) skewY(30) translate(0 100) scale(1 1.14)" fill="var(--color-green)" stroke="var(--innard)">
    <g transform="scale(0.4 0.4)">
      <!-- edges U, R, D, L in order-->
       <path d="M50 6.25A6.25 6.25 90 0156.25 0L443.75 0A6.25 6.25 90 01450 6.25L450 6.25A10.906 10.906-239.6324 01444.608 15.66Q350 55 264.902 120.956A29.478 29.478-210.3676 01250 125L250 125A29.478 29.478-210.3676 01235.098 120.956Q144.608 55 55.392 15.66A10.906 10.906 120.3676 0150 6.25Z"/>
       <path d="M493.75 50A6.25 6.25 180 01500 56.25L500 443.75A6.25 6.25 180 01493.75 450L493.75 450A10.906 10.906-149.6324 01484.34 444.608Q445 350 379.044 264.902A29.478 29.478-120.3676 01375 250L375 250A29.478 29.478-120.3676 01379.044 235.098Q445 144.608 484.34 55.392A10.906 10.906 210.3676 01493.75 50Z"/>
       <path d="M450 493.75A6.25 6.25 270 01443.75 500L56.25 500A6.25 6.25 270 0150 493.75L50 493.75A10.906 10.906-59.6324 0155.392 484.34Q150 445 235.098 379.044A29.478 29.478-30.3676 01250 375L250 375A29.478 29.478-30.3676 01264.902 379.044Q355.392 445 444.608 484.34A10.906 10.906 300.3676 01450 493.75Z"/>
       <path d="M6.25 450A6.25 6.25 0 010 443.75L0 56.25A6.25 6.25 0 016.25 50L6.25 50A10.906 10.906 30.3676 0115.66 55.392Q55 150 120.956 235.098A29.478 29.478 59.6324 01125 250L125 250A29.478 29.478 59.6324 01120.956 264.902Q55 355.392 15.66 444.608A10.906 10.906 30.3676 016.25 450Z"/>
    
      <!-- corners UL, UR, DR, DL in order-->
      <path d="M24.786 38.415A10 10 30.9663 0138.415 24.786Q135 60 226.06 131.023A10 10 74.5168 01228.204 146.796Q184 184 146.796 228.204A10 10-285.4832 01131.023 226.06Q59.91 135 24.786 38.415"/>
      <path d="M461.585 24.786A10 10 120.9663 01475.214 38.415Q440 135 368.977 226.06A10 10 164.5168 01353.204 228.204Q316 184 271.796 146.796A10 10-195.4832 01273.94 131.023Q365 59.91 461.585 24.786"/>
      <path d="M475.214 461.585A10 10 210.9663 01461.585 475.214Q365 440 273.94 368.977A10 10 254.5168 01271.796 353.204Q316 316 353.204 271.796A10 10-105.4832 01368.977 273.94Q440.09 365 475.214 461.585"/>
      <path d="M38.415 475.214A10 10 300.9663 0124.786 461.585Q60 365 131.023 273.94A10 10 344.5168 01146.796 271.796Q184 316 228.204 353.204A10 10-15.4832 01226.06 368.977Q135 440.09 38.415 475.214"/>
  
      <!-- center -->
       <path d="M236.343 165.657A19.314 19.314 135 01250 160L250 160A19.314 19.314 135 01263.657 165.657Q306 198 334 236A19.314 19.314 135 01340 250L340 250A19.314 19.314-225 01334.343 263.657Q306 302 263.657 334.343A19.314 19.314-225 01250 340L250 340A19.314 19.314-225 01236.343 334.343Q196 304 165.657 263.657A19.314 19.314 135 01160 250L160 250A19.314 19.314 135 01165.657 236.343Q196 196 236.343 165.657"/>
    </g>
  
  </g>

  <g transform="translate(32.5 26) skewY(-30) translate(225 357.5) scale(1 1.14)" fill="var(--color-red)" stroke="var(--innard)">
    <g transform="scale(0.4 0.4)">
      <!-- edges U, R, D, L in order-->
       <path d="M50 6.25A6.25 6.25 90 0156.25 0L443.75 0A6.25 6.25 90 01450 6.25L450 6.25A10.906 10.906-239.6324 01444.608 15.66Q350 55 264.902 120.956A29.478 29.478-210.3676 01250 125L250 125A29.478 29.478-210.3676 01235.098 120.956Q144.608 55 55.392 15.66A10.906 10.906 120.3676 0150 6.25Z"/>
       <path d="M493.75 50A6.25 6.25 180 01500 56.25L500 443.75A6.25 6.25 180 01493.75 450L493.75 450A10.906 10.906-149.6324 01484.34 444.608Q445 350 379.044 264.902A29.478 29.478-120.3676 01375 250L375 250A29.478 29.478-120.3676 01379.044 235.098Q445 144.608 484.34 55.392A10.906 10.906 210.3676 01493.75 50Z"/>
       <path d="M450 493.75A6.25 6.25 270 01443.75 500L56.25 500A6.25 6.25 270 0150 493.75L50 493.75A10.906 10.906-59.6324 0155.392 484.34Q150 445 235.098 379.044A29.478 29.478-30.3676 01250 375L250 375A29.478 29.478-30.3676 01264.902 379.044Q355.392 445 444.608 484.34A10.906 10.906 300.3676 01450 493.75Z"/>
       <path d="M6.25 450A6.25 6.25 0 010 443.75L0 56.25A6.25 6.25 0 016.25 50L6.25 50A10.906 10.906 30.3676 0115.66 55.392Q55 150 120.956 235.098A29.478 29.478 59.6324 01125 250L125 250A29.478 29.478 59.6324 01120.956 264.902Q55 355.392 15.66 444.608A10.906 10.906 30.3676 016.25 450Z"/>
    
      <!-- corners UL, UR, DR, DL in order-->
      <path d="M24.786 38.415A10 10 30.9663 0138.415 24.786Q135 60 226.06 131.023A10 10 74.5168 01228.204 146.796Q184 184 146.796 228.204A10 10-285.4832 01131.023 226.06Q59.91 135 24.786 38.415"/>
      <path d="M461.585 24.786A10 10 120.9663 01475.214 38.415Q440 135 368.977 226.06A10 10 164.5168 01353.204 228.204Q316 184 271.796 146.796A10 10-195.4832 01273.94 131.023Q365 59.91 461.585 24.786"/>
      <path d="M475.214 461.585A10 10 210.9663 01461.585 475.214Q365 440 273.94 368.977A10 10 254.5168 01271.796 353.204Q316 316 353.204 271.796A10 10-105.4832 01368.977 273.94Q440.09 365 475.214 461.585"/>
      <path d="M38.415 475.214A10 10 300.9663 0124.786 461.585Q60 365 131.023 273.94A10 10 344.5168 01146.796 271.796Q184 316 228.204 353.204A10 10-15.4832 01226.06 368.977Q135 440.09 38.415 475.214"/>
  
      <!-- center -->
       <path d="M236.343 165.657A19.314 19.314 135 01250 160L250 160A19.314 19.314 135 01263.657 165.657Q306 198 334 236A19.314 19.314 135 01340 250L340 250A19.314 19.314-225 01334.343 263.657Q306 302 263.657 334.343A19.314 19.314-225 01250 340L250 340A19.314 19.314-225 01236.343 334.343Q196 304 165.657 263.657A19.314 19.314 135 01160 250L160 250A19.314 19.314 135 01165.657 236.343Q196 196 236.343 165.657"/>
    </g>
  
  </g>
</svg>