<?xml version="1.0"?>

<svg xmlns="http://www.w3.org/2000/svg" width="500" height="500">
  <style>
    :root {
      --color-white: white;
      --color-red: #f45e5e;
      --color-blue: #4591f5;
      --color-green: #54fd64;
      --color-yellow: #f0ff70;
      --color-orange: #f8b468;
      --innard: #555555;
    }
  </style>

  <path d="M 250 20 L 450 135 L 450 370 L 250 475 L 50 370 L 50 135 Z" fill="var(--innard)"/>

  <g transform="translate(25 82.5) scale(1.41, .81) rotate(45) translate(50 -175)" stroke="var(--innard)">
    <!-- commands in comments are before rounding, on a 200x200 canvas -->

    <!-- up left corner -->
    <!-- M 0 0 L 25 0 L 90 0 L 0 90 L 0 25 Z -->
    <path
      d="M0,5A5,5,90,0,1,5,0L25,0A5,5,180,0,1,25,0L77.929,0A5,5,45,0,1,81.464,8.536L8.536,81.464A5,5,45,0,1,0,77.929L0,25A5,5,180,0,1,0,25Z"
      fill="var(--color-white)" />

    <!-- up right corner -->
    <!-- M 200 -0 L 200 25 L 200 90 L 110 -0 L 175 -0 Z -->
    <path
      d="M195,0A5,5,90,0,1,200,5L200,25A5,5,-180,0,0,200,25L200,77.929A5,5,-315,0,1,191.464,81.464L118.536,8.536A5,5,45,0,1,122.071,0L175,0A5,5,180,0,1,175,0Z"
      fill="var(--color-red)" />

    <!-- down right corner -->
    <!-- M 200 200 L 175 200 L 110 200 L 200 110 L 200 175 Z -->
    <path
      d="M200,195A5,5,-270,0,1,195,200L175,200A5,5,-180,0,0,175,200L122.071,200A5,5,45,0,1,118.536,191.464L191.464,118.536A5,5,45,0,1,200,122.071L200,175A5,5,-180,0,0,200,175Z"
      fill="var(--color-blue)" />

    <!-- down left corner -->
    <!-- M 0 200 L 0 175 L 0 110 L 90 200 L 25 200 Z -->
    <path
      d="M5,200A5,5,90,0,1,0,195L0,175A5,5,180,0,1,0,175L0,122.071A5,5,45,0,1,8.536,118.536L81.464,191.464A5,5,45,0,1,77.929,200L25,200A5,5,-180,0,0,25,200Z"
      fill="var(--color-green)" />

    <!-- center -->
    <!-- M 0 100 L 100 0 L 200 100 L 100 200 Z -->
    <path
      d="M3.536,103.536A5,5,90,0,1,3.536,96.464L96.464,3.536A5,5,90,0,1,103.536,3.536L196.464,96.464A5,5,90,0,1,196.464,103.536L103.536,196.464A5,5,-270,0,1,96.464,196.464Z"
      fill="var(--color-white)" />
  </g>

  <g transform="translate(42.5 37.5) skewY(30) translate(0 100) scale(1 1.14)" stroke="var(--innard)">
    <path
      d="M0,5A5,5,90,0,1,5,0L25,0A5,5,180,0,1,25,0L77.929,0A5,5,45,0,1,81.464,8.536L8.536,81.464A5,5,45,0,1,0,77.929L0,25A5,5,180,0,1,0,25Z"
      fill="var(--color-orange)" />
    <path
      d="M195,0A5,5,90,0,1,200,5L200,25A5,5,-180,0,0,200,25L200,77.929A5,5,-315,0,1,191.464,81.464L118.536,8.536A5,5,45,0,1,122.071,0L175,0A5,5,180,0,1,175,0Z"
      fill="var(--color-red)" />
    <path
      d="M200,195A5,5,-270,0,1,195,200L175,200A5,5,-180,0,0,175,200L122.071,200A5,5,45,0,1,118.536,191.464L191.464,118.536A5,5,45,0,1,200,122.071L200,175A5,5,-180,0,0,200,175Z"
      fill="var(--color-yellow)" />
    <path
      d="M5,200A5,5,90,0,1,0,195L0,175A5,5,180,0,1,0,175L0,122.071A5,5,45,0,1,8.536,118.536L81.464,191.464A5,5,45,0,1,77.929,200L25,200A5,5,-180,0,0,25,200Z"
      fill="var(--color-white)" />
    <path
      d="M3.536,103.536A5,5,90,0,1,3.536,96.464L96.464,3.536A5,5,90,0,1,103.536,3.536L196.464,96.464A5,5,90,0,1,196.464,103.536L103.536,196.464A5,5,-270,0,1,96.464,196.464Z"
      fill="var(--color-red)" />
  </g>

  <g transform="translate(32.5 26) skewY(-30) translate(225 357.5) scale(1 1.14)" stroke="var(--innard)">
    <path
      d="M0,5A5,5,90,0,1,5,0L25,0A5,5,180,0,1,25,0L77.929,0A5,5,45,0,1,81.464,8.536L8.536,81.464A5,5,45,0,1,0,77.929L0,25A5,5,180,0,1,0,25Z"
      fill="var(--color-yellow)" />
    <path
      d="M195,0A5,5,90,0,1,200,5L200,25A5,5,-180,0,0,200,25L200,77.929A5,5,-315,0,1,191.464,81.464L118.536,8.536A5,5,45,0,1,122.071,0L175,0A5,5,180,0,1,175,0Z"
      fill="var(--color-blue)" />
    <path
      d="M200,195A5,5,-270,0,1,195,200L175,200A5,5,-180,0,0,175,200L122.071,200A5,5,45,0,1,118.536,191.464L191.464,118.536A5,5,45,0,1,200,122.071L200,175A5,5,-180,0,0,200,175Z"
      fill="var(--color-orange)" />
    <path
      d="M5,200A5,5,90,0,1,0,195L0,175A5,5,180,0,1,0,175L0,122.071A5,5,45,0,1,8.536,118.536L81.464,191.464A5,5,45,0,1,77.929,200L25,200A5,5,-180,0,0,25,200Z"
      fill="var(--color-green)" />
    <path
      d="M3.536,103.536A5,5,90,0,1,3.536,96.464L96.464,3.536A5,5,90,0,1,103.536,3.536L196.464,96.464A5,5,90,0,1,196.464,103.536L103.536,196.464A5,5,-270,0,1,96.464,196.464Z"
      fill="var(--color-green)" />
  </g>
</svg>