<?xml version="1.0"?>

<svg xmlns="http://www.w3.org/2000/svg" width="500" height="500">
  <style>
    :root {
      --color-white: white;
      --color-red: #f45e5e;
      --color-blue: #4591f5;
      --color-green: #54fd64;
      --color-yellow: #f0ff70;
      --color-orange: #f8b468;
      --innard: #555555;
    }
  </style>

  <path d="M 250 20 L 450 135 L 450 370 L 250 475 L 50 370 L 50 135 Z" fill="var(--innard)"/>

  <g transform="translate(25 82.5) scale(1.41, .81) rotate(45) translate(50 -175)" stroke="var(--innard)">
    <!-- commands in comments are before rounding, on a 200x200 canvas -->

    <!-- up left corner -->
    <!-- M 0 0 L 75 0 L 95 95 L 0 75 Z -->
    <path
      d="M0,5A5,5,90,0,1,5,0L70.943,0A5,5,101.88865803962798,0,1,75.836,3.97L93.421,87.498A5,5,66.22268392074406,0,1,87.498,93.421L3.97,75.836A5,5,101.88865803962797,0,1,0,70.943Z"
      fill="var(--color-white)" />

    <!-- up edge -->
    <!-- M 77.5 0 L 122.5 0 L 100 100 Z -->
    <path
      d="M78.872,6.098A5,5,77.31961650818018,0,1,83.75,0L116.25,0A5,5,77.31961650818018,0,1,121.128,6.098L104.878,78.32A5,5,-334.6392330163604,0,1,95.122,78.32Z"
      fill="var(--color-yellow)" />

    <!-- up right corner -->
    <!-- M 200 -0 L 200 75 L 105 95 L 125 -0 Z -->
    <path
      d="M195,0A5,5,90,0,1,200,5L200,70.943A5,5,-258.11134196037204,0,1,196.03,75.836L112.502,93.421A5,5,66.22268392074406,0,1,106.579,87.498L124.164,3.97A5,5,101.88865803962798,0,1,129.057,0Z"
      fill="var(--color-yellow)" />

    <!-- right edge -->
    <!-- M 200 77.5 L 200 122.5 L 100 100 Z -->
    <path
      d="M193.902,78.872A5,5,77.31961650818018,0,1,200,83.75L200,116.25A5,5,-282.68038349181984,0,1,193.902,121.128L121.68,104.878A5,5,25.360766983639653,0,1,121.68,95.122Z"
      fill="var(--color-white)" />

    <!-- down right corner -->
    <!-- M 200 200 L 125 200 L 105 105 L 200 125 Z -->
    <path
      d="M200,195A5,5,-270,0,1,195,200L129.057,200A5,5,-258.11134196037204,0,1,124.164,196.03L106.579,112.502A5,5,66.22268392074406,0,1,112.502,106.579L196.03,124.164A5,5,101.88865803962798,0,1,200,129.057Z"
      fill="var(--color-yellow)" />

    <!-- down edge -->
    <!-- M 122.5 200 L 77.5 200 L 100 100 Z -->
    <path
      d="M121.128,193.902A5,5,77.31961650818018,0,1,116.25,200L83.75,200A5,5,77.31961650818018,0,1,78.872,193.902L95.122,121.68A5,5,25.36076698363964,0,1,104.878,121.68Z"
      fill="var(--color-white)" />

    <!-- down left corner -->
    <!-- M 0 200 L 0 125 L 95 105 L 75 200 Z -->
    <path
      d="M5,200A5,5,90,0,1,0,195L0,129.057A5,5,101.88865803962798,0,1,3.97,124.164L87.498,106.579A5,5,66.22268392074406,0,1,93.421,112.502L75.836,196.03A5,5,-258.11134196037204,0,1,70.943,200Z"
      fill="var(--color-white)" />

    <!-- left edge -->
    <!-- M 0 122.5 L 0 77.5 L 100 100 Z -->
    <path
      d="M6.098,121.128A5,5,77.31961650818016,0,1,0,116.25L0,83.75A5,5,77.31961650818018,0,1,6.098,78.872L78.32,95.122A5,5,25.360766983639653,0,1,78.32,104.878Z"
      fill="var(--color-yellow)" />
  </g>

  <g transform="translate(42.5 37.5) skewY(30) translate(0 100) scale(1 1.14)" stroke="var(--innard)">
    <rect x="0" y="0" width="75" height="65" rx="5" ry="5" fill="var(--color-green)" />
    <rect x="77.5" y="0" width="45" height="65" rx="5" ry="5" fill="var(--color-blue)" />
    <rect x="125" y="0" width="75" height="65" rx="5" ry="5" fill="var(--color-blue)" />

    <rect x="0" y="67.5" width="75" height="65" rx="5" ry="5" fill="var(--color-red)" />
    <rect x="77.5" y="67.5" width="122.5" height="65" rx="5" ry="5" fill="var(--color-red)" />

    <rect x="0" y="135" width="75" height="65" rx="5" ry="5" fill="var(--color-orange)" />
    <rect x="77.5" y="135" width="45" height="65" rx="5" ry="5" fill="var(--color-green)" />
    <rect x="125" y="135" width="75" height="65" rx="5" ry="5" fill="var(--color-red)" />
  </g>

  <g transform="translate(32.5 26) skewY(-30) translate(225 357.5) scale(1 1.14)" stroke="var(--innard)">
    <rect x="0" y="0" width="75" height="65" rx="5" ry="5" fill="var(--color-red)" />
    <rect x="77.5" y="0" width="45" height="65" rx="5" ry="5" fill="var(--color-red)" />
    <rect x="125" y="0" width="75" height="65" rx="5" ry="5" fill="var(--color-orange)" />

    <rect x="0" y="67.5" width="200" height="65" rx="5" ry="5" fill="var(--color-green)" />

    <rect x="0" y="135" width="75" height="65" rx="5" ry="5" fill="var(--color-green)" />
    <rect x="77.5" y="135" width="45" height="65" rx="5" ry="5" fill="var(--color-orange)" />
    <rect x="125" y="135" width="75" height="65" rx="5" ry="5" fill="var(--color-blue)" />
  </g>
</svg>